<svg xmlns="http://www.w3.org/2000/svg" width="29" height="36" viewBox="0 0 29 36" fill="none">
    <path fill-rule="evenodd" clip-rule="evenodd"
        d="M28.6399 1.63718C28.6399 1.20227 28.4736 0.780268 28.1666 0.473275C27.8596 0.166282 27.4374 0 27.0025 0C21.9627 0 6.68987 0 1.65006 0C1.20236 0 0.792994 0.166282 0.486001 0.473275C0.179008 0.780268 0 1.20227 0 1.63718C0 7.61076 0 28.2178 0 34.1914C0 34.6263 0.179008 35.0484 0.486001 35.3554C0.792994 35.6624 1.20236 35.8287 1.65006 35.8287C6.68987 35.8287 21.9627 35.8287 27.0025 35.8287C27.4374 35.8287 27.8596 35.6624 28.1666 35.3554C28.4736 35.0484 28.6399 34.6263 28.6399 34.1914C28.6399 28.2178 28.6399 7.61076 28.6399 1.63718Z"
        fill="#EF4666"></path>
    <path fill-rule="evenodd" clip-rule="evenodd"
        d="M8.53455 25.77C8.53455 25.2296 8.09341 24.7773 7.54193 24.7773H5.56759C5.02714 24.7773 4.58594 25.2296 4.58594 25.77V27.7442C4.58594 28.2957 5.02714 28.7369 5.56759 28.7369H7.54193C8.09341 28.7369 8.53455 28.2957 8.53455 27.7442V25.77Z"
        fill="#32B777"></path>
    <path fill-rule="evenodd" clip-rule="evenodd"
        d="M12.3739 26.701H20.1639C20.5093 26.701 20.8035 26.4068 20.8035 26.0614C20.8035 25.7033 20.5093 25.4219 20.1639 25.4219H12.3739C12.0286 25.4219 11.7344 25.7033 11.7344 26.0614C11.7344 26.4068 12.0286 26.701 12.3739 26.701Z"
        fill="#73E686"></path>
    <path fill-rule="evenodd" clip-rule="evenodd"
        d="M12.5104 28.9932H24.1647C24.5092 28.9932 24.7962 28.7062 24.7962 28.3618C24.7962 27.9982 24.5092 27.7109 24.1647 27.7109H12.5104C12.166 27.7109 11.8789 27.9982 11.8789 28.3618C11.8789 28.7062 12.166 28.9932 12.5104 28.9932Z"
        fill="#73E686"></path>
    <path fill-rule="evenodd" clip-rule="evenodd"
        d="M6.63565 26.7639L5.91888 25.7936C5.75273 25.5753 5.43617 25.5269 5.21181 25.6967C4.98744 25.8543 4.94135 26.1696 5.10751 26.4L6.1505 27.8069C6.23539 27.9161 6.36279 27.9889 6.50226 28.001C6.64294 28.0131 6.78238 27.9766 6.8891 27.8796L9.83864 25.3085C10.0485 25.1266 10.0703 24.8113 9.8872 24.593C9.70407 24.3868 9.38388 24.3625 9.17406 24.5444L6.63565 26.7639Z"
        fill="#FFF7D8"></path>
    <path fill-rule="evenodd" clip-rule="evenodd"
        d="M8.53455 16.6763C8.53455 16.1358 8.09341 15.6836 7.54193 15.6836H5.56759C5.02714 15.6836 4.58594 16.1358 4.58594 16.6763V18.6505C4.58594 19.202 5.02714 19.6432 5.56759 19.6432H7.54193C8.09341 19.6432 8.53455 19.202 8.53455 18.6505V16.6763Z"
        fill="#32B777"></path>
    <path fill-rule="evenodd" clip-rule="evenodd"
        d="M12.3739 17.6073H20.1639C20.5093 17.6073 20.8035 17.3131 20.8035 16.9677C20.8035 16.6095 20.5093 16.3281 20.1639 16.3281H12.3739C12.0286 16.3281 11.7344 16.6095 11.7344 16.9677C11.7344 17.3131 12.0286 17.6073 12.3739 17.6073Z"
        fill="#73E686"></path>
    <path fill-rule="evenodd" clip-rule="evenodd"
        d="M12.5104 19.9736H24.1647C24.5092 19.9736 24.7962 19.6867 24.7962 19.3422C24.7962 18.9786 24.5092 18.6914 24.1647 18.6914H12.5104C12.166 18.6914 11.8789 18.9786 11.8789 19.3422C11.8789 19.6867 12.166 19.9736 12.5104 19.9736Z"
        fill="#73E686"></path>
    <path fill-rule="evenodd" clip-rule="evenodd"
        d="M6.63565 17.6702L5.91888 16.6999C5.75273 16.4816 5.43617 16.4331 5.21181 16.6029C4.98744 16.7606 4.94135 17.0758 5.10751 17.3063L6.1505 18.7132C6.23539 18.8223 6.36279 18.8951 6.50226 18.9073C6.64294 18.9194 6.78238 18.8829 6.8891 18.7859L9.83864 16.2147C10.0485 16.0328 10.0703 15.7175 9.8872 15.4992C9.70407 15.293 9.38388 15.2687 9.17406 15.4507L6.63565 17.6702Z"
        fill="#FFF7D8"></path>
    <path fill-rule="evenodd" clip-rule="evenodd"
        d="M8.53455 7.78957C8.53455 7.24912 8.09341 6.79688 7.54193 6.79688H5.56759C5.02714 6.79688 4.58594 7.24912 4.58594 7.78957V9.76377C4.58594 10.3153 5.02714 10.7565 5.56759 10.7565H7.54193C8.09341 10.7565 8.53455 10.3153 8.53455 9.76377V7.78957Z"
        fill="#32B777"></path>
    <path fill-rule="evenodd" clip-rule="evenodd"
        d="M12.3739 8.64633H20.1639C20.5093 8.64633 20.8035 8.35212 20.8035 8.00676C20.8035 7.6486 20.5093 7.36719 20.1639 7.36719H12.3739C12.0286 7.36719 11.7344 7.6486 11.7344 8.00676C11.7344 8.35212 12.0286 8.64633 12.3739 8.64633Z"
        fill="#73E686"></path>
    <path fill-rule="evenodd" clip-rule="evenodd"
        d="M12.3659 11.0088H24.0202C24.3647 11.0088 24.6516 10.7218 24.6516 10.3774C24.6516 10.0138 24.3647 9.72656 24.0202 9.72656H12.3659C12.0215 9.72656 11.7344 10.0138 11.7344 10.3774C11.7344 10.7218 12.0215 11.0088 12.3659 11.0088Z"
        fill="#73E686"></path>
    <path fill-rule="evenodd" clip-rule="evenodd"
        d="M6.63565 8.78346L5.91888 7.81316C5.75273 7.59486 5.43617 7.5464 5.21181 7.71619C4.98744 7.87386 4.94135 8.18913 5.10751 8.41956L6.1505 9.82645C6.23539 9.9356 6.36279 10.0084 6.50226 10.0205C6.64294 10.0327 6.78238 9.99617 6.8891 9.89914L9.83864 7.32801C10.0485 7.14609 10.0703 6.83081 9.8872 6.6125C9.70407 6.40633 9.38388 6.38202 9.17406 6.56394L6.63565 8.78346Z"
        fill="#FFF7D8"></path>
</svg>