<svg xmlns="http://www.w3.org/2000/svg" width="29" height="37" viewBox="0 0 29 37" fill="none">
    <path fill-rule="evenodd" clip-rule="evenodd"
        d="M28.7848 21.92C28.7848 21.561 28.5011 21.2917 28.1659 21.2917C24.3758 21.2917 4.67764 21.2917 0.913315 21.2917C0.552352 21.2917 0.268738 21.561 0.268738 21.92C0.268738 24.3883 0.268738 33.3192 0.268738 35.7875C0.268738 36.124 0.552352 36.4155 0.913315 36.4155C4.67764 36.4155 24.3758 36.4155 28.1659 36.4155C28.5011 36.4155 28.7848 36.124 28.7848 35.7875C28.7848 33.3192 28.7848 24.3883 28.7848 21.92Z"
        fill="#EE835C"></path>
    <path fill-rule="evenodd" clip-rule="evenodd"
        d="M26.9023 17.5988C26.9023 17.3352 26.6941 17.0934 26.4236 17.0934C22.1365 16.9616 18.4738 17.8622 15.3937 19.7071V34.488C18.7651 32.7969 22.1157 32.0501 26.4236 31.9183C26.6941 31.9183 26.9023 31.6987 26.9023 31.4132C26.9023 29.151 26.9023 19.839 26.9023 17.5988Z"
        fill="#FFE579"></path>
    <path fill-rule="evenodd" clip-rule="evenodd"
        d="M2.17032 17.5948C2.17032 17.3313 2.37852 17.0895 2.64906 17.0895C6.93614 16.9577 10.5989 17.8583 13.6789 19.7032V34.4841C11.0983 32.2 6.97769 31.5852 2.71143 31.8707C2.56575 31.8707 2.42007 31.8266 2.31601 31.7388C2.21196 31.629 2.17032 31.4971 2.17032 31.3653C2.17032 29.0153 2.17032 19.8131 2.17032 17.5948Z"
        fill="#FFE579"></path>
    <path fill-rule="evenodd" clip-rule="evenodd"
        d="M20.55 12.0143C20.55 12.0143 22.9299 18.3893 23.7945 20.7046C23.8473 20.8542 23.8184 21.024 23.7029 21.1462C23.5902 21.2599 23.4178 21.3065 23.2641 21.2556C21.9418 20.8179 19.4386 19.9893 18.4608 19.6656C18.2394 19.5923 18.1201 19.3547 18.1962 19.125C18.7114 17.5685 20.55 12.0143 20.55 12.0143Z"
        fill="#73E686"></path>
    <path fill-rule="evenodd" clip-rule="evenodd"
        d="M11.2844 9.09246C11.2844 9.09246 5.57072 12.7883 3.49547 14.1304C3.3638 14.219 3.2857 14.3724 3.30548 14.5394C3.32809 14.6979 3.43861 14.8382 3.59237 14.8891C4.91466 15.3268 7.41778 16.1554 8.39566 16.4791C8.61707 16.5524 8.85452 16.4328 8.93054 16.2032C9.44579 14.6466 11.2844 9.09246 11.2844 9.09246Z"
        fill="#73E686"></path>
    <path fill-rule="evenodd" clip-rule="evenodd"
        d="M22.0591 9.15946C22.0879 9.07256 22.0886 8.986 22.058 8.88907C21.7553 7.95 19.9664 2.40167 19.3912 0.600991C19.3503 0.47175 19.2448 0.369365 19.1128 0.325685C18.9837 0.273315 18.8414 0.303271 18.7252 0.380511C17.1669 1.4653 12.3394 4.83311 11.5205 5.40091C11.4412 5.46144 11.3864 5.53012 11.3548 5.62571C10.9463 6.85969 7.89133 16.0885 7.20382 18.1654C7.12902 18.3913 7.25112 18.6438 7.47921 18.7194C9.18393 19.2837 15.6496 21.424 17.3525 21.9876C17.585 22.0646 17.8305 21.9338 17.9053 21.7078C18.5928 19.6309 21.6506 10.3934 22.0591 9.15946Z"
        fill="#986EF1"></path>
    <path
        d="M15.336 11.41C16.5949 11.8267 17.9533 11.1439 18.3701 9.88497C18.7868 8.62603 18.1041 7.26768 16.8451 6.85094C15.5862 6.4342 14.2278 7.11688 13.8111 8.37582C13.3943 9.63476 14.077 10.9932 15.336 11.41Z"
        fill="white"></path>
    <path fill-rule="evenodd" clip-rule="evenodd"
        d="M9.89409 22.959C9.97861 22.7322 9.9469 22.4858 9.80483 22.2877C9.29325 21.5238 9.13542 20.5467 9.44514 19.6111C9.98573 17.978 11.7519 17.0903 13.3849 17.6309C15.0095 18.1686 15.8971 19.9348 15.3565 21.5679C15.0468 22.5035 14.3371 23.1935 13.4764 23.5126C13.2556 23.581 13.0804 23.7684 13.0072 23.9895C12.9902 24.0122 12.9818 24.0378 12.9761 24.0548C12.6917 24.9139 11.7634 25.3804 10.9128 25.0989C10.0538 24.8145 9.58717 23.8862 9.87154 23.0271C9.87717 23.0101 9.88564 22.9845 9.89409 22.959Z"
        fill="white"></path>
    <path
        d="M9.87284 27.1612C10.3685 27.3253 10.9034 27.0564 11.0675 26.5607C11.2315 26.065 10.9627 25.5302 10.467 25.3661C9.97135 25.202 9.43651 25.4708 9.27242 25.9665C9.10834 26.4622 9.37715 26.9971 9.87284 27.1612Z"
        fill="white"></path>
</svg>