<svg xmlns="http://www.w3.org/2000/svg" width="29" height="34" viewBox="0 0 29 34" fill="none">
  <path fill-rule="evenodd" clip-rule="evenodd"
    d="M7.43665 26.577C7.43665 26.4034 7.35997 26.2414 7.24477 26.1257C7.12958 25.9984 6.96305 25.9405 6.79665 25.9405C5.38867 25.9405 2.04798 25.9405 0.639994 25.9405C0.473595 25.9405 0.307228 25.9984 0.192029 26.1257C0.0768305 26.2414 0 26.4034 0 26.577C0 28.035 0 31.6338 0 33.0918C0 33.2654 0.0768305 33.4274 0.192029 33.5431C0.307228 33.6588 0.473595 33.7283 0.639994 33.7283C2.04798 33.7283 5.38867 33.7283 6.79665 33.7283C6.96305 33.7283 7.12958 33.6588 7.24477 33.5431C7.35997 33.4274 7.43665 33.2654 7.43665 33.0918C7.43665 31.6338 7.43665 28.035 7.43665 26.577Z"
    fill="#32B777"></path>
  <path fill-rule="evenodd" clip-rule="evenodd"
    d="M18.4216 23.8297C18.4216 23.4596 18.1146 23.1699 17.7541 23.1699H11.3328C10.9723 23.1699 10.6652 23.4596 10.6652 23.8297C10.6652 25.7768 10.6652 31.393 10.6652 33.3402C10.6652 33.7103 10.9723 34 11.3328 34H17.7541C18.1146 34 18.4216 33.7103 18.4216 33.3402C18.4216 31.393 18.4216 25.7768 18.4216 23.8297Z"
    fill="#32B777"></path>
  <path fill-rule="evenodd" clip-rule="evenodd"
    d="M28.672 17.7979C28.672 17.6275 28.5935 17.4816 28.4756 17.3355C28.3577 17.2137 28.1873 17.1649 28.0169 17.1649C26.5757 17.1649 23.1563 17.1649 21.7151 17.1649C21.5448 17.1649 21.3745 17.2137 21.2566 17.3355C21.1387 17.4816 21.06 17.6275 21.06 17.7979C21.06 20.4517 21.06 30.2637 21.06 32.8932C21.06 33.0879 21.1387 33.2339 21.2566 33.38C21.3745 33.4774 21.5448 33.5506 21.7151 33.5506C23.1563 33.5506 26.5757 33.5506 28.0169 33.5506C28.1873 33.5506 28.3577 33.4774 28.4756 33.38C28.5935 33.2339 28.672 33.0879 28.672 32.8932C28.672 30.2637 28.672 20.4517 28.672 17.7979Z"
    fill="#32B777"></path>
  <path fill-rule="evenodd" clip-rule="evenodd"
    d="M14.4294 0C18.4469 0 21.7022 3.27935 21.7022 7.33324C21.7022 11.3871 14.4294 21.3706 14.4294 21.3706C14.4294 21.3706 7.15653 11.3871 7.15653 7.33324C7.15653 3.27935 10.4118 0 14.4294 0ZM14.4294 2.2508C17.0674 2.2508 19.2093 4.39265 19.2093 7.03071C19.2093 9.66877 17.0674 11.8108 14.4294 11.8108C11.7913 11.8108 9.63733 9.66877 9.63733 7.03071C9.63733 4.39265 11.7913 2.2508 14.4294 2.2508Z"
    fill="#EF4666"></path>
</svg>
