<?xml version="1.0" encoding="UTF-8"?>
<!DOCTYPE svg PUBLIC "-//W3C//DTD SVG 1.1//EN" "http://www.w3.org/Graphics/SVG/1.1/DTD/svg11.dtd">
<!-- Creator: CorelDRAW 2021 (64-Bit) -->
<svg xmlns="http://www.w3.org/2000/svg" xml:space="preserve" width="4.39644in" height="4.5673in" version="1.1" style="shape-rendering:geometricPrecision; text-rendering:geometricPrecision; image-rendering:optimizeQuality; fill-rule:evenodd; clip-rule:evenodd"
viewBox="0 0 1380.81 1434.47"
 xmlns:xlink="http://www.w3.org/1999/xlink"
 xmlns:xodm="http://www.corel.com/coreldraw/odm/2003">
 <defs>
  <style type="text/css">
   <![CDATA[
    .fil0 {fill:#1A52F3}
    .fil1 {fill:#46CB5C}
   ]]>
  </style>
 </defs>
 <g id="Layer_x0020_1">
  <metadata id="CorelCorpID_0Corel-Layer"/>
  <g id="_1846660082880">
   <path class="fil0" d="M474.45 1205.43l435.18 0 -24.31 -54.22c-8.25,-19.82 -15.68,-34.79 -23.39,-55.14 -52.56,-138.63 -79.91,-252.24 -79.91,-414.17l-179.96 0c0,107.46 -13.6,201.23 -37.85,286.08 -17,59.49 -48.92,152.07 -76.63,208.04 -4.87,9.84 -10.39,17.6 -13.14,29.4z"/>
   <path class="fil0" d="M480.99 230.35c0.34,15.43 15.24,47.63 20.84,64.24 7.66,22.73 16.1,41.85 23.77,64.58l47.01 126.4 229.04 0c2.07,-8.87 7.29,-21.14 11.21,-31.33l35.09 -95.79c5.29,-14.21 44.19,-114.58 45.31,-128.1 -10.14,5.36 -17,8.66 -27.56,14.98 -10.97,6.57 -19,9.26 -29.92,15.9 -32.65,19.85 -32.73,7.48 -50.99,-17.3l-57.1 -80.32c-5.87,-8.88 -15.31,-19.38 -17.66,-28.15 -59.42,0 -41.81,-2.91 -80.41,50.47l-57.84 79.86c-17.05,15.34 -51.33,-14.55 -90.79,-35.44z"/>
   <path class="fil1" d="M58.9 1244.69l294.48 0c1.99,-23.86 11.66,-34.36 32.72,-39.26 -3.01,-12.91 -28.67,-78.8 -41.25,-128.9 -14.74,-58.71 -20.92,-102.36 -20.92,-168.86l-183.24 0c0,188.42 -71.63,293.36 -81.8,337.02z"/>
   <path class="fil1" d="M994.71 1205.43c21.01,1.75 32.72,15.96 32.72,39.26l297.76 0c-59.7,-112.82 -74.77,-213.16 -85.07,-337.02l-179.96 0c0,85.83 -28.73,221.25 -65.44,297.76z"/>
   <polygon class="fil0" points="323.93,1434.47 1060.15,1434.47 1060.15,1342.85 323.93,1342.85 "/>
   <path class="fil1" d="M98.16 642.63c0,31.21 -0.54,39.43 13.07,68.73 7.35,15.83 16.53,24.75 28.59,36.85 103.27,103.55 273.35,-20.5 215.82,-147.1 -65.31,-143.7 -257.48,-81.98 -257.48,41.53z"/>
   <path class="fil1" d="M1017.61 642.63c0,51.88 5.46,68.97 41.7,105.54 51.64,52.12 135.52,49.62 186.66,-1.52 88.58,-88.58 12.94,-228.36 -84.39,-228.36l-19.63 0c-62.77,0 -124.34,61.57 -124.34,124.34z"/>
   <polygon class="fil0" points="386.1,1310.13 994.71,1310.13 994.71,1238.15 386.1,1238.15 "/>
   <path class="fil1" d="M-0 1355.94c0,7.54 2.28,9.82 9.82,9.82l281.4 0c0,-50.65 3.68,-55.63 62.17,-55.63l0 -32.72 -353.38 0 0 78.53z"/>
   <path class="fil1" d="M1027.43 1310.13l26.18 0c26.83,0 39.27,16.14 39.27,42.54l0 13.09 287.94 0 0 -88.35 -353.38 0 0 32.72z"/>
   <path class="fil0" d="M549.71 567.38l284.67 0c34.01,0 36.14,-49.08 3.27,-49.08l-291.21 0c-33.66,0 -31.82,49.08 3.27,49.08z"/>
   <path class="fil1" d="M98.16 845.5c0,20.09 15.57,29.45 35.99,29.45 34.35,0 198.61,5.84 219.38,-6.4 24.97,-14.71 8.31,-49.23 -9.97,-49.23l-219.23 0c-15.83,0 -26.18,10.35 -26.18,26.18z"/>
   <path class="fil1" d="M1017.61 845.5c0,19.3 13.28,29.45 35.99,29.45l199.6 0c45.65,0 35.57,-55.63 9.82,-55.63l-219.23 0c-15.83,0 -26.18,10.35 -26.18,26.18z"/>
   <polygon class="fil0" points="569.34,649.18 814.74,649.18 814.74,600.1 569.34,600.1 "/>
   <path class="fil0" d="M634.78 50.39c0,75.97 104.71,67.52 104.71,3.27 0,-70.7 -104.71,-71.28 -104.71,-3.27z"/>
  </g>
 </g>
</svg>
