<svg xmlns="http://www.w3.org/2000/svg" width="40" height="40" viewBox="0 0 40 40" fill="none">
    <path
        d="M6.25781 4.07813C6.25781 2.42127 7.60096 1.07812 9.25781 1.07812H30.568C32.2248 1.07812 33.568 2.42127 33.568 4.07813V35.922C33.568 37.5789 32.2248 38.922 30.568 38.922H9.25781C7.60096 38.922 6.25781 37.5789 6.25781 35.922V4.07813Z"
        fill="#32B777"></path>
    <path d="M9.73438 10.0112H30.16M9.73471 13.4727H30.16" stroke="#FFD529" stroke-linecap="round"></path>
    <path d="M9.73438 17.1636H30.16M9.73471 20.625H23.7356" stroke="#FFD529" stroke-linecap="round"></path>
    <path
        d="M34.7102 15.4291C35.0385 14.985 35.6647 14.8912 36.1088 15.2195L37.9343 16.5691C38.3783 16.8975 38.4722 17.5237 38.1438 17.9677L26.7268 33.4099L23.9587 34.2615C23.6384 34.3601 23.3138 34.1219 23.3116 33.7868L23.2932 30.8712L34.7102 15.4291Z"
        fill="#FFD529"></path>
</svg>