<svg xmlns="http://www.w3.org/2000/svg" xmlns:xlink="http://www.w3.org/1999/xlink"
    xmlns:xodm="http://www.corel.com/coreldraw/odm/2003" xml:space="preserve" width="0.835626in"
    height="0.745488in"
    style="shape-rendering:geometricPrecision; text-rendering:geometricPrecision; image-rendering:optimizeQuality; fill-rule:evenodd; clip-rule:evenodd"
    viewBox="0 0 54.85 48.94"> <defs><style type="text/css">.str0 {stroke:#1A52F3;stroke-width:1.6;stroke-miterlimit:2.61313} .str1 {stroke:#EA5757;stroke-width:1.6;stroke-miterlimit:2.61313} .fil0 {fill:none}</style></defs> <g id="Layer_x0020_1"> <metadata id="CorelCorpID_0Corel-Layer"></metadata> <g id="_2642175732432"> <g> <path class="fil0 str0" d="M5.82 42.79c2.03,-0.35 2.48,2.63 0.54,2.96 -2.11,0.35 -2.55,-2.61 -0.54,-2.96zm5.23 3.59c1.44,-0.03 3.07,0.13 4.54,0.18l13.45 0.58c3.16,0.14 5.47,0.41 8.05,-0.97 2.01,-1.07 3.94,-2.29 5.91,-3.43l8.84 -5.17c0.95,-0.55 2.18,-1.09 2.22,-2.48 0.04,-1.32 -1.07,-2.39 -2.47,-2.16 -1.92,0.31 -7.53,3.54 -9.29,4.72 -0.91,0.62 -1.86,1.27 -3.07,1.67 -1.08,0.36 -2.71,0.6 -3.9,0.76 -1.57,0.21 -9.36,0.95 -10.94,0.75 -0.76,-0.1 -0.79,-1.05 -0.11,-1.24 0.93,-0.27 11.55,-0.85 12.65,-1.36 1.75,-0.8 2.09,-3.22 0.32,-4.37 -0.67,-0.44 -1.11,-0.35 -1.98,-0.36 -3.08,-0.03 -6.15,-0.07 -9.21,-0.1 -3.52,-0.03 -4.54,-1.05 -8.14,-1.23 -1.47,-0.07 -2.94,0.04 -4.31,0.37 -1.56,0.37 -3.01,1.09 -3.5,1.2 -0.45,-0.46 -0.6,-0.79 -1.39,-1.03 -0.63,-0.19 -1.43,-0.07 -2.12,-0.02 -2.25,0.16 -4.59,-0.1 -5.5,1.63 -0.37,0.7 -0.31,1.21 -0.26,2.07 0.09,1.47 0.19,2.96 0.3,4.45 0.11,1.45 0.22,2.94 0.31,4.42 0.24,3.81 3.53,2.84 6.38,2.66 0.72,-0.05 1.47,-0.05 2.05,-0.34 0.75,-0.38 0.68,-0.63 1.16,-1.17z"></path> </g> <g> <path class="fil0 str1" d="M28.86 3.89c6.71,-0.46 12.11,4.9 12.49,11.04 0.42,6.71 -4.85,12.19 -11.09,12.53 -6.76,0.37 -12.1,-4.79 -12.52,-11.06 -0.43,-6.38 4.47,-12.05 11.12,-12.51zm-0.56 -3.02c-8.43,0.86 -14.28,7.92 -13.58,16.13 0.66,7.68 7.49,14.21 16.08,13.48 7.7,-0.66 14.33,-7.42 13.58,-16.03 -0.4,-4.6 -2.61,-7.77 -4.94,-9.9 -2.37,-2.16 -6.55,-4.15 -11.14,-3.68z"></path> </g> <g> <path class="fil0 str1" d="M25.46 19.21c-0.21,0.37 -0.38,0.93 -0.51,1.41 -0.19,0.72 -0.28,0.99 0.27,1.36 0.9,0.6 2.45,0.64 2.98,0.89 0.2,0.86 -0.35,2.03 0.73,2.03 0.53,0 1.21,0.06 1.61,-0.14 0.15,-0.52 0.01,-1.16 0.09,-1.74 0.08,-0.52 0.52,-0.51 1.05,-0.73 0.83,-0.36 1.54,-0.98 1.96,-1.64 1.18,-1.86 0.5,-4.1 -0.82,-5.21 -1.4,-1.18 -4.13,-1.65 -4.61,-2.67 -0.45,-0.96 0.46,-1.63 1.77,-1.62 3.2,0.02 2.73,2.11 3.62,-1.21 0.19,-0.69 -0.36,-0.87 -1.24,-1.12 -0.34,-0.09 -0.65,-0.15 -0.99,-0.21 -0.45,-0.09 -0.63,-0.12 -0.65,-0.62 -0.07,-1.39 0.34,-1.45 -1.53,-1.45 -0.85,0 -0.73,0.3 -0.72,1.11 0,0.9 0.11,0.95 -0.65,1.23 -1.08,0.4 -1.7,0.83 -2.22,1.59 -1.08,1.56 -0.89,3.93 1.07,5.25 1.71,1.14 4.7,1.4 4.32,3.21 -0.32,1.53 -2.77,1.24 -4.11,0.78 -0.45,-0.15 -0.99,-0.55 -1.43,-0.5z"></path> </g> <g> <path class="fil0 str0" d="M40.89 36.3c0.56,-0.22 1.51,-0.9 2.09,-1.24 1.11,-0.66 4.25,-2.39 5.42,-2.93 0.26,-0.12 0.91,-0.31 1.09,-0.52 -0.92,-0.44 -1.39,-0.54 -2.49,-0.14 -0.76,0.28 -1.44,0.59 -2.16,0.91 -1.41,0.62 -2.86,1.35 -4.15,2.06 0.03,0.57 0.19,0.39 0.19,1.86z"></path> </g> <g> <path class="fil0 str0" d="M38.64 31.95c0.5,0.38 0.71,0.59 1.11,1.01 0.27,-0.08 0.96,-0.53 1.3,-0.71 1.02,-0.54 3.93,-1.54 4.3,-1.83 -0.9,-0.92 -2.55,-0.12 -3.5,0.23 -0.65,0.23 -2.91,0.97 -3.2,1.3z"></path> </g> </g> </g> </svg>