<svg xmlns="http://www.w3.org/2000/svg" xmlns:xlink="http://www.w3.org/1999/xlink" width="88"
    height="64.68" viewBox="0 0 88 64.68">
    <defs>
        <clipPath id="b">
            <rect width="88" height="64.68"></rect>
        </clipPath>
    </defs>
    <g id="a" clip-path="url(#b)">
        <g transform="translate(21.583 -0.832)">
            <path d="M16.758,66.39H15.281V58.168h18.46V66.39H31.757a8.2,8.2,0,0,0-15,0Z"
                transform="translate(-1.749 -6.754)" fill="#7e0c2e" fill-rule="evenodd"></path>
            <path d="M21.868,47.821h-.65V44.2h8.122v3.618h-.873a3.61,3.61,0,0,0-6.6,0Z"
                transform="translate(-2.448 -5.109)" fill="#7e0c2e" fill-rule="evenodd"></path>
            <path
                d="M47.085,73.876a2.841,2.841,0,0,0-2.265-2.7,3.338,3.338,0,0,0-4.585-1.631v4.333Z"
                transform="translate(-4.688 -8.046)" fill="#46cb5c" fill-rule="evenodd"></path>
            <path
                d="M32.676,74.221a1.293,1.293,0,0,1,1.031-1.23,1.519,1.519,0,0,1,2.087-.742v1.972Z"
                transform="translate(-3.798 -8.391)" fill="#46cb5c" fill-rule="evenodd"></path>
            <path d="M19.878,74.221s-.033-1.042-1.52-1.23a2.626,2.626,0,0,0-3.077-.742v1.972Z"
                transform="translate(-1.749 -8.391)" fill="#46cb5c" fill-rule="evenodd"></path>
            <path
                d="M25.806,7.9H27.83A112.136,112.136,0,0,0,42.2,66H34.74C26.821,41.859,25.507,31.9,25.806,7.9Z"
                transform="translate(-2.984 -0.832)" fill="#f41b83" fill-rule="evenodd"></path>
            <path d="M.437,73.454s.083-3.822,3.781-4.511c0,0,2.441-5.241,7.655-2.723v7.234Z"
                transform="translate(0 -7.622)" fill="#46cb5c" fill-rule="evenodd"></path>
            <path
                d="M23.515,7.9H21.491A112.136,112.136,0,0,1,7.117,66h7.464C22.5,41.859,23.814,31.9,23.515,7.9Z"
                transform="translate(-0.787 -0.832)" fill="#f41b83" fill-rule="evenodd"></path>
            <path d="M35.388,54.793H13.4V60.26h21.99Z" transform="translate(-1.527 -6.356)"
                fill="#7e0c2e"></path>
            <path d="M30.881,41.074h-11.9V42.6h11.9Z" transform="translate(-2.185 -4.74)"
                fill="#7e0c2e"></path>
            <path d="M29.953,42.8H19.613v1.455h10.34Z" transform="translate(-2.259 -4.943)"
                fill="#f41b83"></path>
            <path d="M35.368,59.23H13.211v1.6H35.368Z" transform="translate(-1.505 -6.879)"
                fill="#f41b83"></path>
            <path d="M25.93.832h-.54V3.621h.54Z" transform="translate(-2.939)" fill="#f41b83"></path>
            <path d="M27.59,6.57h-4.2V7.743h4.2Z" transform="translate(-2.704 -0.676)"
                fill="#7e0c2e"></path>
            <path d="M27.248,5.223H23.684v1.19h3.565Z" transform="translate(-2.738 -0.517)"
                fill="#f41b83"></path>
            <path d="M26.627,4H24.48V5.079h2.146Z" transform="translate(-2.832 -0.373)"
                fill="#7e0c2e"></path>
            <path d="M15.149,73.25H6.484v1.113h8.665Z" transform="translate(-0.712 -8.531)"
                fill="#7e0c2e"></path>
            <path d="M43.985,73.25H35.32v1.113h8.665Z" transform="translate(-4.109 -8.531)"
                fill="#7e0c2e"></path>
        </g>
    </g>
</svg>