<svg xmlns="http://www.w3.org/2000/svg" xmlns:xlink="http://www.w3.org/1999/xlink"
    xmlns:xodm="http://www.corel.com/coreldraw/odm/2003" xml:space="preserve" width="1.40405in"
    height="1.73595in"
    style="shape-rendering:geometricPrecision; text-rendering:geometricPrecision; image-rendering:optimizeQuality; fill-rule:evenodd; clip-rule:evenodd"
    viewBox="0 0 109.22 135.04"> <defs><style type="text/css">.fil3 {fill:#FDC573;fill-rule:nonzero} .fil1 {fill:#46CB5C;fill-rule:nonzero} .fil0 {fill:#A85700;fill-rule:nonzero} .fil2 {fill:#FF9800;fill-rule:nonzero} .fil4 {fill:#FFC163;fill-rule:nonzero}</style></defs> <g id="Layer_x0020_1"> <metadata id="CorelCorpID_0Corel-Layer"></metadata> <g id="_1834784271568"> <polygon class="fil0" points="-0,135.04 109.22,135.04 109.22,128.11 -0,128.11 "></polygon> <path class="fil1" d="M62.41 24.09c0,2.58 -3.18,4.68 -7.09,4.68 -3.92,0 -7.09,-2.09 -7.09,-4.68 0,-2.58 3.17,-4.68 7.09,-4.68 3.92,0 7.09,2.09 7.09,4.68z"></path> <path class="fil1" d="M59.3 16c0,3.4 -1.78,6.16 -3.98,6.16 -2.2,0 -3.98,-2.76 -3.98,-6.16 0,-3.4 1.78,-6.16 3.98,-6.16 2.2,0 3.98,2.76 3.98,6.16z"></path> <polygon class="fil1" points="54.97,13.58 55.67,13.58 55.67,7.18 54.97,7.18 "></polygon> <path class="fil1" d="M55.32 7.19c-0.8,0 -1.45,-0.65 -1.45,-1.45 0,-0.8 0.65,-1.45 1.45,-1.45 0.8,0 1.45,0.65 1.45,1.45 0,0.8 -0.65,1.45 -1.45,1.45zm0 -3.49c-1.13,0 -2.05,0.92 -2.05,2.04 0,1.13 0.92,2.05 2.05,2.05 1.13,0 2.04,-0.92 2.04,-2.05 0,-1.13 -0.92,-2.04 -2.04,-2.04z"></path> <polygon class="fil1" points="54.97,7.31 55.67,7.31 55.67,4.11 54.97,4.11 "></polygon> <polygon class="fil1" points="53.84,6.18 56.81,6.18 56.81,5.48 53.84,5.48 "></polygon> <path class="fil1" d="M56.37 1.96c-0.05,0.21 -0.61,0.4 -0.7,0.3 -0.07,-0.09 -0.02,-0.59 -0.02,-0.59 -0.05,-0.12 -0.21,-0.43 -0.33,-0.46 -0.18,-0.04 -0.65,0.38 -0.65,0.38l0.3 0.12 0.01 0c0.02,0.12 0.06,0.46 -0.01,0.55 -0.09,0.11 -0.65,-0.09 -0.7,-0.3 -0.05,-0.21 -1.88,-2.02 -2.37,-1.95 0,0 -0.03,1.83 1.76,2.65 0,0 0.19,0.82 1.24,0.87l-0.02 0.52 0.87 0 -0.02 -0.52c1.05,-0.05 1.24,-0.87 1.24,-0.87 1.8,-0.82 1.76,-2.65 1.76,-2.65 -0.49,-0.07 -2.32,1.74 -2.37,1.95z"></path> <path class="fil1" d="M44.33 28.42c0.23,-0.45 2.67,-5.46 -2.27,-5.57 -0.22,-0 -0.43,-0.1 -0.56,-0.28 -0.44,-0.6 -1.45,-2.08 -1.9,-3.91 -0.02,-0.07 -0.04,-0.13 -0.08,-0.19 -0.3,-0.48 -1.74,-2.56 -2.97,-0.51l0.02 -0.05 -0.75 -0.4 0.42 1.04 0.26 0.52c0,0 -0.52,0.31 -0.09,0.88 0.05,0.07 0.1,0.15 0.13,0.23 0.09,0.31 0.28,1.12 -0.04,1.67 0,0 0.52,1.16 1.28,0l0.64 -1.46c0,0 0.41,2.33 0,2.97 -0.39,0.61 -1.27,1.5 -0.6,3.38 0.05,0.15 0.06,0.31 0.01,0.45 -0.11,0.35 -0.35,0.96 -0.68,1.04 -0.46,0.12 0.28,4 0.28,4 0,0 0.07,0.99 0.82,0.7 0.75,-0.29 0.35,-1.33 0.35,-1.33 0,0 -0.63,-0.31 -0.7,-2.17 -0.01,-0.2 0.08,-0.4 0.23,-0.54l1.17 -1.05c0.14,-0.12 0.32,-0.19 0.5,-0.18l0.4 0.02c0.32,0.02 0.59,0.25 0.65,0.56 0.14,0.67 0.33,1.8 0.17,2.31 -0.23,0.75 0.12,3.31 -0.29,3.94 -0.41,0.64 0.81,0 0.81,0l0.52 -4.38c0,-0.02 0,-0.03 0,-0.05 0.01,-0.23 0.09,-2 0.58,-1.89 0.44,0.1 0.83,1.75 0.94,2.26 0.02,0.1 0.02,0.2 -0,0.29 0,0 -1.05,2.08 -0.53,2.42 0.36,0.24 0.68,-0.49 1.32,-1.12 0.16,-0.16 0.22,-0.38 0.19,-0.6 -0.13,-0.78 -0.41,-2.66 -0.23,-3.02z"></path> <path class="fil1" d="M49.84 22.94c0,0 -0.26,-2.11 -0.13,-2.54 0.13,-0.42 0.48,-1.38 0.17,-2.03 -0.3,-0.65 -0.7,-1.13 -1.17,-1.13 0,0 -0.61,0.3 -0.95,0.84l0.02 -0.04 -0.62 -0.52 0.4 1.04 0 -0.01c-0.02,0.11 -0.03,0.22 -0.02,0.34 0.09,1.04 0.09,3.18 -0.22,3.7 -0.3,0.52 -1.7,2.44 -0.78,4.44 0.91,2 0.52,3 0.52,3 0,0 -0.3,0.96 0.22,1.17 0.52,0.22 -0.44,2.96 0.19,3.22 0.63,0.26 1.24,0 1.24,0 0,0 0.52,-0.48 0.43,-0.91 -0.09,-0.43 -0.61,-2.44 -0.52,-2.74 0.09,-0.3 -0.17,-2.91 0.17,-2.91 0.35,0 0.57,-0.44 0.35,0 -0.22,0.44 0.09,1.96 0.09,2.13 0,0.17 -0.52,1.74 0.78,2.78 1.31,1.04 1,-0.17 0.91,-0.26 -0.09,-0.09 -0.91,-1.22 -0.83,-2.09 0.09,-0.87 0.92,-1.91 0.92,-1.91l0.47 0.13c0,0 -0.04,0.87 0,1.35 0.04,0.48 -0.7,0.78 -0.26,1.31 0.44,0.52 0.4,2.09 0.26,2.74 -0.13,0.65 0.87,0.51 0.87,0.51 0,0 0.17,-0.94 0,-1.25 -0.17,-0.3 0.2,-1.78 0.08,-2.39 -0.12,-0.61 0.04,-1.04 0.02,-2.09 -0.02,-1.04 0.38,-6.35 -2.63,-5.87z"></path> <path class="fil1" d="M49.71 18.04l0.18 0.33 0.58 -0.85c-0.95,0.35 -0.75,0.52 -0.75,0.52z"></path> <path class="fil1" d="M66.5 28.42c-0.23,-0.45 -2.67,-5.46 2.27,-5.57 0.22,-0 0.43,-0.1 0.56,-0.28 0.44,-0.6 1.45,-2.08 1.9,-3.91 0.02,-0.07 0.04,-0.13 0.08,-0.19 0.3,-0.48 1.74,-2.56 2.97,-0.51l-0.02 -0.05 0.75 -0.4 -0.42 1.04 -0.26 0.52c0,0 0.52,0.31 0.08,0.88 -0.05,0.07 -0.1,0.15 -0.13,0.23 -0.09,0.31 -0.28,1.12 0.04,1.67 0,0 -0.52,1.16 -1.28,0l-0.64 -1.46c0,0 -0.41,2.33 0,2.97 0.39,0.61 1.27,1.5 0.6,3.38 -0.05,0.15 -0.06,0.31 -0.01,0.45 0.11,0.35 0.35,0.96 0.68,1.04 0.46,0.12 -0.28,4 -0.28,4 0,0 -0.07,0.99 -0.82,0.7 -0.75,-0.29 -0.35,-1.33 -0.35,-1.33 0,0 0.63,-0.31 0.7,-2.17 0.01,-0.2 -0.08,-0.4 -0.23,-0.54l-1.17 -1.05c-0.14,-0.12 -0.32,-0.19 -0.5,-0.18l-0.4 0.02c-0.32,0.02 -0.59,0.25 -0.65,0.56 -0.14,0.67 -0.33,1.8 -0.17,2.31 0.23,0.75 -0.12,3.31 0.29,3.94 0.41,0.64 -0.81,0 -0.81,0l-0.52 -4.38c-0,-0.02 -0,-0.03 -0,-0.05 -0.01,-0.23 -0.09,-2 -0.58,-1.89 -0.44,0.1 -0.83,1.75 -0.94,2.26 -0.02,0.1 -0.02,0.2 0,0.29 0,0 1.05,2.08 0.53,2.42 -0.36,0.24 -0.68,-0.49 -1.32,-1.12 -0.16,-0.16 -0.22,-0.38 -0.19,-0.6 0.13,-0.78 0.41,-2.66 0.23,-3.02z"></path> <path class="fil1" d="M60.99 22.94c0,0 0.26,-2.11 0.13,-2.54 -0.13,-0.42 -0.48,-1.38 -0.17,-2.03 0.3,-0.65 0.7,-1.13 1.17,-1.13 0,0 0.61,0.3 0.95,0.84l-0.02 -0.04 0.62 -0.52 -0.4 1.04 -0 -0.01c0.02,0.11 0.03,0.22 0.02,0.34 -0.09,1.04 -0.09,3.18 0.22,3.7 0.3,0.52 1.7,2.44 0.78,4.44 -0.91,2 -0.52,3 -0.52,3 0,0 0.31,0.96 -0.22,1.17 -0.52,0.22 0.44,2.96 -0.19,3.22 -0.63,0.26 -1.24,0 -1.24,0 0,0 -0.52,-0.48 -0.43,-0.91 0.09,-0.43 0.61,-2.44 0.52,-2.74 -0.09,-0.3 0.17,-2.91 -0.17,-2.91 -0.35,0 -0.57,-0.44 -0.35,0 0.22,0.44 -0.09,1.96 -0.09,2.13 0,0.17 0.52,1.74 -0.78,2.78 -1.31,1.04 -1,-0.17 -0.91,-0.26 0.09,-0.09 0.91,-1.22 0.83,-2.09 -0.09,-0.87 -0.92,-1.91 -0.92,-1.91l-0.47 0.13c0,0 0.04,0.87 0,1.35 -0.04,0.48 0.7,0.78 0.26,1.31 -0.44,0.52 -0.4,2.09 -0.26,2.74 0.13,0.65 -0.87,0.51 -0.87,0.51 0,0 -0.17,-0.94 0,-1.25 0.17,-0.3 -0.2,-1.78 -0.08,-2.39 0.12,-0.61 -0.04,-1.04 -0.02,-2.09 0.02,-1.04 -0.38,-6.35 2.62,-5.87z"></path> <path class="fil1" d="M61.12 18.04l-0.18 0.33 -0.58 -0.85c0.95,0.35 0.75,0.52 0.75,0.52z"></path> <polygon class="fil0" points="7.86,128.15 17.53,128.15 17.53,63.83 7.86,63.83 "></polygon> <polygon class="fil0" points="90.55,128.15 100.23,128.15 100.23,63.83 90.55,63.83 "></polygon> <polygon class="fil2" points="5.73,62.34 103.95,62.34 103.95,55.44 5.73,55.44 "></polygon> <polygon class="fil3" points="10.55,44.29 99.13,44.29 99.13,37.38 10.55,37.38 "></polygon> <polygon class="fil3" points="5.73,55.44 103.95,55.44 103.95,51.98 5.73,51.98 "></polygon> <polygon class="fil0" points="5.73,51.98 103.95,51.98 103.95,50.26 5.73,50.26 "></polygon> <polygon class="fil2" points="5.73,46.01 103.95,46.01 103.95,44.29 5.73,44.29 "></polygon> <polygon class="fil3" points="5.73,37.38 103.95,37.38 103.95,35.66 5.73,35.66 "></polygon> <polygon class="fil3" points="40.18,33.8 69.5,33.8 69.5,32.07 40.18,32.07 "></polygon> <polygon class="fil3" points="103.95,50.26 5.73,50.26 2.76,46.01 106.92,46.01 "></polygon> <polygon class="fil0" points="86.35,69.24 23.34,69.24 9.69,62.34 99.99,62.34 "></polygon> <polygon class="fil2" points="38.27,46.01 71.42,46.01 71.42,33.64 38.27,33.64 "></polygon> <polygon class="fil0" points="41.23,43.04 68.45,43.04 68.45,36.61 41.23,36.61 "></polygon> <polygon class="fil3" points="3.13,64.07 106.55,64.07 106.55,62.34 3.13,62.34 "></polygon> <polygon class="fil4" points="6.18,128.15 13.36,128.15 13.36,64.07 6.18,64.07 "></polygon> <path class="fil3" d="M14.25 67.66l-8.97 0c-0.27,0 -0.48,-0.22 -0.48,-0.48l0 -2.63c0,-0.27 0.22,-0.48 0.48,-0.48l8.97 0c0.27,0 0.48,0.22 0.48,0.48l0 2.63c0,0.27 -0.22,0.48 -0.48,0.48z"></path> <polygon class="fil4" points="24.02,128.15 31.21,128.15 31.21,64.07 24.02,64.07 "></polygon> <path class="fil3" d="M32.1 67.66l-8.97 0c-0.27,0 -0.48,-0.22 -0.48,-0.48l0 -2.63c0,-0.27 0.22,-0.48 0.48,-0.48l8.97 0c0.27,0 0.48,0.22 0.48,0.48l0 2.63c0,0.27 -0.22,0.48 -0.48,0.48z"></path> <polygon class="fil4" points="41.86,128.15 49.05,128.15 49.05,64.07 41.86,64.07 "></polygon> <path class="fil3" d="M49.94 67.66l-8.97 0c-0.27,0 -0.48,-0.22 -0.48,-0.48l0 -2.63c0,-0.27 0.22,-0.48 0.48,-0.48l8.97 0c0.27,0 0.48,0.22 0.48,0.48l0 2.63c0,0.27 -0.22,0.48 -0.48,0.48z"></path> <polygon class="fil4" points="59.71,128.15 66.89,128.15 66.89,64.07 59.71,64.07 "></polygon> <path class="fil3" d="M67.78 67.66l-8.97 0c-0.27,0 -0.48,-0.22 -0.48,-0.48l0 -2.63c0,-0.27 0.22,-0.48 0.48,-0.48l8.97 0c0.27,0 0.48,0.22 0.48,0.48l0 2.63c0,0.27 -0.22,0.48 -0.48,0.48z"></path> <polygon class="fil3" points="77.55,128.15 84.74,128.15 84.74,64.07 77.55,64.07 "></polygon> <path class="fil3" d="M85.63 67.66l-8.97 0c-0.27,0 -0.48,-0.22 -0.48,-0.48l0 -2.63c0,-0.27 0.22,-0.48 0.48,-0.48l8.97 0c0.27,0 0.48,0.22 0.48,0.48l0 2.63c0,0.27 -0.22,0.48 -0.48,0.48z"></path> <polygon class="fil3" points="95.39,128.15 102.58,128.15 102.58,64.07 95.39,64.07 "></polygon> <path class="fil3" d="M103.47 67.66l-8.97 0c-0.27,0 -0.48,-0.22 -0.48,-0.48l0 -2.63c0,-0.27 0.22,-0.48 0.48,-0.48l8.97 0c0.27,0 0.48,0.22 0.48,0.48l0 2.63c0,0.27 -0.22,0.48 -0.48,0.48z"></path> </g> </g> </svg>