<svg xmlns="http://www.w3.org/2000/svg" xmlns:xlink="http://www.w3.org/1999/xlink" width="88"
    height="64.68" viewBox="0 0 88 64.68">
    <defs>
        <clipPath id="b">
            <rect width="88" height="64.68"></rect>
        </clipPath>
    </defs>
    <g id="a" clip-path="url(#b)">
        <g transform="translate(0 10.91)">
            <path d="M71.122,51.823a33.373,33.373,0,1,0-55.624,0Z" transform="translate(0.873)"
                fill="#ff9800"></path>
            <path
                d="M8.059,18.126a.044.044,0,0,1-.045-.043.043.043,0,0,1,.044-.044L12,18.026a.043.043,0,0,1,.043.043.044.044,0,0,1-.044.044ZM7.622,41.372h.106l-.382,9.31H12.58l-.382-9.31H12.3a.745.745,0,0,0,0-1.489h-.168l-.466-11.37a.69.69,0,0,0,.546-.746.675.675,0,0,0-.581-.739H11.61l-.35-8.536.736,0a.418.418,0,0,0,.176-.8,1.174,1.174,0,0,0,.052-1.309,3.879,3.879,0,0,0-1.3-1.1,6.236,6.236,0,0,1-.623-.427.721.721,0,0,0-.158-1.334v-.547H9.768v.547a.721.721,0,0,0-.164,1.33,6.159,6.159,0,0,1-.628.437A3.872,3.872,0,0,0,7.683,16.4a1.184,1.184,0,0,0,.1,1.368.417.417,0,0,0,.272.737h0l.607,0-.349,8.527H8.291c-.326,0-.581.324-.581.75a.676.676,0,0,0,.545.734l-.466,11.37H7.622a.745.745,0,0,0,0,1.489Z"
                transform="translate(0.604 1.14)" fill="#a85700"></path>
            <path
                d="M14.273,36.983a.467.467,0,0,0-.058.589V49.706H19.76V37.557a.464.464,0,0,0-.172-.67,1.393,1.393,0,0,0,.111-1.611,4.657,4.657,0,0,0-1.561-1.314,6.444,6.444,0,0,1-.81-.565.722.722,0,0,0-.153-1.337v-.548H16.8v.548a.721.721,0,0,0-.162,1.332,6.26,6.26,0,0,1-.814.578,4.654,4.654,0,0,0-1.552,1.325A1.393,1.393,0,0,0,14.39,36.9.467.467,0,0,0,14.273,36.983Z"
                transform="translate(1.236 2.768)" fill="#a85700"></path>
            <path
                d="M69.63,18.113a.044.044,0,1,1,0-.087l3.939.013a.043.043,0,0,1,.043.044.044.044,0,0,1-.045.043Zm-.309,23.258h.106l-.381,9.31h5.233l-.382-9.31H74a.745.745,0,0,0,0-1.49h-.168l-.466-11.37a.676.676,0,0,0,.545-.734c0-.426-.255-.75-.581-.75h-.025L72.96,18.5l.607,0h0a.418.418,0,0,0,.272-.737,1.183,1.183,0,0,0,.1-1.368,3.865,3.865,0,0,0-1.293-1.106,6.169,6.169,0,0,1-.627-.437.721.721,0,0,0-.164-1.33v-.547h-.376v.547a.721.721,0,0,0-.157,1.334,6.31,6.31,0,0,1-.623.427,3.87,3.87,0,0,0-1.3,1.1,1.172,1.172,0,0,0,.052,1.309.418.418,0,0,0,.176.8l.736,0-.35,8.536H69.99a.675.675,0,0,0-.581.739.69.69,0,0,0,.545.746l-.466,11.37h-.168a.745.745,0,0,0,0,1.49Z"
                transform="translate(6.023 1.14)" fill="#a85700"></path>
            <path
                d="M61.84,37.3a.466.466,0,0,0,.079.26V49.706h5.544V37.571a.461.461,0,0,0-.174-.672,1.393,1.393,0,0,0,.118-1.606,4.654,4.654,0,0,0-1.552-1.325,6.244,6.244,0,0,1-.814-.578.721.721,0,0,0-.162-1.332v-.547H64.5v.547A.721.721,0,0,0,64.35,33.4a6.384,6.384,0,0,1-.81.565,4.659,4.659,0,0,0-1.561,1.314,1.393,1.393,0,0,0,.111,1.611A.467.467,0,0,0,61.84,37.3Z"
                transform="translate(5.425 2.768)" fill="#a85700"></path>
            <path
                d="M39.537,50.747,39.5,40.657c0-2.087,2-3.791,4.469-3.8s4.481,1.691,4.488,3.77l.032,10.12Zm25.719,0v-13.7H63.719V34.164a.555.555,0,0,0-.276-.853,1.786,1.786,0,0,0,.21-2.129,6.153,6.153,0,0,0-2.045-1.742,5.952,5.952,0,0,1-1.21-.9.723.723,0,0,0-.118-1.355v-.547H59.9v.547a.724.724,0,0,0-.1,1.364,6.116,6.116,0,0,1-1.208.885,6.166,6.166,0,0,0-2.057,1.728,1.788,1.788,0,0,0,.2,2.134.555.555,0,0,0-.271.851v2.9H55.3v-5.7H52.56A6.262,6.262,0,0,0,54.2,26.584v-.005h0a6.247,6.247,0,0,0-.633-2.1,9.821,9.821,0,0,0-2.185-2.73v-.016h-.017a38.373,38.373,0,0,0-3.336-2.645c-1.823-1.337-3.551-2.6-3.775-3.7A.722.722,0,0,0,44.215,14v-.548h-.43V14a.722.722,0,0,0-.037,1.386c-.224,1.1-1.952,2.368-3.775,3.7a38.324,38.324,0,0,0-3.336,2.645H36.62v.016a9.825,9.825,0,0,0-2.185,2.73,6.247,6.247,0,0,0-.633,2.1h0v.005a6.262,6.262,0,0,0,1.638,4.757H32.7v5.7h-1.16v-2.9a.555.555,0,0,0-.272-.851,1.787,1.787,0,0,0,.2-2.134,6.164,6.164,0,0,0-2.057-1.728,6.112,6.112,0,0,1-1.207-.885.724.724,0,0,0-.1-1.364v-.547h-.376v.547a.723.723,0,0,0-.118,1.355,5.971,5.971,0,0,1-1.21.9,6.153,6.153,0,0,0-2.045,1.742,1.786,1.786,0,0,0,.21,2.129.556.556,0,0,0-.276.853v2.879H22.744v13.7H0v1.841H88V50.747Z"
                transform="translate(0 1.182)" fill="#a85700"></path>
            <path
                d="M36.253,49.218l-.034-10.332c0-2.137,2.049-3.881,4.576-3.89s4.588,1.732,4.6,3.86l.033,10.362Z"
                transform="translate(3.181 3.074)" fill="#fff"></path>
        </g>
    </g>
</svg>