<svg
  xmlns="http://www.w3.org/2000/svg"
  width="212"
  height="60"
  viewBox="0 0 212 60"
  fill="none"
>
  <path
    d="M66.8398 32.4532L66.3767 32.6417L66.3767 32.6417L66.8398 32.4532ZM207.329 58.9358L206.898 59.19L207.107 59.544L207.495 59.4074L207.329 58.9358ZM-2.865e-05 7.50842C0.305393 7.50844 0.66105 7.45641 1.04988 7.37276L0.83956 6.39513C0.480165 6.47245 0.203234 6.50843 2.865e-05 6.50842L-2.865e-05 7.50842ZM2.98507 6.83206C3.55102 6.65222 4.17494 6.44315 4.84921 6.21495L4.52863 5.26773C3.85484 5.49577 3.23856 5.70224 2.68222 5.87903L2.98507 6.83206ZM6.7129 5.58423C7.3021 5.38627 7.92017 5.18109 8.56509 4.97276L8.25771 4.02118C7.60792 4.23107 6.98595 4.43756 6.39441 4.63631L6.7129 5.58423ZM10.4211 4.39014C11.0254 4.20643 11.6484 4.02327 12.2888 3.84343L12.0184 2.88068C11.3704 3.06265 10.7405 3.24783 10.1302 3.43338L10.4211 4.39014ZM14.1677 3.34005C14.7828 3.18348 15.4112 3.03191 16.0517 2.88744L15.8317 1.91195C15.1817 2.05856 14.5444 2.21228 13.921 2.37094L14.1677 3.34005ZM17.948 2.48912C18.5746 2.36743 19.211 2.25393 19.8562 2.15041L19.6977 1.16304C19.0413 1.26838 18.3941 1.38379 17.7573 1.50745L17.948 2.48912ZM21.7751 1.87673C22.4109 1.79762 23.0538 1.72936 23.703 1.67351L23.6173 0.677187C22.955 0.734169 22.2994 0.803781 21.6517 0.884377L21.7751 1.87673ZM25.6374 1.54617C26.2761 1.51729 26.9198 1.50145 27.5677 1.5001L27.5656 0.500098C26.9028 0.501487 26.2447 0.517682 25.5922 0.547193L25.6374 1.54617ZM29.4979 1.53974C30.1372 1.56763 30.7797 1.61062 31.4248 1.67002L31.5165 0.674229C30.8549 0.61331 30.1963 0.569259 29.5415 0.540692L29.4979 1.53974ZM33.3443 1.89551C33.9764 1.98614 34.6102 2.09356 35.2451 2.21896L35.4389 1.23792C34.7864 1.10903 34.1353 0.998693 33.4863 0.905632L33.3443 1.89551ZM37.1223 2.6427C37.74 2.79995 38.3581 2.97528 38.9761 3.16981L39.2764 2.21596C38.6404 2.01575 38.0043 1.83535 37.369 1.67361L37.1223 2.6427ZM40.8032 3.80241C41.3957 4.02658 41.9874 4.26948 42.578 4.53212L42.9843 3.61839C42.3763 3.348 41.767 3.09791 41.1571 2.86713L40.8032 3.80241ZM44.3129 5.36336C44.8799 5.65504 45.4454 5.96602 46.0088 6.29721L46.5156 5.43511C45.9359 5.09438 45.354 4.77435 44.7703 4.47412L44.3129 5.36336ZM47.6355 7.31434C48.1629 7.66441 48.6881 8.03328 49.2108 8.4217L49.8073 7.61909C49.2704 7.22013 48.7307 6.84107 48.1885 6.48117L47.6355 7.31434ZM50.7394 9.62073C51.2234 10.0208 51.7049 10.4388 52.1834 10.8752L52.8572 10.1363C52.3668 9.68908 51.8732 9.2605 51.3766 8.84997L50.7394 9.62073ZM53.5873 12.2179C54.0328 12.6642 54.4753 13.1276 54.9147 13.6085L55.6529 12.9339C55.2038 12.4423 54.7511 11.9684 54.2951 11.5115L53.5873 12.2179ZM56.1905 15.0654C56.5983 15.5511 57.0031 16.0528 57.4045 16.5709L58.195 15.9585C57.7857 15.4301 57.3727 14.9182 56.9563 14.4224L56.1905 15.0654ZM58.5603 18.1217C58.9307 18.6382 59.2981 19.1696 59.6621 19.7163L60.4944 19.1621C60.1241 18.6059 59.7502 18.0649 59.3729 17.5389L58.5603 18.1217ZM60.7098 21.3473C61.0441 21.8867 61.3754 22.4397 61.7034 23.0067L62.569 22.506C62.236 21.9303 61.8995 21.3686 61.5597 20.8204L60.7098 21.3473ZM62.6567 24.7116C62.9568 25.2667 63.2539 25.8342 63.5479 26.4144L64.4399 25.9623C64.142 25.3744 63.8408 24.7991 63.5364 24.2361L62.6567 24.7116ZM64.4204 28.1931C64.6886 28.7579 64.954 29.3339 65.2164 29.9213L66.1294 29.5135C65.8639 28.9191 65.5953 28.3361 65.3238 27.7642L64.4204 28.1931ZM65.9945 31.7176C66.1227 32.0227 66.2501 32.3308 66.3767 32.6417L67.3029 32.2646C67.1749 31.9503 67.046 31.6388 66.9164 31.3303L65.9945 31.7176ZM66.3767 32.6417C66.5087 32.9658 66.6438 33.2852 66.782 33.6L67.6976 33.1979C67.5631 32.8915 67.4315 32.5804 67.3029 32.2646L66.3767 32.6417ZM67.6484 35.4342C67.9495 36.0275 68.2627 36.6029 68.5878 37.1608L69.4518 36.6573C69.1366 36.1165 68.8327 35.5581 68.5402 34.9817L67.6484 35.4342ZM69.6693 38.8881C70.0472 39.4503 70.4385 39.9924 70.8428 40.5151L71.6338 39.9032C71.2432 39.3983 70.8649 38.8742 70.4993 38.3303L69.6693 38.8881ZM72.121 42.0549C72.5737 42.5632 73.0403 43.0503 73.5202 43.517L74.2173 42.8C73.7546 42.3501 73.3046 41.8802 72.8678 41.3898L72.121 42.0549ZM75.0019 44.858C75.5194 45.2937 76.0503 45.7085 76.5941 46.1031L77.1814 45.2938C76.6569 44.9131 76.1449 44.513 75.6459 44.093L75.0019 44.858ZM78.2632 47.227C78.8304 47.5808 79.4097 47.9152 80.0007 48.2309L80.4718 47.3488C79.9002 47.0435 79.3403 46.7203 78.7925 46.3785L78.2632 47.227ZM81.8065 49.1215C82.4126 49.397 83.0296 49.6548 83.6568 49.8957L84.0153 48.9621C83.4061 48.7282 82.8076 48.4781 82.2202 48.2111L81.8065 49.1215ZM85.5462 50.5608C86.1823 50.7653 86.8278 50.9541 87.4822 51.1277L87.7387 50.1612C87.1003 49.9918 86.4714 49.8079 85.8523 49.6088L85.5462 50.5608ZM89.4132 51.5915C90.0651 51.7323 90.7249 51.8595 91.3924 51.9736L91.561 50.9879C90.9072 50.8761 90.2615 50.7517 89.6243 50.6141L89.4132 51.5915ZM93.3578 52.2698C94.0127 52.3557 94.6742 52.43 95.3419 52.4935L95.4365 51.498C94.7801 51.4356 94.1304 51.3625 93.4879 51.2783L93.3578 52.2698ZM97.3469 52.6504C97.9994 52.6909 98.6575 52.7218 99.3207 52.7436L99.3534 51.7441C98.6996 51.7227 98.0513 51.6922 97.4088 51.6523L97.3469 52.6504ZM101.326 52.7818C101.984 52.7855 102.647 52.781 103.315 52.7686L103.296 51.7687C102.637 51.781 101.981 51.7855 101.331 51.7818L101.326 52.7818ZM105.297 52.7093C105.962 52.6821 106.631 52.6477 107.303 52.6065L107.242 51.6084C106.576 51.6492 105.914 51.6832 105.256 51.7101L105.297 52.7093ZM109.274 52.4672C109.931 52.4148 110.59 52.3564 111.253 52.2923L111.157 51.2969C110.499 51.3605 109.845 51.4184 109.194 51.4703L109.274 52.4672ZM113.249 52.0834C113.898 52.0104 114.551 51.9323 115.205 51.8496L115.08 50.8575C114.43 50.9397 113.782 51.0172 113.137 51.0896L113.249 52.0834ZM117.175 51.5876C117.832 51.496 118.492 51.4001 119.153 51.3001L119.003 50.3113C118.346 50.4108 117.69 50.5062 117.037 50.5972L117.175 51.5876ZM121.103 50.9947C121.754 50.8892 122.407 50.7802 123.062 50.6679L122.893 49.6823C122.241 49.7941 121.591 49.9026 120.943 50.0075L121.103 50.9947ZM125.025 50.3221C125.672 50.2054 126.32 50.0858 126.968 49.9637L126.783 48.9809C126.137 49.1027 125.491 49.2218 124.847 49.338L125.025 50.3221ZM128.917 49.5897C129.567 49.4628 130.217 49.3336 130.868 49.2024L130.67 48.2221C130.021 48.353 129.373 48.4818 128.725 48.6083L128.917 49.5897ZM132.807 48.8062C133.454 48.6723 134.1 48.5368 134.747 48.3999L134.54 47.4215C133.895 47.5582 133.249 47.6934 132.604 47.8269L132.807 48.8062ZM136.688 47.9852C137.334 47.8459 137.979 47.7055 138.625 47.5643L138.411 46.5874C137.766 46.7285 137.122 46.8686 136.477 47.0076L136.688 47.9852ZM140.559 47.1385C141.204 46.9959 141.848 46.8528 142.491 46.7094L142.273 45.7334C141.631 45.8767 140.987 46.0197 140.343 46.1621L140.559 47.1385ZM144.429 46.2761C145.074 46.1316 145.718 45.9871 146.361 45.8429L146.142 44.8671C145.499 45.0113 144.855 45.1558 144.21 45.3003L144.429 46.2761ZM148.286 45.4115C148.935 45.2664 149.582 45.1218 150.228 44.9781L150.011 44.002C149.365 44.1458 148.717 44.2904 148.068 44.4357L148.286 45.4115ZM152.16 44.55C152.803 44.4083 153.443 44.2679 154.081 44.129L153.869 43.1519C153.229 43.291 152.588 43.4316 151.945 43.5734L152.16 44.55ZM156.03 43.7086C156.677 43.5701 157.322 43.4336 157.964 43.2993L157.76 42.3204C157.116 42.4551 156.469 42.592 155.821 42.7307L156.03 43.7086ZM159.886 42.9026C160.542 42.7691 161.194 42.6383 161.844 42.5106L161.65 41.5294C160.999 41.6576 160.344 41.7888 159.687 41.9227L159.886 42.9026ZM163.781 42.1367C164.428 42.0144 165.072 41.8955 165.712 41.7803L165.535 40.7961C164.892 40.9118 164.245 41.0313 163.595 41.1541L163.781 42.1367ZM167.677 41.4369C168.327 41.3267 168.973 41.2209 169.615 41.1199L169.459 40.1321C168.814 40.2338 168.164 40.3402 167.51 40.451L167.677 41.4369ZM171.567 40.8256C172.228 40.7305 172.884 40.641 173.534 40.5577L173.406 39.5658C172.751 39.6498 172.09 39.74 171.424 39.8358L171.567 40.8256ZM175.465 40.3266C176.134 40.2526 176.796 40.1858 177.45 40.1267L177.361 39.1307C176.699 39.1905 176.03 39.2579 175.355 39.3327L175.465 40.3266ZM179.407 39.9721C180.068 39.9277 180.721 39.8921 181.365 39.8658L181.324 38.8666C180.671 38.8933 180.009 38.9294 179.34 38.9744L179.407 39.9721ZM183.344 39.8147C183.998 39.8081 184.641 39.8123 185.274 39.828L185.298 38.8283C184.653 38.8123 183.998 38.8081 183.334 38.8147L183.344 39.8147ZM187.265 39.9177C187.917 39.9612 188.556 40.0183 189.183 40.0899L189.296 39.0964C188.653 39.0229 187.998 38.9644 187.332 38.92L187.265 39.9177ZM191.143 40.3694C191.786 40.4805 192.413 40.6091 193.024 40.7561L193.258 39.7839C192.625 39.6315 191.976 39.4985 191.313 39.384L191.143 40.3694ZM194.913 41.288C195.529 41.4884 196.124 41.7109 196.7 41.9565L197.092 41.0368C196.488 40.7789 195.865 40.5461 195.223 40.3371L194.913 41.288ZM198.448 42.8105C199.009 43.1228 199.548 43.4623 200.062 43.8303L200.644 43.0172C200.098 42.6263 199.527 42.2666 198.934 41.9365L198.448 42.8105ZM201.55 45.0394C202.015 45.4671 202.454 45.9251 202.869 46.4149L203.632 45.769C203.191 45.2474 202.722 44.7594 202.227 44.3037L201.55 45.0394ZM204.017 47.9554C204.357 48.4742 204.674 49.0226 204.967 49.602L205.86 49.1505C205.55 48.5387 205.214 47.9579 204.853 47.4072L204.017 47.9554ZM205.754 51.3817C205.975 51.9575 206.176 52.5595 206.357 53.1888L207.318 52.9133C207.13 52.2572 206.92 51.6275 206.688 51.0235L205.754 51.3817ZM206.82 55.0849C206.887 55.4138 206.95 55.7493 207.007 56.0914L207.993 55.926C207.934 55.5724 207.869 55.2251 207.8 54.8842L206.82 55.0849ZM198.172 52.6436C198.449 52.5364 198.73 52.4788 199.016 52.4644L198.966 51.4657C198.577 51.4852 198.19 51.5641 197.811 51.7112L198.172 52.6436ZM200.775 52.8469C201.318 53.0911 201.868 53.4408 202.411 53.8661L203.028 53.0789C202.439 52.6179 201.82 52.2204 201.185 51.9348L200.775 52.8469ZM203.874 55.202C204.341 55.6868 204.783 56.201 205.189 56.7143L205.974 56.0941C205.551 55.5591 205.087 55.0199 204.595 54.5083L203.874 55.202ZM206.367 58.3419C206.566 58.6425 206.744 58.9279 206.898 59.19L207.76 58.6817C207.596 58.4043 207.409 58.1047 207.202 57.7909L206.367 58.3419ZM207.495 59.4074C207.868 59.276 208.208 59.0862 208.516 58.8506L207.909 58.0559C207.677 58.2331 207.429 58.3704 207.163 58.4642L207.495 59.4074ZM209.926 57.1453C210.257 56.5495 210.524 55.8818 210.738 55.184L209.783 54.8898C209.583 55.5391 209.341 56.1393 209.052 56.66L209.926 57.1453ZM211.218 53.1574C211.34 52.4673 211.426 51.7739 211.484 51.1079L210.487 51.0219C210.432 51.6627 210.35 52.3264 210.234 52.9834L211.218 53.1574ZM211.58 49.0489C211.582 48.6776 211.576 48.3301 211.563 48.0149L210.564 48.0563C210.576 48.3546 210.582 48.686 210.58 49.0424L211.58 49.0489Z"
    fill="#EB5757"
  ></path>
</svg>
