<svg xmlns="http://www.w3.org/2000/svg" width="246" height="277" viewBox="0 0 246 277" fill="none"><rect width="245.196" height="276.883" rx="12" fill="#FFEDCB"></rect><rect x="9.6875" y="57.1289" width="100.913" height="215.651" rx="12" fill="#F9FAFC"></rect><mask id="mask0_156_2885" style="mask-type:alpha" maskUnits="userSpaceOnUse" x="9" y="57" width="102" height="216"><rect x="9.6875" y="57.1289" width="100.913" height="215.651" rx="12" fill="#FFF3E1"></rect></mask><g mask="url(#mask0_156_2885)"><path d="M18.3286 94.3675V117.647H-4.35141V132.287H18.3286V155.567H34.1686V132.287H56.8486V117.647H34.1686V94.3675H18.3286Z" fill="#FFEDCB"></path></g><rect x="134.598" y="26.2383" width="100.913" height="215.651" rx="12" fill="#F9FAFC"></rect><path d="M215.426 75.0938H222.977" stroke="#FFEDCB" stroke-linecap="round"></path><path d="M215.426 107.902H222.977" stroke="#FFEDCB" stroke-linecap="round"></path><path d="M142.036 72.3945H143.436V65.4145H142.036V72.3945ZM144.969 72.3945H146.389V68.0045H147.359V66.8545H146.389V66.6245C146.389 66.0045 146.619 65.7845 147.299 65.8045V64.6245C145.739 64.5845 144.969 65.2145 144.969 66.5745V66.8545H144.339V68.0045H144.969V72.3945Z" fill="#47A156"></path><path d="M141.475 85.8375H143.335V91.6875H144.735V85.8375H146.595V84.7075H141.475V85.8375ZM147.617 91.6875H149.017V88.6275C149.017 87.7375 149.507 87.2575 150.267 87.2575C151.007 87.2575 151.497 87.7375 151.497 88.6275V91.6875H152.897V88.4375C152.897 86.9075 151.987 86.0675 150.737 86.0675C149.997 86.0675 149.377 86.3675 149.017 86.8375V84.2875H147.617V91.6875ZM156.608 87.2075C157.328 87.2075 157.908 87.6675 157.928 88.3975H155.298C155.408 87.6375 155.938 87.2075 156.608 87.2075ZM159.238 89.9475H157.728C157.548 90.3175 157.218 90.6175 156.618 90.6175C155.918 90.6175 155.358 90.1575 155.288 89.3375H159.338C159.368 89.1575 159.378 88.9775 159.378 88.7975C159.378 87.1475 158.248 86.0575 156.648 86.0575C155.008 86.0575 153.868 87.1675 153.868 88.9175C153.868 90.6575 155.038 91.7775 156.648 91.7775C158.018 91.7775 158.938 90.9675 159.238 89.9475ZM164.28 91.6875H165.68V88.4375C165.68 86.9075 164.76 86.0675 163.47 86.0675C162.76 86.0675 162.16 86.3675 161.8 86.8375V86.1475H160.4V91.6875H161.8V88.6275C161.8 87.7375 162.29 87.2575 163.05 87.2575C163.79 87.2575 164.28 87.7375 164.28 88.6275V91.6875Z" fill="#47A156"></path><path d="M17.0683 73.96C17.0683 75.69 18.1883 76.84 19.5883 76.84C20.4683 76.84 21.0983 76.42 21.4283 75.94V76.75H22.8383V71.21H21.4283V72C21.0983 71.54 20.4883 71.12 19.5983 71.12C18.1883 71.12 17.0683 72.23 17.0683 73.96ZM21.4283 73.98C21.4283 75.03 20.7283 75.61 19.9583 75.61C19.2083 75.61 18.4983 75.01 18.4983 73.96C18.4983 72.91 19.2083 72.35 19.9583 72.35C20.7283 72.35 21.4283 72.93 21.4283 73.98ZM23.8456 73.96C23.8456 75.69 24.9656 76.84 26.3756 76.84C27.2456 76.84 27.8656 76.44 28.1956 75.93V76.75H29.6156V69.35H28.1956V71.98C27.8156 71.46 27.1156 71.12 26.3856 71.12C24.9656 71.12 23.8456 72.23 23.8456 73.96ZM28.2056 73.98C28.2056 75.03 27.5056 75.61 26.7356 75.61C25.9856 75.61 25.2756 75.01 25.2756 73.96C25.2756 72.91 25.9856 72.35 26.7356 72.35C27.5056 72.35 28.2056 72.93 28.2056 73.98ZM30.623 73.96C30.623 75.69 31.743 76.84 33.153 76.84C34.023 76.84 34.643 76.44 34.973 75.93V76.75H36.393V69.35H34.973V71.98C34.593 71.46 33.893 71.12 33.163 71.12C31.743 71.12 30.623 72.23 30.623 73.96ZM34.983 73.98C34.983 75.03 34.283 75.61 33.513 75.61C32.763 75.61 32.053 75.01 32.053 73.96C32.053 72.91 32.763 72.35 33.513 72.35C34.283 72.35 34.983 72.93 34.983 73.98ZM37.7603 76.75H39.1603V71.21H37.7603V76.75ZM38.4703 70.55C38.9603 70.55 39.3303 70.19 39.3303 69.73C39.3303 69.27 38.9603 68.91 38.4703 68.91C37.9703 68.91 37.6103 69.27 37.6103 69.73C37.6103 70.19 37.9703 70.55 38.4703 70.55ZM40.7635 75.03C40.7635 76.3 41.4735 76.75 42.5335 76.75H43.4135V75.57H42.7635C42.3235 75.57 42.1735 75.41 42.1735 75.04V72.36H43.4135V71.21H42.1735V69.84H40.7635V71.21H40.1035V72.36H40.7635V75.03ZM44.4205 76.75H45.8205V71.21H44.4205V76.75ZM45.1305 70.55C45.6205 70.55 45.9905 70.19 45.9905 69.73C45.9905 69.27 45.6205 68.91 45.1305 68.91C44.6305 68.91 44.2705 69.27 44.2705 69.73C44.2705 70.19 44.6305 70.55 45.1305 70.55ZM52.5537 73.98C52.5537 72.23 51.3037 71.12 49.7037 71.12C48.1037 71.12 46.8537 72.23 46.8537 73.98C46.8537 75.72 48.0637 76.84 49.6637 76.84C51.2737 76.84 52.5537 75.72 52.5537 73.98ZM48.2737 73.98C48.2737 72.87 48.9437 72.34 49.6837 72.34C50.4237 72.34 51.1137 72.87 51.1137 73.98C51.1137 75.08 50.4037 75.62 49.6637 75.62C48.9137 75.62 48.2737 75.08 48.2737 73.98ZM57.4606 76.75H58.8606V73.5C58.8606 71.97 57.9406 71.13 56.6506 71.13C55.9406 71.13 55.3406 71.43 54.9806 71.9V71.21H53.5806V76.75H54.9806V73.69C54.9806 72.8 55.4706 72.32 56.2306 72.32C56.9706 72.32 57.4606 72.8 57.4606 73.69V76.75Z" fill="#E83636"></path><path d="M150.583 130.936C150.583 131.98 151.267 132.652 152.227 132.652C153.055 132.652 153.613 132.184 153.793 131.476H152.887C152.785 131.776 152.569 131.932 152.221 131.932C151.753 131.932 151.441 131.584 151.441 130.936C151.441 130.288 151.753 129.934 152.221 129.934C152.569 129.934 152.791 130.114 152.887 130.396H153.793C153.613 129.652 153.055 129.22 152.227 129.22C151.267 129.22 150.583 129.892 150.583 130.936ZM154.192 130.924C154.192 131.962 154.864 132.652 155.704 132.652C156.232 132.652 156.61 132.4 156.808 132.112V132.598H157.654V129.274H156.808V129.748C156.61 129.472 156.244 129.22 155.71 129.22C154.864 129.22 154.192 129.886 154.192 130.924ZM156.808 130.936C156.808 131.566 156.388 131.914 155.926 131.914C155.476 131.914 155.05 131.554 155.05 130.924C155.05 130.294 155.476 129.958 155.926 129.958C156.388 129.958 156.808 130.306 156.808 130.936ZM160.803 132.598H161.643V130.648C161.643 129.73 161.091 129.226 160.317 129.226C159.891 129.226 159.531 129.406 159.315 129.688V129.274H158.475V132.598H159.315V130.762C159.315 130.228 159.609 129.94 160.065 129.94C160.509 129.94 160.803 130.228 160.803 130.762V132.598ZM165.287 131.596L164.429 129.274H163.487L164.819 132.514L164.099 134.17H164.993L167.051 129.274H166.157L165.287 131.596ZM170.714 130.936C170.714 129.886 169.964 129.22 169.004 129.22C168.044 129.22 167.294 129.886 167.294 130.936C167.294 131.98 168.02 132.652 168.98 132.652C169.946 132.652 170.714 131.98 170.714 130.936ZM168.146 130.936C168.146 130.27 168.548 129.952 168.992 129.952C169.436 129.952 169.85 130.27 169.85 130.936C169.85 131.596 169.424 131.92 168.98 131.92C168.53 131.92 168.146 131.596 168.146 130.936ZM174.468 129.274H173.622V131.104C173.622 131.638 173.334 131.926 172.878 131.926C172.434 131.926 172.14 131.638 172.14 131.104V129.274H171.3V131.224C171.3 132.136 171.858 132.64 172.632 132.64C173.046 132.64 173.412 132.46 173.622 132.178V132.598H174.468V129.274ZM176.727 132.598H177.567V130.762C177.567 130.228 177.861 129.94 178.317 129.94C178.761 129.94 179.055 130.228 179.055 130.762V132.598H179.895V130.648C179.895 129.73 179.349 129.226 178.599 129.226C178.155 129.226 177.783 129.406 177.567 129.688V128.158H176.727V132.598ZM182.121 129.91C182.553 129.91 182.901 130.186 182.913 130.624H181.335C181.401 130.168 181.719 129.91 182.121 129.91ZM183.699 131.554H182.793C182.685 131.776 182.487 131.956 182.127 131.956C181.707 131.956 181.371 131.68 181.329 131.188H183.759C183.777 131.08 183.783 130.972 183.783 130.864C183.783 129.874 183.105 129.22 182.145 129.22C181.161 129.22 180.477 129.886 180.477 130.936C180.477 131.98 181.179 132.652 182.145 132.652C182.967 132.652 183.519 132.166 183.699 131.554ZM184.396 132.598H185.236V128.158H184.396V132.598ZM186.906 129.754V129.274H186.066V134.182H186.906V132.124C187.11 132.394 187.482 132.652 188.004 132.652C188.856 132.652 189.522 131.962 189.522 130.924C189.522 129.886 188.856 129.22 188.004 129.22C187.488 129.22 187.104 129.472 186.906 129.754ZM188.664 130.924C188.664 131.554 188.238 131.914 187.782 131.914C187.332 131.914 186.906 131.566 186.906 130.936C186.906 130.306 187.332 129.958 187.782 129.958C188.238 129.958 188.664 130.294 188.664 130.924ZM196.212 132.598H197.052V130.648C197.052 129.73 196.488 129.226 195.69 129.226C195.204 129.226 194.766 129.484 194.55 129.862C194.322 129.448 193.896 129.226 193.38 129.226C192.966 129.226 192.612 129.4 192.402 129.676V129.274H191.562V132.598H192.402V130.762C192.402 130.234 192.696 129.958 193.152 129.958C193.596 129.958 193.89 130.234 193.89 130.762V132.598H194.73V130.762C194.73 130.234 195.024 129.958 195.474 129.958C195.918 129.958 196.212 130.234 196.212 130.762V132.598ZM199.278 129.91C199.71 129.91 200.058 130.186 200.07 130.624H198.492C198.558 130.168 198.876 129.91 199.278 129.91ZM200.856 131.554H199.95C199.842 131.776 199.644 131.956 199.284 131.956C198.864 131.956 198.528 131.68 198.486 131.188H200.916C200.934 131.08 200.94 130.972 200.94 130.864C200.94 129.874 200.262 129.22 199.302 129.22C198.318 129.22 197.634 129.886 197.634 130.936C197.634 131.98 198.336 132.652 199.302 132.652C200.124 132.652 200.676 132.166 200.856 131.554ZM203.114 131.566C203.114 132.328 203.54 132.598 204.176 132.598H204.704V131.89H204.314C204.05 131.89 203.96 131.794 203.96 131.572V129.964H204.704V129.274H203.96V128.452H203.114V129.274H202.718V129.964H203.114V131.566ZM208.519 130.936C208.519 129.886 207.769 129.22 206.809 129.22C205.849 129.22 205.099 129.886 205.099 130.936C205.099 131.98 205.825 132.652 206.785 132.652C207.751 132.652 208.519 131.98 208.519 130.936ZM205.951 130.936C205.951 130.27 206.353 129.952 206.797 129.952C207.241 129.952 207.655 130.27 207.655 130.936C207.655 131.596 207.229 131.92 206.785 131.92C206.335 131.92 205.951 131.596 205.951 130.936ZM210.348 130.924C210.348 131.962 211.02 132.652 211.86 132.652C212.388 132.652 212.766 132.4 212.964 132.112V132.598H213.81V129.274H212.964V129.748C212.766 129.472 212.4 129.22 211.866 129.22C211.02 129.22 210.348 129.886 210.348 130.924ZM212.964 130.936C212.964 131.566 212.544 131.914 212.082 131.914C211.632 131.914 211.206 131.554 211.206 130.924C211.206 130.294 211.632 129.958 212.082 129.958C212.544 129.958 212.964 130.306 212.964 130.936ZM214.415 130.924C214.415 131.962 215.087 132.652 215.933 132.652C216.455 132.652 216.827 132.412 217.025 132.106V132.598H217.877V128.158H217.025V129.736C216.797 129.424 216.377 129.22 215.939 129.22C215.087 129.22 214.415 129.886 214.415 130.924ZM217.031 130.936C217.031 131.566 216.611 131.914 216.149 131.914C215.699 131.914 215.273 131.554 215.273 130.924C215.273 130.294 215.699 129.958 216.149 129.958C216.611 129.958 217.031 130.306 217.031 130.936ZM218.481 130.924C218.481 131.962 219.153 132.652 219.999 132.652C220.521 132.652 220.893 132.412 221.091 132.106V132.598H221.943V128.158H221.091V129.736C220.863 129.424 220.443 129.22 220.005 129.22C219.153 129.22 218.481 129.886 218.481 130.924ZM221.097 130.936C221.097 131.566 220.677 131.914 220.215 131.914C219.765 131.914 219.339 131.554 219.339 130.924C219.339 130.294 219.765 129.958 220.215 129.958C220.677 129.958 221.097 130.306 221.097 130.936Z" fill="#242C3C"></path><rect x="162.09" y="219.938" width="45.9257" height="12.926" rx="6.46299" fill="#EB5757"></rect><path d="M181.355 224.907V227.307L179.77 224.907H179.07V228.402H179.77V226.007L181.355 228.402H182.055V224.907H181.355ZM184.772 224.907H182.747V228.402H184.772V227.832H183.447V226.907H184.622V226.352H183.447V225.477H184.772V224.907ZM187.498 228.402H188.303L187.188 226.667L188.283 224.912H187.493L186.813 226.082L186.058 224.912H185.253L186.368 226.642L185.268 228.402H186.058L186.743 227.227L187.498 228.402ZM188.651 225.477H189.581V228.402H190.281V225.477H191.211V224.912H188.651V225.477Z" fill="#F9FAFC"></path><path d="M177.535 35.5334V39.0234H179.385V38.4684H178.235V35.5334H177.535ZM181.02 36.7834C181.38 36.7834 181.67 37.0134 181.68 37.3784H180.365C180.42 36.9984 180.685 36.7834 181.02 36.7834ZM182.335 38.1534H181.58C181.49 38.3384 181.325 38.4884 181.025 38.4884C180.675 38.4884 180.395 38.2584 180.36 37.8484H182.385C182.4 37.7584 182.405 37.6684 182.405 37.5784C182.405 36.7534 181.84 36.2084 181.04 36.2084C180.22 36.2084 179.65 36.7634 179.65 37.6384C179.65 38.5084 180.235 39.0684 181.04 39.0684C181.725 39.0684 182.185 38.6634 182.335 38.1534ZM182.621 36.2534L183.641 39.0234H184.491L185.516 36.2534H184.771L184.071 38.3784L183.371 36.2534H182.621ZM187.099 36.7834C187.459 36.7834 187.749 37.0134 187.759 37.3784H186.444C186.499 36.9984 186.764 36.7834 187.099 36.7834ZM188.414 38.1534H187.659C187.569 38.3384 187.404 38.4884 187.104 38.4884C186.754 38.4884 186.474 38.2584 186.439 37.8484H188.464C188.479 37.7584 188.484 37.6684 188.484 37.5784C188.484 36.7534 187.919 36.2084 187.119 36.2084C186.299 36.2084 185.729 36.7634 185.729 37.6384C185.729 38.5084 186.314 39.0684 187.119 39.0684C187.804 39.0684 188.264 38.6634 188.414 38.1534ZM188.995 39.0234H189.695V35.3234H188.995V39.0234ZM191.898 39.0234H192.618V35.3784H191.413V36.0234H191.898V39.0234Z" fill="#242C3C"></path><path d="M18.9103 87.6875H19.5023L18.4983 84.8915H17.8463L16.8423 87.6875H17.4303L17.6143 87.1555H18.7263L18.9103 87.6875ZM18.5743 86.7075H17.7663L18.1703 85.5395L18.5743 86.7075ZM19.7336 86.5715C19.7336 87.2635 20.1816 87.7235 20.7456 87.7235C21.0936 87.7235 21.3416 87.5635 21.4736 87.3595V87.6875H22.0416V84.7275H21.4736V85.7795C21.3216 85.5715 21.0416 85.4355 20.7496 85.4355C20.1816 85.4355 19.7336 85.8795 19.7336 86.5715ZM21.4776 86.5795C21.4776 86.9995 21.1976 87.2315 20.8896 87.2315C20.5896 87.2315 20.3056 86.9915 20.3056 86.5715C20.3056 86.1515 20.5896 85.9275 20.8896 85.9275C21.1976 85.9275 21.4776 86.1595 21.4776 86.5795ZM22.4445 86.5715C22.4445 87.2635 22.8925 87.7235 23.4565 87.7235C23.8045 87.7235 24.0525 87.5635 24.1845 87.3595V87.6875H24.7525V84.7275H24.1845V85.7795C24.0325 85.5715 23.7525 85.4355 23.4605 85.4355C22.8925 85.4355 22.4445 85.8795 22.4445 86.5715ZM24.1885 86.5795C24.1885 86.9995 23.9085 87.2315 23.6005 87.2315C23.3005 87.2315 23.0165 86.9915 23.0165 86.5715C23.0165 86.1515 23.3005 85.9275 23.6005 85.9275C23.9085 85.9275 24.1885 86.1595 24.1885 86.5795ZM25.2994 87.6875H25.8594V85.4715H25.2994V87.6875ZM25.5834 85.2075C25.7794 85.2075 25.9274 85.0635 25.9274 84.8795C25.9274 84.6955 25.7794 84.5515 25.5834 84.5515C25.3834 84.5515 25.2394 84.6955 25.2394 84.8795C25.2394 85.0635 25.3834 85.2075 25.5834 85.2075ZM26.5007 86.9995C26.5007 87.5075 26.7847 87.6875 27.2087 87.6875H27.5607V87.2155H27.3007C27.1247 87.2155 27.0647 87.1515 27.0647 87.0035V85.9315H27.5607V85.4715H27.0647V84.9235H26.5007V85.4715H26.2367V85.9315H26.5007V86.9995ZM27.9635 87.6875H28.5235V85.4715H27.9635V87.6875ZM28.2475 85.2075C28.4435 85.2075 28.5915 85.0635 28.5915 84.8795C28.5915 84.6955 28.4435 84.5515 28.2475 84.5515C28.0475 84.5515 27.9035 84.6955 27.9035 84.8795C27.9035 85.0635 28.0475 85.2075 28.2475 85.2075ZM31.2168 86.5795C31.2168 85.8795 30.7168 85.4355 30.0768 85.4355C29.4368 85.4355 28.9368 85.8795 28.9368 86.5795C28.9368 87.2755 29.4208 87.7235 30.0608 87.7235C30.7048 87.7235 31.2168 87.2755 31.2168 86.5795ZM29.5048 86.5795C29.5048 86.1355 29.7728 85.9235 30.0688 85.9235C30.3648 85.9235 30.6408 86.1355 30.6408 86.5795C30.6408 87.0195 30.3568 87.2355 30.0608 87.2355C29.7608 87.2355 29.5048 87.0195 29.5048 86.5795ZM33.1796 87.6875H33.7396V86.3875C33.7396 85.7755 33.3716 85.4395 32.8556 85.4395C32.5716 85.4395 32.3316 85.5595 32.1876 85.7475V85.4715H31.6276V87.6875H32.1876V86.4635C32.1876 86.1075 32.3836 85.9155 32.6876 85.9155C32.9836 85.9155 33.1796 86.1075 33.1796 86.4635V87.6875ZM35.2252 87.6875H35.7852V84.8955H35.2252V87.6875ZM38.0585 87.0555C38.0425 86.2435 36.8145 86.4955 36.8145 86.0915C36.8145 85.9635 36.9225 85.8795 37.1305 85.8795C37.3505 85.8795 37.4865 85.9955 37.5025 86.1675H38.0385C38.0065 85.7275 37.6825 85.4355 37.1465 85.4355C36.5985 85.4355 36.2705 85.7315 36.2705 86.0995C36.2705 86.9115 37.5225 86.6595 37.5225 87.0555C37.5225 87.1835 37.4025 87.2835 37.1825 87.2835C36.9585 87.2835 36.8025 87.1555 36.7825 86.9875H36.2185C36.2425 87.3995 36.6305 87.7235 37.1865 87.7235C37.7265 87.7235 38.0585 87.4355 38.0585 87.0555ZM40.0353 87.6915L40.6913 87.6875L41.2393 85.6995L41.7633 87.6875H42.4233L43.2033 84.8955H42.5993L42.1033 87.0515L41.5673 84.8955H40.9433L40.3753 87.0635L39.8833 84.8955H39.2833L40.0353 87.6915ZM43.569 87.6875H44.129V86.4635C44.129 86.1075 44.325 85.9155 44.629 85.9155C44.925 85.9155 45.121 86.1075 45.121 86.4635V87.6875H45.681V86.3875C45.681 85.7755 45.317 85.4395 44.817 85.4395C44.521 85.4395 44.273 85.5595 44.129 85.7475V84.7275H43.569V87.6875ZM47.1655 85.8955C47.4535 85.8955 47.6855 86.0795 47.6935 86.3715H46.6415C46.6855 86.0675 46.8975 85.8955 47.1655 85.8955ZM48.2175 86.9915H47.6135C47.5415 87.1395 47.4095 87.2595 47.1695 87.2595C46.8895 87.2595 46.6655 87.0755 46.6375 86.7475H48.2575C48.2695 86.6755 48.2735 86.6035 48.2735 86.5315C48.2735 85.8715 47.8215 85.4355 47.1815 85.4355C46.5255 85.4355 46.0695 85.8795 46.0695 86.5795C46.0695 87.2755 46.5375 87.7235 47.1815 87.7235C47.7295 87.7235 48.0975 87.3995 48.2175 86.9915ZM50.2343 87.6875H50.7943V86.3875C50.7943 85.7755 50.4262 85.4395 49.9103 85.4395C49.6263 85.4395 49.3863 85.5595 49.2423 85.7475V85.4715H48.6823V87.6875H49.2423V86.4635C49.2423 86.1075 49.4383 85.9155 49.7423 85.9155C50.0383 85.9155 50.2343 86.1075 50.2343 86.4635V87.6875ZM52.9959 86.7155V87.6875H53.5559V86.7155L54.4999 84.8955H53.8759L53.2799 86.1715L52.6799 84.8955H52.0479L52.9959 86.7155ZM56.9629 86.5795C56.9629 85.8795 56.4629 85.4355 55.8229 85.4355C55.1829 85.4355 54.6829 85.8795 54.6829 86.5795C54.6829 87.2755 55.1669 87.7235 55.8069 87.7235C56.4509 87.7235 56.9629 87.2755 56.9629 86.5795ZM55.2509 86.5795C55.2509 86.1355 55.5189 85.9235 55.8149 85.9235C56.1109 85.9235 56.3869 86.1355 56.3869 86.5795C56.3869 87.0195 56.1029 87.2355 55.8069 87.2355C55.5069 87.2355 55.2509 87.0195 55.2509 86.5795ZM59.4657 85.4715H58.9017V86.6915C58.9017 87.0475 58.7097 87.2395 58.4057 87.2395C58.1097 87.2395 57.9137 87.0475 57.9137 86.6915V85.4715H57.3537V86.7715C57.3537 87.3795 57.7257 87.7155 58.2417 87.7155C58.5177 87.7155 58.7617 87.5955 58.9017 87.4075V87.6875H59.4657V85.4715ZM61.5313 86.1635V85.3515H61.9753C62.2913 85.3515 62.4313 85.5035 62.4313 85.7595C62.4313 86.0075 62.2913 86.1635 61.9753 86.1635H61.5313ZM63.0073 85.7595C63.0073 85.2755 62.6713 84.8955 61.9993 84.8955H60.9713V87.6875H61.5313V86.6155H61.9993C62.7193 86.6155 63.0073 86.1835 63.0073 85.7595ZM65.4969 85.4715H64.9329V86.6915C64.9329 87.0475 64.7409 87.2395 64.4369 87.2395C64.1409 87.2395 63.9449 87.0475 63.9449 86.6915V85.4715H63.3849V86.7715C63.3849 87.3795 63.7569 87.7155 64.2729 87.7155C64.5489 87.7155 64.7929 87.5955 64.9329 87.4075V87.6875H65.4969V85.4715ZM66.1374 86.9995C66.1374 87.5075 66.4214 87.6875 66.8454 87.6875H67.1974V87.2155H66.9374C66.7614 87.2155 66.7014 87.1515 66.7014 87.0035V85.9315H67.1974V85.4715H66.7014V84.9235H66.1374V85.4715H65.8734V85.9315H66.1374V86.9995ZM68.4053 85.3475H69.1493V87.6875H69.7093V85.3475H70.4533V84.8955H68.4053V85.3475ZM73.0019 86.5795C73.0019 85.8795 72.5019 85.4355 71.8619 85.4355C71.2219 85.4355 70.7219 85.8795 70.7219 86.5795C70.7219 87.2755 71.2059 87.7235 71.8459 87.7235C72.4899 87.7235 73.0019 87.2755 73.0019 86.5795ZM71.2899 86.5795C71.2899 86.1355 71.5579 85.9235 71.8539 85.9235C72.1499 85.9235 72.4259 86.1355 72.4259 86.5795C72.4259 87.0195 72.1419 87.2355 71.8459 87.2355C71.5459 87.2355 71.2899 87.0195 71.2899 86.5795ZM73.2687 86.5715C73.2687 87.2635 73.7167 87.7235 74.2807 87.7235C74.6287 87.7235 74.8807 87.5515 75.0127 87.3595V87.7035C75.0127 88.1155 74.7727 88.2915 74.4647 88.2915C74.1847 88.2915 73.9767 88.1595 73.9207 87.9595H73.3647C73.4207 88.4675 73.8567 88.7795 74.4807 88.7795C75.2087 88.7795 75.5767 88.3035 75.5767 87.7035V85.4715H75.0127V85.7875C74.8807 85.5955 74.6287 85.4355 74.2807 85.4355C73.7167 85.4355 73.2687 85.8795 73.2687 86.5715ZM75.0127 86.5795C75.0127 86.9995 74.7327 87.2315 74.4247 87.2315C74.1247 87.2315 73.8407 86.9915 73.8407 86.5715C73.8407 86.1515 74.1247 85.9275 74.4247 85.9275C74.7327 85.9275 75.0127 86.1595 75.0127 86.5795ZM77.0757 85.8955C77.3637 85.8955 77.5957 86.0795 77.6037 86.3715H76.5517C76.5957 86.0675 76.8077 85.8955 77.0757 85.8955ZM78.1277 86.9915H77.5237C77.4517 87.1395 77.3197 87.2595 77.0797 87.2595C76.7997 87.2595 76.5757 87.0755 76.5477 86.7475H78.1677C78.1797 86.6755 78.1837 86.6035 78.1837 86.5315C78.1837 85.8715 77.7317 85.4355 77.0917 85.4355C76.4357 85.4355 75.9797 85.8795 75.9797 86.5795C75.9797 87.2755 76.4477 87.7235 77.0917 87.7235C77.6397 87.7235 78.0077 87.3995 78.1277 86.9915ZM78.6804 86.9995C78.6804 87.5075 78.9644 87.6875 79.3884 87.6875H79.7404V87.2155H79.4804C79.3044 87.2155 79.2444 87.1515 79.2444 87.0035V85.9315H79.7404V85.4715H79.2444V84.9235H78.6804V85.4715H78.4164V85.9315H78.6804V86.9995ZM80.1432 87.6875H80.7032V86.4635C80.7032 86.1075 80.8992 85.9155 81.2032 85.9155C81.4992 85.9155 81.6952 86.1075 81.6952 86.4635V87.6875H82.2552V86.3875C82.2552 85.7755 81.8912 85.4395 81.3912 85.4395C81.0952 85.4395 80.8472 85.5595 80.7032 85.7475V84.7275H80.1432V87.6875ZM83.7397 85.8955C84.0277 85.8955 84.2597 86.0795 84.2677 86.3715H83.2157C83.2597 86.0675 83.4717 85.8955 83.7397 85.8955ZM84.7917 86.9915H84.1877C84.1157 87.1395 83.9837 87.2595 83.7437 87.2595C83.4637 87.2595 83.2397 87.0755 83.2117 86.7475H84.8317C84.8437 86.6755 84.8477 86.6035 84.8477 86.5315C84.8477 85.8715 84.3957 85.4355 83.7557 85.4355C83.0997 85.4355 82.6437 85.8795 82.6437 86.5795C82.6437 87.2755 83.1117 87.7235 83.7557 87.7235C84.3037 87.7235 84.6717 87.3995 84.7917 86.9915ZM85.8165 86.5835C85.8165 86.1555 86.0165 86.0275 86.3485 86.0275H86.4965V85.4395C86.1885 85.4395 85.9565 85.5875 85.8165 85.8155V85.4715H85.2565V87.6875H85.8165V86.5835ZM16.8663 91.3475H17.6103V93.6875H18.1703V91.3475H18.9143V90.8955H16.8663V91.3475ZM19.7269 93.6875H20.3349L20.7389 92.1395L21.1429 93.6875H21.7469L22.3949 91.4715H21.8589L21.4669 93.1555L21.0509 91.4715H20.4589L20.0349 93.1595L19.6429 91.4715H19.0749L19.7269 93.6875ZM24.8379 92.5795C24.8379 91.8795 24.3379 91.4355 23.6979 91.4355C23.0579 91.4355 22.5579 91.8795 22.5579 92.5795C22.5579 93.2755 23.0419 93.7235 23.6819 93.7235C24.3259 93.7235 24.8379 93.2755 24.8379 92.5795ZM23.1259 92.5795C23.1259 92.1355 23.3939 91.9235 23.6899 91.9235C23.9859 91.9235 24.2619 92.1355 24.2619 92.5795C24.2619 93.0195 23.9779 93.2355 23.6819 93.2355C23.3819 93.2355 23.1259 93.0195 23.1259 92.5795ZM28.9258 92.2835C28.9258 91.4475 28.2938 90.8555 27.4978 90.8555C26.7098 90.8555 26.0658 91.4475 26.0658 92.2835C26.0658 93.1235 26.7098 93.7155 27.4978 93.7155C28.2898 93.7155 28.9258 93.1235 28.9258 92.2835ZM26.6418 92.2835C26.6418 91.7155 26.9898 91.3595 27.4978 91.3595C28.0018 91.3595 28.3498 91.7155 28.3498 92.2835C28.3498 92.8515 28.0018 93.2155 27.4978 93.2155C26.9898 93.2155 26.6418 92.8515 26.6418 92.2835ZM29.9024 92.5835C29.9024 92.1555 30.1024 92.0275 30.4344 92.0275H30.5824V91.4395C30.2744 91.4395 30.0424 91.5875 29.9024 91.8155V91.4715H29.3424V93.6875H29.9024V92.5835ZM31.9127 93.6875H32.4727V91.8715L33.2247 93.6875H33.6487L34.3967 91.8715V93.6875H34.9567V90.8955H34.3247L33.4367 92.9715L32.5487 90.8955H31.9127V93.6875ZM37.6504 92.5795C37.6504 91.8795 37.1504 91.4355 36.5104 91.4355C35.8704 91.4355 35.3704 91.8795 35.3704 92.5795C35.3704 93.2755 35.8544 93.7235 36.4944 93.7235C37.1384 93.7235 37.6504 93.2755 37.6504 92.5795ZM35.9384 92.5795C35.9384 92.1355 36.2064 91.9235 36.5024 91.9235C36.7984 91.9235 37.0744 92.1355 37.0744 92.5795C37.0744 93.0195 36.7904 93.2355 36.4944 93.2355C36.1944 93.2355 35.9384 93.0195 35.9384 92.5795ZM38.6212 92.5835C38.6212 92.1555 38.8212 92.0275 39.1532 92.0275H39.3012V91.4395C38.9932 91.4395 38.7612 91.5875 38.6212 91.8155V91.4715H38.0612V93.6875H38.6212V92.5835ZM40.6303 91.8955C40.9183 91.8955 41.1503 92.0795 41.1583 92.3715H40.1063C40.1503 92.0675 40.3623 91.8955 40.6303 91.8955ZM41.6823 92.9915H41.0783C41.0063 93.1395 40.8743 93.2595 40.6343 93.2595C40.3543 93.2595 40.1303 93.0755 40.1023 92.7475H41.7223C41.7343 92.6755 41.7383 92.6035 41.7383 92.5315C41.7383 91.8715 41.2863 91.4355 40.6463 91.4355C39.9903 91.4355 39.5343 91.8795 39.5343 92.5795C39.5343 93.2755 40.0023 93.7235 40.6463 93.7235C41.1943 93.7235 41.5623 93.3995 41.6823 92.9915ZM44.9282 90.8915V92.8115L43.6602 90.8915H43.1002V93.6875H43.6602V91.7715L44.9282 93.6875H45.4882V90.8915H44.9282ZM48.1336 91.4715H47.5696V92.6915C47.5696 93.0475 47.3776 93.2395 47.0736 93.2395C46.7776 93.2395 46.5816 93.0475 46.5816 92.6915V91.4715H46.0216V92.7715C46.0216 93.3795 46.3936 93.7155 46.9096 93.7155C47.1856 93.7155 47.4296 93.5955 47.5696 93.4075V93.6875H48.1336V91.4715ZM51.7862 93.6875H52.3462V92.3875C52.3462 91.7755 51.9702 91.4395 51.4382 91.4395C51.1142 91.4395 50.8222 91.6115 50.6782 91.8635C50.5262 91.5875 50.2422 91.4395 49.8982 91.4395C49.6222 91.4395 49.3862 91.5555 49.2462 91.7395V91.4715H48.6862V93.6875H49.2462V92.4635C49.2462 92.1115 49.4422 91.9275 49.7462 91.9275C50.0422 91.9275 50.2382 92.1115 50.2382 92.4635V93.6875H50.7982V92.4635C50.7982 92.1115 50.9942 91.9275 51.2942 91.9275C51.5902 91.9275 51.7862 92.1115 51.7862 92.4635V93.6875ZM53.4376 91.7955V90.7275H52.8776V93.6875H53.4376V93.3715C53.5736 93.5635 53.8216 93.7235 54.1696 93.7235C54.7376 93.7235 55.1816 93.2635 55.1816 92.5715C55.1816 91.8795 54.7376 91.4355 54.1696 91.4355C53.8336 91.4355 53.5736 91.5915 53.4376 91.7955ZM54.6096 92.5715C54.6096 92.9915 54.3256 93.2315 54.0216 93.2315C53.7216 93.2315 53.4376 92.9995 53.4376 92.5795C53.4376 92.1595 53.7216 91.9275 54.0216 91.9275C54.3256 91.9275 54.6096 92.1515 54.6096 92.5715ZM56.5405 91.8955C56.8285 91.8955 57.0605 92.0795 57.0685 92.3715H56.0165C56.0605 92.0675 56.2725 91.8955 56.5405 91.8955ZM57.5925 92.9915H56.9885C56.9165 93.1395 56.7845 93.2595 56.5445 93.2595C56.2645 93.2595 56.0405 93.0755 56.0125 92.7475H57.6325C57.6445 92.6755 57.6485 92.6035 57.6485 92.5315C57.6485 91.8715 57.1965 91.4355 56.5565 91.4355C55.9005 91.4355 55.4445 91.8795 55.4445 92.5795C55.4445 93.2755 55.9125 93.7235 56.5565 93.7235C57.1045 93.7235 57.4725 93.3995 57.5925 92.9915ZM58.6173 92.5835C58.6173 92.1555 58.8173 92.0275 59.1493 92.0275H59.2973V91.4395C58.9893 91.4395 58.7573 91.5875 58.6173 91.8155V91.4715H58.0573V93.6875H58.6173V92.5835ZM61.3944 93.0555C61.3784 92.2435 60.1504 92.4955 60.1504 92.0915C60.1504 91.9635 60.2584 91.8795 60.4664 91.8795C60.6864 91.8795 60.8224 91.9955 60.8384 92.1675H61.3744C61.3424 91.7275 61.0184 91.4355 60.4824 91.4355C59.9344 91.4355 59.6064 91.7315 59.6064 92.0995C59.6064 92.9115 60.8584 92.6595 60.8584 93.0555C60.8584 93.1835 60.7384 93.2835 60.5184 93.2835C60.2944 93.2835 60.1384 93.1555 60.1184 92.9875H59.5544C59.5784 93.3995 59.9664 93.7235 60.5224 93.7235C61.0624 93.7235 61.3944 93.4355 61.3944 93.0555ZM62.6593 91.3475H63.4033V93.6875H63.9633V91.3475H64.7073V90.8955H62.6593V91.3475ZM67.2558 92.5795C67.2558 91.8795 66.7558 91.4355 66.1158 91.4355C65.4758 91.4355 64.9758 91.8795 64.9758 92.5795C64.9758 93.2755 65.4598 93.7235 66.0998 93.7235C66.7438 93.7235 67.2558 93.2755 67.2558 92.5795ZM65.5438 92.5795C65.5438 92.1355 65.8118 91.9235 66.1078 91.9235C66.4038 91.9235 66.6798 92.1355 66.6798 92.5795C66.6798 93.0195 66.3958 93.2355 66.0998 93.2355C65.7998 93.2355 65.5438 93.0195 65.5438 92.5795ZM67.5226 92.5715C67.5226 93.2635 67.9706 93.7235 68.5346 93.7235C68.8826 93.7235 69.1346 93.5515 69.2666 93.3595V93.7035C69.2666 94.1155 69.0266 94.2915 68.7186 94.2915C68.4386 94.2915 68.2306 94.1595 68.1746 93.9595H67.6186C67.6746 94.4675 68.1106 94.7795 68.7346 94.7795C69.4626 94.7795 69.8306 94.3035 69.8306 93.7035V91.4715H69.2666V91.7875C69.1346 91.5955 68.8826 91.4355 68.5346 91.4355C67.9706 91.4355 67.5226 91.8795 67.5226 92.5715ZM69.2666 92.5795C69.2666 92.9995 68.9866 93.2315 68.6786 93.2315C68.3786 93.2315 68.0946 92.9915 68.0946 92.5715C68.0946 92.1515 68.3786 91.9275 68.6786 91.9275C68.9866 91.9275 69.2666 92.1595 69.2666 92.5795ZM71.3296 91.8955C71.6176 91.8955 71.8496 92.0795 71.8576 92.3715H70.8056C70.8496 92.0675 71.0616 91.8955 71.3296 91.8955ZM72.3816 92.9915H71.7776C71.7056 93.1395 71.5736 93.2595 71.3336 93.2595C71.0536 93.2595 70.8296 93.0755 70.8016 92.7475H72.4216C72.4336 92.6755 72.4376 92.6035 72.4376 92.5315C72.4376 91.8715 71.9856 91.4355 71.3456 91.4355C70.6896 91.4355 70.2336 91.8795 70.2336 92.5795C70.2336 93.2755 70.7016 93.7235 71.3456 93.7235C71.8936 93.7235 72.2616 93.3995 72.3816 92.9915ZM72.9343 92.9995C72.9343 93.5075 73.2183 93.6875 73.6423 93.6875H73.9943V93.2155H73.7343C73.5583 93.2155 73.4983 93.1515 73.4983 93.0035V91.9315H73.9943V91.4715H73.4983V90.9235H72.9343V91.4715H72.6703V91.9315H72.9343V92.9995ZM74.3971 93.6875H74.9571V92.4635C74.9571 92.1075 75.1531 91.9155 75.4571 91.9155C75.7531 91.9155 75.9491 92.1075 75.9491 92.4635V93.6875H76.5091V92.3875C76.5091 91.7755 76.1451 91.4395 75.6451 91.4395C75.3491 91.4395 75.1011 91.5595 74.9571 91.7475V90.7275H74.3971V93.6875ZM77.9936 91.8955C78.2816 91.8955 78.5136 92.0795 78.5216 92.3715H77.4696C77.5136 92.0675 77.7256 91.8955 77.9936 91.8955ZM79.0456 92.9915H78.4416C78.3696 93.1395 78.2376 93.2595 77.9976 93.2595C77.7176 93.2595 77.4936 93.0755 77.4656 92.7475H79.0856C79.0976 92.6755 79.1016 92.6035 79.1016 92.5315C79.1016 91.8715 78.6496 91.4355 78.0096 91.4355C77.3536 91.4355 76.8976 91.8795 76.8976 92.5795C76.8976 93.2755 77.3656 93.7235 78.0096 93.7235C78.5576 93.7235 78.9256 93.3995 79.0456 92.9915ZM80.0704 92.5835C80.0704 92.1555 80.2704 92.0275 80.6024 92.0275H80.7504V91.4395C80.4424 91.4395 80.2104 91.5875 80.0704 91.8155V91.4715H79.5104V93.6875H80.0704V92.5835ZM81.9327 91.3475H82.6767V93.6875H83.2367V91.3475H83.9807V90.8955H81.9327V91.3475ZM86.5293 92.5795C86.5293 91.8795 86.0293 91.4355 85.3893 91.4355C84.7493 91.4355 84.2493 91.8795 84.2493 92.5795C84.2493 93.2755 84.7333 93.7235 85.3733 93.7235C86.0173 93.7235 86.5293 93.2755 86.5293 92.5795ZM84.8173 92.5795C84.8173 92.1355 85.0853 91.9235 85.3813 91.9235C85.6773 91.9235 85.9533 92.1355 85.9533 92.5795C85.9533 93.0195 85.6693 93.2355 85.3733 93.2355C85.0733 93.2355 84.8173 93.0195 84.8173 92.5795ZM17.0143 99.6875H17.5743V98.5075H18.4663V98.0635H17.5743V97.3475H18.7383V96.8955H17.0143V99.6875ZM19.1354 99.6875H19.6954V97.4715H19.1354V99.6875ZM19.4194 97.2075C19.6154 97.2075 19.7634 97.0635 19.7634 96.8795C19.7634 96.6955 19.6154 96.5515 19.4194 96.5515C19.2194 96.5515 19.0754 96.6955 19.0754 96.8795C19.0754 97.0635 19.2194 97.2075 19.4194 97.2075ZM21.8007 99.6875H22.3607V98.3875C22.3607 97.7755 21.9927 97.4395 21.4767 97.4395C21.1927 97.4395 20.9527 97.5595 20.8087 97.7475V97.4715H20.2487V99.6875H20.8087V98.4635C20.8087 98.1075 21.0047 97.9155 21.3087 97.9155C21.6047 97.9155 21.8007 98.1075 21.8007 98.4635V99.6875ZM22.7492 98.5715C22.7492 99.2635 23.1972 99.7235 23.7612 99.7235C24.1092 99.7235 24.3572 99.5635 24.4892 99.3595V99.6875H25.0572V96.7275H24.4892V97.7795C24.3372 97.5715 24.0572 97.4355 23.7652 97.4355C23.1972 97.4355 22.7492 97.8795 22.7492 98.5715ZM24.4932 98.5795C24.4932 98.9995 24.2132 99.2315 23.9052 99.2315C23.6052 99.2315 23.3212 98.9915 23.3212 98.5715C23.3212 98.1515 23.6052 97.9275 23.9052 97.9275C24.2132 97.9275 24.4932 98.1595 24.4932 98.5795ZM26.4093 97.3475H27.1533V99.6875H27.7133V97.3475H28.4573V96.8955H26.4093V97.3475ZM28.8658 99.6875H29.4258V98.4635C29.4258 98.1075 29.6218 97.9155 29.9258 97.9155C30.2218 97.9155 30.4178 98.1075 30.4178 98.4635V99.6875H30.9778V98.3875C30.9778 97.7755 30.6138 97.4395 30.1138 97.4395C29.8178 97.4395 29.5698 97.5595 29.4258 97.7475V96.7275H28.8658V99.6875ZM32.4624 97.8955C32.7504 97.8955 32.9824 98.0795 32.9904 98.3715H31.9384C31.9824 98.0675 32.1944 97.8955 32.4624 97.8955ZM33.5144 98.9915H32.9104C32.8384 99.1395 32.7064 99.2595 32.4664 99.2595C32.1864 99.2595 31.9624 99.0755 31.9344 98.7475H33.5544C33.5664 98.6755 33.5704 98.6035 33.5704 98.5315C33.5704 97.8715 33.1184 97.4355 32.4784 97.4355C31.8224 97.4355 31.3664 97.8795 31.3664 98.5795C31.3664 99.2755 31.8344 99.7235 32.4784 99.7235C33.0264 99.7235 33.3944 99.3995 33.5144 98.9915ZM34.7843 97.3475H35.5283V99.6875H36.0883V97.3475H36.8323V96.8955H34.7843V97.3475ZM39.3808 98.5795C39.3808 97.8795 38.8808 97.4355 38.2408 97.4355C37.6008 97.4355 37.1008 97.8795 37.1008 98.5795C37.1008 99.2755 37.5848 99.7235 38.2248 99.7235C38.8688 99.7235 39.3808 99.2755 39.3808 98.5795ZM37.6688 98.5795C37.6688 98.1355 37.9368 97.9235 38.2328 97.9235C38.5288 97.9235 38.8048 98.1355 38.8048 98.5795C38.8048 99.0195 38.5208 99.2355 38.2248 99.2355C37.9248 99.2355 37.6688 99.0195 37.6688 98.5795ZM39.8796 98.9995C39.8796 99.5075 40.1636 99.6875 40.5876 99.6875H40.9396V99.2155H40.6796C40.5036 99.2155 40.4436 99.1515 40.4436 99.0035V97.9315H40.9396V97.4715H40.4436V96.9235H39.8796V97.4715H39.6156V97.9315H39.8796V98.9995ZM41.1984 98.5715C41.1984 99.2635 41.6464 99.7235 42.2064 99.7235C42.5584 99.7235 42.8104 99.5555 42.9424 99.3635V99.6875H43.5064V97.4715H42.9424V97.7875C42.8104 97.6035 42.5664 97.4355 42.2104 97.4355C41.6464 97.4355 41.1984 97.8795 41.1984 98.5715ZM42.9424 98.5795C42.9424 98.9995 42.6624 99.2315 42.3544 99.2315C42.0544 99.2315 41.7704 98.9915 41.7704 98.5715C41.7704 98.1515 42.0544 97.9275 42.3544 97.9275C42.6624 97.9275 42.9424 98.1595 42.9424 98.5795ZM44.0533 99.6875H44.6133V96.7275H44.0533V99.6875ZM48.0158 99.6875H48.6078L47.6038 96.8915H46.9518L45.9478 99.6875H46.5358L46.7198 99.1555H47.8318L48.0158 99.6875ZM47.6798 98.7075H46.8717L47.2758 97.5395L47.6798 98.7075ZM52.083 99.6875H52.643V98.3875C52.643 97.7755 52.267 97.4395 51.735 97.4395C51.411 97.4395 51.119 97.6115 50.975 97.8635C50.823 97.5875 50.539 97.4395 50.195 97.4395C49.919 97.4395 49.683 97.5555 49.543 97.7395V97.4715H48.983V99.6875H49.543V98.4635C49.543 98.1115 49.739 97.9275 50.043 97.9275C50.339 97.9275 50.535 98.1115 50.535 98.4635V99.6875H51.095V98.4635C51.095 98.1115 51.291 97.9275 51.591 97.9275C51.887 97.9275 52.083 98.1115 52.083 98.4635V99.6875ZM55.3144 98.5795C55.3144 97.8795 54.8144 97.4355 54.1744 97.4355C53.5344 97.4355 53.0344 97.8795 53.0344 98.5795C53.0344 99.2755 53.5184 99.7235 54.1584 99.7235C54.8024 99.7235 55.3144 99.2755 55.3144 98.5795ZM53.6024 98.5795C53.6024 98.1355 53.8704 97.9235 54.1664 97.9235C54.4624 97.9235 54.7384 98.1355 54.7384 98.5795C54.7384 99.0195 54.4544 99.2355 54.1584 99.2355C53.8584 99.2355 53.6024 99.0195 53.6024 98.5795ZM57.8172 97.4715H57.2532V98.6915C57.2532 99.0475 57.0612 99.2395 56.7572 99.2395C56.4612 99.2395 56.2652 99.0475 56.2652 98.6915V97.4715H55.7052V98.7715C55.7052 99.3795 56.0772 99.7155 56.5932 99.7155C56.8692 99.7155 57.1132 99.5955 57.2532 99.4075V99.6875H57.8172V97.4715ZM59.9218 99.6875H60.4818V98.3875C60.4818 97.7755 60.1137 97.4395 59.5978 97.4395C59.3138 97.4395 59.0738 97.5595 58.9298 97.7475V97.4715H58.3698V99.6875H58.9298V98.4635C58.9298 98.1075 59.1258 97.9155 59.4298 97.9155C59.7258 97.9155 59.9218 98.1075 59.9218 98.4635V99.6875ZM61.1023 98.9995C61.1023 99.5075 61.3863 99.6875 61.8103 99.6875H62.1623V99.2155H61.9023C61.7263 99.2155 61.6663 99.1515 61.6663 99.0035V97.9315H62.1623V97.4715H61.6663V96.9235H61.1023V97.4715H60.8383V97.9315H61.1023V98.9995ZM63.1531 99.3875C63.1531 99.2035 63.0091 99.0595 62.8131 99.0595C62.6091 99.0595 62.4651 99.2035 62.4651 99.3875C62.4651 99.5715 62.6091 99.7155 62.8131 99.7155C63.0091 99.7155 63.1531 99.5715 63.1531 99.3875ZM64.4093 97.3475H65.1533V99.6875H65.7133V97.3475H66.4573V96.8955H64.4093V97.3475ZM66.8658 99.6875H67.4258V98.4635C67.4258 98.1075 67.6218 97.9155 67.9258 97.9155C68.2218 97.9155 68.4178 98.1075 68.4178 98.4635V99.6875H68.9778V98.3875C68.9778 97.7755 68.6138 97.4395 68.1138 97.4395C67.8178 97.4395 67.5698 97.5595 67.4258 97.7475V96.7275H66.8658V99.6875ZM70.4624 97.8955C70.7504 97.8955 70.9824 98.0795 70.9904 98.3715H69.9384C69.9824 98.0675 70.1944 97.8955 70.4624 97.8955ZM71.5144 98.9915H70.9104C70.8384 99.1395 70.7064 99.2595 70.4664 99.2595C70.1864 99.2595 69.9624 99.0755 69.9344 98.7475H71.5544C71.5664 98.6755 71.5704 98.6035 71.5704 98.5315C71.5704 97.8715 71.1184 97.4355 70.4784 97.4355C69.8224 97.4355 69.3664 97.8795 69.3664 98.5795C69.3664 99.2755 69.8344 99.7235 70.4784 99.7235C71.0264 99.7235 71.3944 99.3995 71.5144 98.9915ZM74.4123 97.7635C74.4123 98.0155 74.2723 98.1795 73.9603 98.1795H73.4923V97.3595H73.9603C74.2723 97.3595 74.4123 97.5155 74.4123 97.7635ZM72.9323 96.8955V99.6875H73.4923V98.5995H73.7563L74.3723 99.6875H75.0203L74.3523 98.5555C74.8003 98.4355 74.9883 98.0915 74.9883 97.7515C74.9883 97.2835 74.6523 96.8955 73.9803 96.8955H72.9323ZM76.4468 97.8955C76.7348 97.8955 76.9668 98.0795 76.9748 98.3715H75.9228C75.9668 98.0675 76.1788 97.8955 76.4468 97.8955ZM77.4988 98.9915H76.8948C76.8228 99.1395 76.6908 99.2595 76.4508 99.2595C76.1708 99.2595 75.9468 99.0755 75.9188 98.7475H77.5388C77.5508 98.6755 77.5548 98.6035 77.5548 98.5315C77.5548 97.8715 77.1028 97.4355 76.4628 97.4355C75.8067 97.4355 75.3507 97.8795 75.3507 98.5795C75.3507 99.2755 75.8188 99.7235 76.4628 99.7235C77.0108 99.7235 77.3788 99.3995 77.4988 98.9915ZM79.6835 99.0555C79.6675 98.2435 78.4395 98.4955 78.4395 98.0915C78.4395 97.9635 78.5475 97.8795 78.7555 97.8795C78.9755 97.8795 79.1115 97.9955 79.1275 98.1675H79.6635C79.6315 97.7275 79.3075 97.4355 78.7715 97.4355C78.2235 97.4355 77.8955 97.7315 77.8955 98.0995C77.8955 98.9115 79.1475 98.6595 79.1475 99.0555C79.1475 99.1835 79.0275 99.2835 78.8075 99.2835C78.5835 99.2835 78.4275 99.1555 78.4075 98.9875H77.8435C77.8675 99.3995 78.2555 99.7235 78.8115 99.7235C79.3515 99.7235 79.6835 99.4355 79.6835 99.0555ZM82.2352 97.4715H81.6712V98.6915C81.6712 99.0475 81.4792 99.2395 81.1752 99.2395C80.8792 99.2395 80.6832 99.0475 80.6832 98.6915V97.4715H80.1232V98.7715C80.1232 99.3795 80.4952 99.7155 81.0112 99.7155C81.2872 99.7155 81.5312 99.5955 81.6712 99.4075V99.6875H82.2352V97.4715ZM82.7877 99.6875H83.3477V96.7275H82.7877V99.6875ZM83.989 98.9995C83.989 99.5075 84.273 99.6875 84.697 99.6875H85.049V99.2155H84.789C84.613 99.2155 84.553 99.1515 84.553 99.0035V97.9315H85.049V97.4715H84.553V96.9235H83.989V97.4715H83.725V97.9315H83.989V98.9995ZM89.1289 98.2835C89.1289 97.4475 88.4969 96.8555 87.7009 96.8555C86.9129 96.8555 86.2689 97.4475 86.2689 98.2835C86.2689 99.1235 86.9129 99.7155 87.7009 99.7155C88.4929 99.7155 89.1289 99.1235 89.1289 98.2835ZM86.8449 98.2835C86.8449 97.7155 87.1929 97.3595 87.7009 97.3595C88.2049 97.3595 88.5529 97.7155 88.5529 98.2835C88.5529 98.8515 88.2049 99.2155 87.7009 99.2155C87.1929 99.2155 86.8449 98.8515 86.8449 98.2835ZM89.6055 99.6875H90.1735V97.9315H90.5615V97.4715H90.1735V97.3795C90.1735 97.1315 90.2655 97.0435 90.5375 97.0515V96.5795C89.9135 96.5635 89.6055 96.8155 89.6055 97.3595V97.4715H89.3535V97.9315H89.6055V99.6875ZM18.9103 105.688H19.5023L18.4983 102.891H17.8463L16.8423 105.688H17.4303L17.6143 105.155H18.7263L18.9103 105.688ZM18.5743 104.707H17.7663L18.1703 103.539L18.5743 104.707ZM19.7336 104.571C19.7336 105.263 20.1816 105.724 20.7456 105.724C21.0936 105.724 21.3416 105.563 21.4736 105.359V105.688H22.0416V102.727H21.4736V103.779C21.3216 103.571 21.0416 103.435 20.7496 103.435C20.1816 103.435 19.7336 103.879 19.7336 104.571ZM21.4776 104.579C21.4776 104.999 21.1976 105.231 20.8896 105.231C20.5896 105.231 20.3056 104.991 20.3056 104.571C20.3056 104.151 20.5896 103.927 20.8896 103.927C21.1976 103.927 21.4776 104.159 21.4776 104.579ZM22.4445 104.571C22.4445 105.263 22.8925 105.724 23.4565 105.724C23.8045 105.724 24.0525 105.563 24.1845 105.359V105.688H24.7525V102.727H24.1845V103.779C24.0325 103.571 23.7525 103.435 23.4605 103.435C22.8925 103.435 22.4445 103.879 22.4445 104.571ZM24.1885 104.579C24.1885 104.999 23.9085 105.231 23.6005 105.231C23.3005 105.231 23.0165 104.991 23.0165 104.571C23.0165 104.151 23.3005 103.927 23.6005 103.927C23.9085 103.927 24.1885 104.159 24.1885 104.579ZM25.2994 105.688H25.8594V103.471H25.2994V105.688ZM25.5834 103.207C25.7794 103.207 25.9274 103.063 25.9274 102.879C25.9274 102.695 25.7794 102.551 25.5834 102.551C25.3834 102.551 25.2394 102.695 25.2394 102.879C25.2394 103.063 25.3834 103.207 25.5834 103.207ZM27.9647 105.688H28.5247V104.387C28.5247 103.775 28.1567 103.439 27.6407 103.439C27.3567 103.439 27.1167 103.559 26.9727 103.747V103.471H26.4127V105.688H26.9727V104.463C26.9727 104.107 27.1687 103.915 27.4727 103.915C27.7687 103.915 27.9647 104.107 27.9647 104.463V105.688ZM28.9132 104.571C28.9132 105.263 29.3613 105.724 29.9253 105.724C30.2733 105.724 30.5253 105.551 30.6573 105.359V105.704C30.6573 106.116 30.4173 106.292 30.1093 106.292C29.8293 106.292 29.6213 106.16 29.5653 105.96H29.0093C29.0653 106.468 29.5013 106.78 30.1253 106.78C30.8533 106.78 31.2213 106.304 31.2213 105.704V103.471H30.6573V103.787C30.5253 103.595 30.2733 103.435 29.9253 103.435C29.3613 103.435 28.9132 103.879 28.9132 104.571ZM30.6573 104.579C30.6573 104.999 30.3773 105.231 30.0693 105.231C29.7693 105.231 29.4853 104.991 29.4853 104.571C29.4853 104.151 29.7693 103.927 30.0693 103.927C30.3773 103.927 30.6573 104.159 30.6573 104.579ZM32.5733 103.347H33.3173V105.688H33.8773V103.347H34.6213V102.895H32.5733V103.347ZM35.4339 105.688H36.0419L36.4459 104.139L36.8499 105.688H37.4539L38.1019 103.471H37.5659L37.1739 105.155L36.7579 103.471H36.1659L35.7419 105.16L35.3499 103.471H34.7819L35.4339 105.688ZM40.5449 104.579C40.5449 103.879 40.0449 103.435 39.4049 103.435C38.7649 103.435 38.2649 103.879 38.2649 104.579C38.2649 105.275 38.7489 105.724 39.3889 105.724C40.0329 105.724 40.5449 105.275 40.5449 104.579ZM38.8329 104.579C38.8329 104.135 39.1009 103.923 39.3969 103.923C39.6929 103.923 39.9689 104.135 39.9689 104.579C39.9689 105.019 39.6849 105.235 39.3889 105.235C39.0889 105.235 38.8329 105.019 38.8329 104.579ZM44.6328 104.283C44.6328 103.447 44.0008 102.855 43.2048 102.855C42.4168 102.855 41.7728 103.447 41.7728 104.283C41.7728 105.123 42.4168 105.716 43.2048 105.716C43.9968 105.716 44.6328 105.123 44.6328 104.283ZM42.3488 104.283C42.3488 103.715 42.6968 103.359 43.2048 103.359C43.7088 103.359 44.0568 103.715 44.0568 104.283C44.0568 104.851 43.7088 105.215 43.2048 105.215C42.6968 105.215 42.3488 104.851 42.3488 104.283ZM45.6094 104.583C45.6094 104.155 45.8094 104.027 46.1414 104.027H46.2894V103.439C45.9814 103.439 45.7494 103.587 45.6094 103.815V103.471H45.0494V105.688H45.6094V104.583ZM47.6198 105.688H48.1798V103.871L48.9318 105.688H49.3558L50.1038 103.871V105.688H50.6638V102.895H50.0318L49.1438 104.971L48.2558 102.895H47.6198V105.688ZM53.3574 104.579C53.3574 103.879 52.8574 103.435 52.2174 103.435C51.5774 103.435 51.0774 103.879 51.0774 104.579C51.0774 105.275 51.5614 105.724 52.2014 105.724C52.8454 105.724 53.3574 105.275 53.3574 104.579ZM51.6454 104.579C51.6454 104.135 51.9134 103.923 52.2094 103.923C52.5054 103.923 52.7814 104.135 52.7814 104.579C52.7814 105.019 52.4974 105.235 52.2014 105.235C51.9014 105.235 51.6454 105.019 51.6454 104.579ZM54.3282 104.583C54.3282 104.155 54.5282 104.027 54.8602 104.027H55.0082V103.439C54.7002 103.439 54.4682 103.587 54.3282 103.815V103.471H53.7682V105.688H54.3282V104.583ZM56.3374 103.895C56.6254 103.895 56.8574 104.079 56.8654 104.371H55.8134C55.8574 104.067 56.0694 103.895 56.3374 103.895ZM57.3894 104.991H56.7854C56.7134 105.139 56.5814 105.259 56.3414 105.259C56.0614 105.259 55.8374 105.075 55.8094 104.747H57.4294C57.4414 104.675 57.4454 104.603 57.4454 104.531C57.4454 103.871 56.9934 103.435 56.3534 103.435C55.6974 103.435 55.2414 103.879 55.2414 104.579C55.2414 105.275 55.7094 105.724 56.3534 105.724C56.9014 105.724 57.2694 105.399 57.3894 104.991ZM60.6353 102.891V104.811L59.3673 102.891H58.8073V105.688H59.3673V103.771L60.6353 105.688H61.1953V102.891H60.6353ZM63.8407 103.471H63.2767V104.691C63.2767 105.047 63.0847 105.239 62.7807 105.239C62.4847 105.239 62.2887 105.047 62.2887 104.691V103.471H61.7287V104.771C61.7287 105.379 62.1007 105.716 62.6167 105.716C62.8927 105.716 63.1367 105.595 63.2767 105.407V105.688H63.8407V103.471ZM67.4932 105.688H68.0532V104.387C68.0532 103.775 67.6772 103.439 67.1452 103.439C66.8212 103.439 66.5292 103.611 66.3852 103.863C66.2332 103.587 65.9492 103.439 65.6052 103.439C65.3292 103.439 65.0932 103.555 64.9532 103.739V103.471H64.3932V105.688H64.9532V104.463C64.9532 104.111 65.1492 103.927 65.4532 103.927C65.7492 103.927 65.9452 104.111 65.9452 104.463V105.688H66.5052V104.463C66.5052 104.111 66.7012 103.927 67.0012 103.927C67.2972 103.927 67.4932 104.111 67.4932 104.463V105.688ZM69.1446 103.795V102.727H68.5846V105.688H69.1446V105.371C69.2806 105.563 69.5286 105.724 69.8766 105.724C70.4446 105.724 70.8886 105.263 70.8886 104.571C70.8886 103.879 70.4446 103.435 69.8766 103.435C69.5406 103.435 69.2806 103.591 69.1446 103.795ZM70.3166 104.571C70.3166 104.991 70.0326 105.231 69.7286 105.231C69.4286 105.231 69.1446 104.999 69.1446 104.579C69.1446 104.159 69.4286 103.927 69.7286 103.927C70.0326 103.927 70.3166 104.151 70.3166 104.571ZM72.2475 103.895C72.5355 103.895 72.7675 104.079 72.7755 104.371H71.7235C71.7675 104.067 71.9795 103.895 72.2475 103.895ZM73.2995 104.991H72.6955C72.6235 105.139 72.4915 105.259 72.2515 105.259C71.9715 105.259 71.7475 105.075 71.7195 104.747H73.3395C73.3515 104.675 73.3555 104.603 73.3555 104.531C73.3555 103.871 72.9035 103.435 72.2635 103.435C71.6075 103.435 71.1515 103.879 71.1515 104.579C71.1515 105.275 71.6195 105.724 72.2635 105.724C72.8115 105.724 73.1795 105.399 73.2995 104.991ZM74.3243 104.583C74.3243 104.155 74.5243 104.027 74.8563 104.027H75.0043V103.439C74.6963 103.439 74.4643 103.587 74.3243 103.815V103.471H73.7643V105.688H74.3243V104.583ZM77.1015 105.055C77.0855 104.243 75.8575 104.495 75.8575 104.091C75.8575 103.963 75.9655 103.879 76.1735 103.879C76.3935 103.879 76.5295 103.995 76.5455 104.167H77.0815C77.0495 103.727 76.7255 103.435 76.1895 103.435C75.6415 103.435 75.3135 103.731 75.3135 104.099C75.3135 104.911 76.5655 104.66 76.5655 105.055C76.5655 105.183 76.4455 105.283 76.2255 105.283C76.0015 105.283 75.8455 105.155 75.8255 104.987H75.2615C75.2855 105.399 75.6735 105.724 76.2295 105.724C76.7695 105.724 77.1015 105.435 77.1015 105.055ZM78.5143 105.688H79.0743V102.895H78.5143V105.688ZM81.3476 105.055C81.3316 104.243 80.1036 104.495 80.1036 104.091C80.1036 103.963 80.2116 103.879 80.4196 103.879C80.6396 103.879 80.7756 103.995 80.7916 104.167H81.3276C81.2956 103.727 80.9716 103.435 80.4356 103.435C79.8876 103.435 79.5596 103.731 79.5596 104.099C79.5596 104.911 80.8116 104.66 80.8116 105.055C80.8116 105.183 80.6916 105.283 80.4716 105.283C80.2476 105.283 80.0916 105.155 80.0716 104.987H79.5076C79.5316 105.399 79.9196 105.724 80.4756 105.724C81.0156 105.724 81.3476 105.435 81.3476 105.055ZM16.8783 110.287C16.8783 111.123 17.4903 111.712 18.2943 111.712C18.9143 111.712 19.4183 111.383 19.6063 110.807H18.9623C18.8303 111.079 18.5903 111.211 18.2903 111.211C17.8023 111.211 17.4543 110.851 17.4543 110.287C17.4543 109.719 17.8023 109.363 18.2903 109.363C18.5903 109.363 18.8303 109.495 18.9623 109.763H19.6063C19.4183 109.191 18.9143 108.859 18.2943 108.859C17.4903 108.859 16.8783 109.451 16.8783 110.287ZM19.9406 110.571C19.9406 111.263 20.3886 111.724 20.9486 111.724C21.3006 111.724 21.5526 111.556 21.6846 111.363V111.688H22.2486V109.471H21.6846V109.787C21.5526 109.603 21.3086 109.435 20.9526 109.435C20.3886 109.435 19.9406 109.879 19.9406 110.571ZM21.6846 110.579C21.6846 110.999 21.4046 111.231 21.0966 111.231C20.7966 111.231 20.5126 110.991 20.5126 110.571C20.5126 110.151 20.7966 109.927 21.0966 109.927C21.4046 109.927 21.6846 110.159 21.6846 110.579ZM22.7955 111.688H23.3555V108.727H22.7955V111.688ZM23.9088 111.688H24.4688V108.727H23.9088V111.688ZM25.9741 109.895C26.2621 109.895 26.4941 110.079 26.5021 110.371H25.4501C25.4941 110.067 25.7061 109.895 25.9741 109.895ZM27.0261 110.991H26.4221C26.3501 111.139 26.2181 111.259 25.9781 111.259C25.6981 111.259 25.4741 111.075 25.4461 110.747H27.0661C27.0781 110.675 27.0821 110.603 27.0821 110.531C27.0821 109.871 26.6301 109.435 25.9901 109.435C25.3341 109.435 24.8781 109.879 24.8781 110.579C24.8781 111.275 25.3461 111.724 25.9901 111.724C26.5381 111.724 26.9061 111.399 27.0261 110.991ZM27.3468 110.571C27.3468 111.263 27.7948 111.724 28.3588 111.724C28.7068 111.724 28.9548 111.563 29.0868 111.359V111.688H29.6548V108.727H29.0868V109.779C28.9348 109.571 28.6548 109.435 28.3628 109.435C27.7948 109.435 27.3468 109.879 27.3468 110.571ZM29.0908 110.579C29.0908 110.999 28.8108 111.231 28.5028 111.231C28.2028 111.231 27.9188 110.991 27.9188 110.571C27.9188 110.151 28.2028 109.927 28.5028 109.927C28.8108 109.927 29.0908 110.159 29.0908 110.579ZM31.0069 109.347H31.7509V111.688H32.3109V109.347H33.0549V108.895H31.0069V109.347ZM33.4635 111.688H34.0235V110.463C34.0235 110.107 34.2195 109.915 34.5235 109.915C34.8195 109.915 35.0155 110.107 35.0155 110.463V111.688H35.5755V110.387C35.5755 109.775 35.2115 109.439 34.7115 109.439C34.4155 109.439 34.1675 109.559 34.0235 109.747V108.727H33.4635V111.688ZM37.06 109.895C37.348 109.895 37.58 110.079 37.588 110.371H36.536C36.58 110.067 36.792 109.895 37.06 109.895ZM38.112 110.991H37.508C37.436 111.139 37.304 111.259 37.064 111.259C36.784 111.259 36.56 111.075 36.532 110.747H38.152C38.164 110.675 38.168 110.603 38.168 110.531C38.168 109.871 37.716 109.435 37.076 109.435C36.42 109.435 35.964 109.879 35.964 110.579C35.964 111.275 36.432 111.724 37.076 111.724C37.624 111.724 37.992 111.399 38.112 110.991ZM41.4819 110.879C41.4819 109.895 40.0499 110.207 40.0499 109.647C40.0499 109.419 40.2139 109.311 40.4339 109.319C40.6739 109.323 40.8219 109.467 40.8339 109.651H41.4499C41.4139 109.147 41.0219 108.855 40.4499 108.855C39.8739 108.855 39.4659 109.159 39.4659 109.663C39.4619 110.675 40.9019 110.311 40.9019 110.915C40.9019 111.115 40.7459 111.255 40.4819 111.255C40.2219 111.255 40.0739 111.107 40.0579 110.883H39.4579C39.4659 111.411 39.9139 111.716 40.4939 111.716C41.1299 111.716 41.4819 111.319 41.4819 110.879ZM44.0594 109.471H43.4954V110.691C43.4954 111.047 43.3034 111.239 42.9994 111.239C42.7034 111.239 42.5074 111.047 42.5074 110.691V109.471H41.9474V110.771C41.9474 111.379 42.3194 111.716 42.8354 111.716C43.1114 111.716 43.3554 111.595 43.4954 111.407V111.688H44.0594V109.471ZM47.7119 111.688H48.2719V110.387C48.2719 109.775 47.8959 109.439 47.3639 109.439C47.0399 109.439 46.7479 109.611 46.6039 109.863C46.4519 109.587 46.1679 109.439 45.8239 109.439C45.5479 109.439 45.3119 109.555 45.1719 109.739V109.471H44.6119V111.688H45.1719V110.463C45.1719 110.111 45.3679 109.927 45.6719 109.927C45.9679 109.927 46.1639 110.111 46.1639 110.463V111.688H46.7239V110.463C46.7239 110.111 46.9199 109.927 47.2199 109.927C47.5159 109.927 47.7119 110.111 47.7119 110.463V111.688ZM49.3913 111.387C49.3913 111.203 49.2473 111.059 49.0513 111.059C48.8473 111.059 48.7033 111.203 48.7033 111.387C48.7033 111.571 48.8473 111.716 49.0513 111.716C49.2473 111.716 49.3913 111.571 49.3913 111.387Z" fill="#FF9291"></path><path d="M107.345 226.116C107.345 236.289 96.4346 250.145 83.3846 250.145C70.3346 250.145 59.293 241.199 59.293 231.026C59.293 220.854 70.3346 210.102 83.3846 210.102C96.4346 210.102 107.345 215.944 107.345 226.116Z" fill="#C1DD70"></path><path d="M160.381 76.3371C156.477 76.3371 153.301 73.371 153.301 69.7251C153.301 67.8567 154.126 66.1117 155.582 64.8626C155.538 64.7874 155.496 64.7109 155.457 64.6332L155.232 64.1884C155.104 63.9353 155.187 63.6264 155.424 63.4712L155.841 63.1986C156.431 62.8134 157.097 62.578 157.789 62.5075C157.792 62.2549 157.86 62.0026 157.992 61.7733C158.26 61.3109 158.758 61.0234 159.293 61.0234C159.557 61.0234 159.817 61.0935 160.046 61.2261C160.623 61.56 161.098 62.0479 161.42 62.6289C161.784 62.5335 162.157 62.4852 162.531 62.4852C163.38 62.4852 164.206 62.7319 164.92 63.1986L165.337 63.4713C165.575 63.6265 165.657 63.9354 165.529 64.1885L165.304 64.6331C165.265 64.7107 165.224 64.7873 165.18 64.8625C166.636 66.1114 167.461 67.8566 167.461 69.7251C167.461 73.371 164.285 76.3371 160.381 76.3371Z" fill="#FFF3D9"></path><path d="M158.516 65.8038C157.584 65.5542 156.856 64.9251 156.453 64.1272C157.201 63.6382 158.146 63.4573 159.078 63.7069C160.009 63.9565 160.737 64.5858 161.14 65.3833C160.392 65.8724 159.447 66.0534 158.516 65.8038Z" fill="#079241"></path><path d="M162.254 65.7978C163.185 65.5482 163.913 64.919 164.317 64.1212C163.569 63.6322 162.623 63.4513 161.692 63.7008C160.761 63.9505 160.033 64.5797 159.629 65.3773C160.378 65.8664 161.322 66.0474 162.254 65.7978Z" fill="#079241"></path><path d="M166.359 69.724C166.359 72.7608 163.688 75.2227 160.392 75.2227C157.097 75.2227 154.426 72.7608 154.426 69.724C154.426 66.6872 157.097 64.2252 160.392 64.2252C163.688 64.2252 166.359 66.6872 166.359 69.724Z" fill="#E83636"></path><path d="M158.707 69.0309C158.707 69.3396 158.457 69.5898 158.148 69.5898C157.839 69.5898 157.589 69.3396 157.589 69.0309C157.589 68.7221 157.839 68.4719 158.148 68.4719C158.457 68.4719 158.707 68.7221 158.707 69.0309Z" fill="#750F0F"></path><path d="M163.184 69.0309C163.184 69.3396 162.933 69.5898 162.625 69.5898C162.316 69.5898 162.066 69.3396 162.066 69.0309C162.066 68.7221 162.316 68.4719 162.625 68.4719C162.933 68.4719 163.184 68.7221 163.184 69.0309Z" fill="#750F0F"></path><path d="M160.396 70.9626C159.63 70.9626 159.008 70.3401 159.008 69.5749V69.3146C159.008 69.1603 159.133 69.0352 159.287 69.0352H161.504C161.658 69.0352 161.783 69.1603 161.783 69.3146V69.5749C161.783 70.3401 161.161 70.9626 160.396 70.9626Z" fill="#750F0F"></path><path d="M160.385 70.082C160.098 70.082 159.845 70.2196 159.684 70.4318C159.875 70.5891 160.119 70.6836 160.385 70.6836C160.651 70.6836 160.895 70.5891 161.086 70.4318C160.925 70.2196 160.671 70.082 160.385 70.082Z" fill="#FF5571"></path><path d="M160.387 64.4082C160.387 63.5998 159.947 62.8958 159.295 62.5177" stroke="#079241" stroke-miterlimit="10" stroke-linecap="round" stroke-linejoin="round"></path><path d="M162.403 64.2953C163.31 64.6253 163.98 65.3155 164.312 66.1452C163.524 66.5673 162.567 66.6651 161.661 66.3355C160.755 66.0055 160.085 65.3152 159.752 64.4856C160.54 64.0635 161.497 63.9656 162.403 64.2953Z" fill="#3FA76C"></path><path d="M158.372 64.2907C157.466 64.6206 156.796 65.3108 156.463 66.1406C157.251 66.5626 158.208 66.6605 159.114 66.3308C160.021 66.0009 160.691 65.3105 161.023 64.4808C160.235 64.0589 159.278 63.9609 158.372 64.2907Z" fill="#3FA76C"></path><path fill-rule="evenodd" clip-rule="evenodd" d="M155.883 66.9834C155.626 67.3363 155.419 67.7176 155.268 68.118C155.238 68.1958 155.212 68.2746 155.187 68.3538C155.093 68.6479 155.256 68.9623 155.55 69.0558C155.844 69.1493 156.158 68.9864 156.252 68.6924C156.271 68.6324 156.291 68.5727 156.313 68.5138C156.313 68.5135 156.314 68.5131 156.314 68.5128C156.429 68.2055 156.589 67.9131 156.786 67.6423C156.968 67.393 156.913 67.0431 156.664 66.8613C156.415 66.6794 156.065 66.7342 155.883 66.9834Z" fill="white"></path><path d="M167.658 200.098C155.572 200.098 145.738 190.915 145.738 179.628C145.738 173.843 148.292 168.441 152.801 164.573C152.665 164.341 152.536 164.104 152.415 163.863L151.718 162.486C151.321 161.703 151.578 160.746 152.313 160.266L153.604 159.422C155.429 158.229 157.49 157.5 159.633 157.282C159.643 156.5 159.852 155.719 160.263 155.009C161.091 153.577 162.635 152.688 164.29 152.688C165.108 152.688 165.914 152.904 166.622 153.315C168.406 154.349 169.878 155.859 170.876 157.658C172.001 157.363 173.158 157.213 174.314 157.213C176.943 157.213 179.501 157.977 181.711 159.422L183.003 160.266C183.738 160.747 183.994 161.703 183.598 162.486L182.902 163.863C182.78 164.103 182.651 164.34 182.515 164.573C187.024 168.44 189.578 173.843 189.578 179.628C189.578 190.915 179.745 200.098 167.658 200.098Z" fill="#C1DD70"></path><path d="M161.885 167.491C159.002 166.719 156.748 164.771 155.499 162.301C157.815 160.787 160.741 160.227 163.625 160.999C166.509 161.772 168.762 163.72 170.012 166.19C167.695 167.704 164.77 168.264 161.885 167.491Z" fill="#079241"></path><path d="M173.463 167.474C176.347 166.701 178.6 164.753 179.85 162.283C177.534 160.769 174.607 160.209 171.724 160.982C168.84 161.754 166.587 163.703 165.337 166.172C167.654 167.686 170.579 168.246 173.463 167.474Z" fill="#079241"></path><path d="M186.168 179.625C186.168 189.026 177.897 196.648 167.694 196.648C157.492 196.648 149.222 189.026 149.222 179.625C149.222 170.223 157.492 162.6 167.694 162.6C177.897 162.6 186.168 170.223 186.168 179.625Z" fill="#E83636"></path><path d="M162.473 177.484C162.473 178.44 161.698 179.215 160.742 179.215C159.786 179.215 159.012 178.44 159.012 177.484C159.012 176.528 159.786 175.754 160.742 175.754C161.698 175.754 162.473 176.528 162.473 177.484Z" fill="#750F0F"></path><path d="M176.34 177.484C176.34 178.44 175.565 179.215 174.609 179.215C173.653 179.215 172.879 178.44 172.879 177.484C172.879 176.528 173.653 175.754 174.609 175.754C175.565 175.754 176.34 176.528 176.34 177.484Z" fill="#750F0F"></path><path d="M167.71 183.463C165.341 183.463 163.414 181.536 163.414 179.167V178.361C163.414 177.883 163.801 177.496 164.279 177.496H171.141C171.619 177.496 172.007 177.883 172.007 178.361V179.167C172.007 181.536 170.08 183.463 167.71 183.463Z" fill="#750F0F"></path><path d="M167.669 180.727C166.782 180.727 165.996 181.153 165.499 181.81C166.09 182.297 166.846 182.589 167.669 182.589C168.493 182.589 169.249 182.297 169.84 181.81C169.342 181.153 168.557 180.727 167.669 180.727Z" fill="#FF5571"></path><path d="M167.676 163.172C167.677 160.67 166.314 158.49 164.294 157.319" stroke="#079241" stroke-miterlimit="10" stroke-linecap="round" stroke-linejoin="round"></path><path d="M173.921 162.814C176.727 163.836 178.802 165.972 179.831 168.541C177.391 169.848 174.428 170.151 171.623 169.13C168.817 168.109 166.742 165.972 165.713 163.403C168.153 162.096 171.116 161.793 173.921 162.814Z" fill="#3FA76C"></path><path d="M161.44 162.799C158.635 163.821 156.56 165.958 155.53 168.527C157.97 169.833 160.934 170.136 163.739 169.116C166.545 168.094 168.62 165.957 169.649 163.388C167.209 162.082 164.246 161.778 161.44 162.799Z" fill="#3FA76C"></path><path fill-rule="evenodd" clip-rule="evenodd" d="M153.734 171.136C152.937 172.229 152.297 173.409 151.829 174.649C151.738 174.89 151.656 175.134 151.578 175.379C151.288 176.289 151.793 177.263 152.703 177.552C153.613 177.842 154.587 177.337 154.876 176.427C154.935 176.242 154.997 176.057 155.066 175.874C155.067 175.873 155.067 175.872 155.067 175.871C155.426 174.92 155.918 174.015 156.53 173.176C157.093 172.404 156.923 171.321 156.152 170.758C155.38 170.195 154.297 170.365 153.734 171.136Z" fill="white"></path><path d="M80.8132 255.545C51.3337 259.524 24.3258 240.365 20.6091 212.834C18.7044 198.725 23.1539 184.707 32.878 173.79C32.4702 173.267 32.0778 172.732 31.7019 172.185L29.5485 169.055C28.3238 167.275 28.6343 164.858 30.2693 163.444L33.1413 160.96C37.1999 157.45 41.9871 154.994 47.14 153.757C46.9069 151.846 47.1607 149.871 47.9291 148.005C49.4778 144.24 52.9492 141.561 56.9869 141.016C58.981 140.747 61.0187 141.01 62.8814 141.778C67.574 143.713 71.6593 146.912 74.6861 150.971C77.3345 149.88 80.1056 149.134 82.9252 148.754C89.337 147.888 95.8279 148.909 101.696 151.705L105.124 153.339C107.076 154.269 108.015 156.517 107.307 158.559L106.061 162.146C105.843 162.772 105.607 163.392 105.352 164.005C117.623 171.951 125.631 184.289 127.536 198.398C131.253 225.929 110.293 251.565 80.8132 255.545Z" fill="#C1DD70"></path><path d="M55.9991 177.912C48.7118 176.977 42.5741 172.967 38.7128 167.354C43.8642 162.899 50.8169 160.569 58.1042 161.504C65.394 162.44 71.5308 166.45 75.3906 172.061C70.2383 176.517 63.289 178.847 55.9991 177.912Z" fill="#079241"></path><path d="M84.2304 174.064C91.0089 171.23 95.8638 165.737 98.0976 159.301C91.95 156.371 84.6285 155.968 77.85 158.802C71.0699 161.637 66.2162 167.13 63.9817 173.565C70.1312 176.495 77.4504 176.898 84.2304 174.064Z" fill="#079241"></path><path d="M119.219 199.513C122.314 222.445 104.652 243.758 79.7664 247.118C54.8828 250.477 32.2005 234.61 29.1047 211.679C26.0089 188.747 43.6715 167.433 68.5552 164.073C93.4404 160.714 116.123 176.582 119.219 199.513Z" fill="#E83636"></path><path d="M60.7192 202.095C61.034 204.427 59.3998 206.571 57.0681 206.886C54.7365 207.201 52.5921 205.567 52.2774 203.235C51.9626 200.904 53.5968 198.759 55.9285 198.444C58.2601 198.13 60.4045 199.764 60.7192 202.095Z" fill="#750F0F"></path><path d="M94.5474 197.529C94.8621 199.861 93.2279 202.005 90.8963 202.32C88.5646 202.635 86.4203 201 86.1055 198.669C85.7907 196.337 87.4249 194.193 89.7566 193.878C92.0882 193.563 94.2326 195.197 94.5474 197.529Z" fill="#750F0F"></path><path d="M75.4594 214.952C69.681 215.733 64.346 211.667 63.5659 205.888L63.3005 203.923C63.1432 202.757 63.9603 201.685 65.1261 201.528L81.8629 199.268C83.0287 199.111 84.1009 199.928 84.2583 201.094L84.5236 203.059C85.3037 208.837 81.2379 214.172 75.4594 214.952Z" fill="#750F0F"></path><path d="M74.4642 208.293C72.3003 208.585 70.5239 209.883 69.5271 211.649C71.1275 212.642 73.0691 213.107 75.0775 212.836C77.0858 212.565 78.8347 211.602 80.1144 210.219C78.685 208.781 76.628 208.001 74.4642 208.293Z" fill="#FF5571"></path><path d="M68.7003 165.474C67.8772 159.369 63.8354 154.502 58.5233 152.312" stroke="#079241" stroke-miterlimit="10" stroke-linecap="round" stroke-linejoin="round"></path><path d="M83.8153 162.544C90.994 164.111 96.7592 168.64 100.116 174.567C94.5949 178.557 87.4668 180.272 80.2894 178.706C73.1089 177.139 67.3448 172.609 63.989 166.683C69.5098 162.693 76.6363 160.978 83.8153 162.544Z" fill="#3FA76C"></path><path d="M53.3616 166.621C46.8557 170.036 42.4976 175.932 40.8322 182.537C47.2142 184.92 54.5419 184.683 61.0471 181.27C67.5542 177.855 71.9115 171.959 73.5765 165.355C67.1945 162.971 59.8684 163.207 53.3616 166.621Z" fill="#3FA76C"></path><path fill-rule="evenodd" clip-rule="evenodd" d="M37.3212 189.488C35.7369 192.415 34.5639 195.506 33.8315 198.683C33.6888 199.3 33.5682 199.923 33.4591 200.547C33.0531 202.862 34.6036 205.071 36.9191 205.477C39.2346 205.883 41.4432 204.332 41.8493 202.017C41.9325 201.545 42.0219 201.074 42.1299 200.606C42.1312 200.604 42.1317 200.601 42.1322 200.598C42.6935 198.16 43.5967 195.79 44.8123 193.543C45.9316 191.475 45.1613 188.889 43.0943 187.77C41.0263 186.651 38.4398 187.421 37.3212 189.488Z" fill="white"></path><path d="M178.068 76.3371C174.164 76.3371 170.988 73.371 170.988 69.7251C170.988 67.8567 171.813 66.1117 173.269 64.8626C173.226 64.7874 173.184 64.7109 173.145 64.6332L172.92 64.1884C172.792 63.9353 172.874 63.6264 173.112 63.4712L173.529 63.1986C174.118 62.8134 174.784 62.578 175.476 62.5075C175.479 62.2549 175.547 62.0026 175.68 61.7733C175.947 61.3109 176.446 61.0234 176.98 61.0234C177.245 61.0234 177.505 61.0935 177.734 61.2261C178.31 61.56 178.785 62.0479 179.108 62.6289C179.471 62.5335 179.845 62.4852 180.218 62.4852C181.067 62.4852 181.893 62.7319 182.608 63.1986L183.025 63.4713C183.262 63.6265 183.345 63.9354 183.217 64.1885L182.992 64.6331C182.953 64.7107 182.911 64.7873 182.867 64.8625C184.324 66.1114 185.148 67.8566 185.148 69.7251C185.148 73.371 181.972 76.3371 178.068 76.3371Z" fill="#FFF3D9"></path><path d="M176.203 65.8038C175.272 65.5542 174.544 64.9251 174.14 64.1272C174.889 63.6382 175.834 63.4573 176.765 63.7069C177.697 63.9565 178.424 64.5858 178.828 65.3833C178.08 65.8724 177.135 66.0534 176.203 65.8038Z" fill="#079241"></path><path d="M179.941 65.7978C180.873 65.5482 181.601 64.919 182.004 64.1212C181.256 63.6322 180.311 63.4513 179.38 63.7008C178.448 63.9505 177.72 64.5797 177.317 65.3773C178.065 65.8664 179.01 66.0474 179.941 65.7978Z" fill="#079241"></path><path d="M184.047 69.724C184.047 72.7608 181.375 75.2227 178.08 75.2227C174.785 75.2227 172.113 72.7608 172.113 69.724C172.113 66.6872 174.785 64.2252 178.08 64.2252C181.375 64.2252 184.047 66.6872 184.047 69.724Z" fill="#E83636"></path><path d="M176.395 69.0309C176.395 69.3396 176.144 69.5898 175.836 69.5898C175.527 69.5898 175.277 69.3396 175.277 69.0309C175.277 68.7221 175.527 68.4719 175.836 68.4719C176.144 68.4719 176.395 68.7221 176.395 69.0309Z" fill="#750F0F"></path><path d="M180.875 69.0309C180.875 69.3396 180.625 69.5898 180.316 69.5898C180.007 69.5898 179.757 69.3396 179.757 69.0309C179.757 68.7221 180.007 68.4719 180.316 68.4719C180.625 68.4719 180.875 68.7221 180.875 69.0309Z" fill="#750F0F"></path><path d="M178.083 70.9626C177.318 70.9626 176.695 70.3401 176.695 69.5749V69.3146C176.695 69.1603 176.82 69.0352 176.975 69.0352H179.191C179.346 69.0352 179.471 69.1603 179.471 69.3146V69.5749C179.471 70.3401 178.848 70.9626 178.083 70.9626Z" fill="#750F0F"></path><path d="M178.072 70.082C177.786 70.082 177.532 70.2196 177.371 70.4318C177.562 70.5891 177.806 70.6836 178.072 70.6836C178.338 70.6836 178.583 70.5891 178.773 70.4318C178.613 70.2196 178.359 70.082 178.072 70.082Z" fill="#FF5571"></path><path d="M178.075 64.4082C178.075 63.5998 177.635 62.8958 176.982 62.5177" stroke="#079241" stroke-miterlimit="10" stroke-linecap="round" stroke-linejoin="round"></path><path d="M180.091 64.2953C180.997 64.6253 181.667 65.3155 182 66.1452C181.212 66.5673 180.255 66.6651 179.349 66.3355C178.442 66.0055 177.772 65.3152 177.44 64.4856C178.228 64.0635 179.185 63.9656 180.091 64.2953Z" fill="#3FA76C"></path><path d="M176.06 64.2907C175.153 64.6206 174.483 65.3108 174.151 66.1406C174.939 66.5626 175.896 66.6605 176.802 66.3308C177.708 66.0009 178.378 65.3105 178.711 64.4808C177.923 64.0589 176.966 63.9609 176.06 64.2907Z" fill="#3FA76C"></path><path fill-rule="evenodd" clip-rule="evenodd" d="M173.571 66.9834C173.313 67.3363 173.106 67.7176 172.955 68.118C172.926 68.1958 172.899 68.2746 172.874 68.3538C172.781 68.6479 172.943 68.9623 173.237 69.0558C173.531 69.1493 173.846 68.9864 173.939 68.6924C173.959 68.6324 173.978 68.5727 174.001 68.5138C174.001 68.5135 174.001 68.5131 174.001 68.5128C174.117 68.2055 174.276 67.9131 174.474 67.6423C174.655 67.393 174.601 67.0431 174.351 66.8613C174.102 66.6794 173.752 66.7342 173.571 66.9834Z" fill="white"></path><path d="M194.973 179.29C184.367 179.29 175.738 171.232 175.738 161.327C175.738 156.251 177.979 151.511 181.936 148.117C181.816 147.913 181.703 147.705 181.597 147.494L180.985 146.286C180.637 145.598 180.862 144.759 181.507 144.337L182.641 143.597C184.242 142.55 186.051 141.911 187.93 141.719C187.939 141.033 188.123 140.347 188.483 139.725C189.21 138.468 190.565 137.688 192.017 137.688C192.735 137.688 193.442 137.878 194.063 138.238C195.629 139.145 196.92 140.471 197.796 142.049C198.784 141.79 199.798 141.659 200.813 141.659C203.119 141.659 205.364 142.329 207.304 143.597L208.438 144.338C209.083 144.759 209.307 145.598 208.96 146.286L208.348 147.494C208.242 147.705 208.129 147.913 208.009 148.117C211.966 151.51 214.207 156.251 214.207 161.327C214.207 171.232 205.578 179.29 194.973 179.29Z" fill="#C1DD70"></path><path d="M189.906 150.679C187.376 150.001 185.399 148.292 184.302 146.124C186.335 144.796 188.903 144.304 191.433 144.982C193.964 145.66 195.941 147.37 197.037 149.537C195.004 150.865 192.438 151.357 189.906 150.679Z" fill="#079241"></path><path d="M200.067 150.665C202.597 149.987 204.574 148.278 205.67 146.11C203.638 144.782 201.07 144.29 198.54 144.968C196.009 145.646 194.032 147.356 192.936 149.523C194.969 150.851 197.536 151.343 200.067 150.665Z" fill="#079241"></path><path d="M211.215 161.324C211.215 169.574 203.957 176.262 195.004 176.262C186.052 176.262 178.795 169.574 178.795 161.324C178.795 153.074 186.052 146.385 195.004 146.385C203.957 146.385 211.215 153.074 211.215 161.324Z" fill="#E83636"></path><path d="M190.422 159.446C190.422 160.285 189.742 160.965 188.903 160.965C188.064 160.965 187.385 160.285 187.385 159.446C187.385 158.607 188.064 157.928 188.903 157.928C189.742 157.928 190.422 158.607 190.422 159.446Z" fill="#750F0F"></path><path d="M202.594 159.446C202.594 160.285 201.914 160.965 201.075 160.965C200.236 160.965 199.557 160.285 199.557 159.446C199.557 158.607 200.236 157.928 201.075 157.928C201.914 157.928 202.594 158.607 202.594 159.446Z" fill="#750F0F"></path><path d="M195.016 164.689C192.937 164.689 191.246 162.998 191.246 160.919V160.212C191.246 159.793 191.586 159.453 192.005 159.453H198.027C198.446 159.453 198.786 159.793 198.786 160.212V160.919C198.786 162.998 197.095 164.689 195.016 164.689Z" fill="#750F0F"></path><path d="M194.982 162.289C194.204 162.289 193.514 162.663 193.078 163.239C193.596 163.667 194.26 163.923 194.982 163.923C195.705 163.923 196.369 163.667 196.887 163.239C196.45 162.663 195.761 162.289 194.982 162.289Z" fill="#FF5571"></path><path d="M194.991 146.886C194.992 144.69 193.796 142.777 192.023 141.75" stroke="#079241" stroke-miterlimit="10" stroke-linecap="round" stroke-linejoin="round"></path><path d="M200.47 146.574C202.931 147.471 204.752 149.346 205.656 151.6C203.515 152.746 200.914 153.012 198.453 152.117C195.991 151.22 194.17 149.345 193.267 147.091C195.408 145.944 198.008 145.678 200.47 146.574Z" fill="#3FA76C"></path><path d="M189.516 146.563C187.055 147.459 185.234 149.334 184.33 151.588C186.471 152.735 189.072 153.001 191.533 152.105C193.995 151.209 195.816 149.333 196.719 147.079C194.578 145.933 191.978 145.667 189.516 146.563Z" fill="#3FA76C"></path><path fill-rule="evenodd" clip-rule="evenodd" d="M182.757 153.877C182.057 154.836 181.495 155.872 181.085 156.96C181.005 157.171 180.933 157.385 180.865 157.6C180.611 158.399 181.053 159.254 181.852 159.507C182.651 159.761 183.505 159.319 183.759 158.52C183.811 158.357 183.865 158.195 183.925 158.035C183.926 158.034 183.926 158.033 183.927 158.032C184.241 157.197 184.673 156.403 185.21 155.667C185.704 154.99 185.555 154.039 184.878 153.546C184.201 153.051 183.251 153.2 182.757 153.877Z" fill="white"></path><path d="M195.752 76.3371C191.848 76.3371 188.672 73.371 188.672 69.7251C188.672 67.8567 189.497 66.1117 190.953 64.8626C190.909 64.7874 190.868 64.7109 190.828 64.6332L190.603 64.1884C190.475 63.9353 190.558 63.6264 190.795 63.4712L191.213 63.1986C191.802 62.8134 192.468 62.578 193.16 62.5075C193.163 62.2549 193.231 62.0026 193.363 61.7733C193.631 61.3109 194.129 61.0234 194.664 61.0234C194.928 61.0234 195.189 61.0935 195.417 61.2261C195.994 61.56 196.469 62.0479 196.791 62.6289C197.155 62.5335 197.528 62.4852 197.902 62.4852C198.751 62.4852 199.577 62.7319 200.291 63.1986L200.708 63.4713C200.946 63.6265 201.029 63.9354 200.901 64.1885L200.676 64.6331C200.636 64.7107 200.595 64.7873 200.551 64.8625C202.007 66.1114 202.832 67.8566 202.832 69.7251C202.832 73.371 199.656 76.3371 195.752 76.3371Z" fill="#FFF3D9"></path><path d="M193.887 65.8038C192.955 65.5542 192.228 64.9251 191.824 64.1272C192.572 63.6382 193.517 63.4573 194.449 63.7069C195.38 63.9565 196.108 64.5858 196.512 65.3833C195.763 65.8724 194.818 66.0534 193.887 65.8038Z" fill="#079241"></path><path d="M197.625 65.7978C198.556 65.5482 199.284 64.919 199.688 64.1212C198.94 63.6322 197.995 63.4513 197.063 63.7008C196.132 63.9505 195.404 64.5797 195 65.3773C195.749 65.8664 196.693 66.0474 197.625 65.7978Z" fill="#079241"></path><path d="M201.73 69.724C201.73 72.7608 199.059 75.2227 195.764 75.2227C192.468 75.2227 189.797 72.7608 189.797 69.724C189.797 66.6872 192.468 64.2252 195.764 64.2252C199.059 64.2252 201.73 66.6872 201.73 69.724Z" fill="#E83636"></path><path d="M194.078 69.0309C194.078 69.3396 193.828 69.5898 193.519 69.5898C193.21 69.5898 192.96 69.3396 192.96 69.0309C192.96 68.7221 193.21 68.4719 193.519 68.4719C193.828 68.4719 194.078 68.7221 194.078 69.0309Z" fill="#750F0F"></path><path d="M198.559 69.0309C198.559 69.3396 198.308 69.5898 198 69.5898C197.691 69.5898 197.441 69.3396 197.441 69.0309C197.441 68.7221 197.691 68.4719 198 68.4719C198.308 68.4719 198.559 68.7221 198.559 69.0309Z" fill="#750F0F"></path><path d="M195.767 70.9626C195.001 70.9626 194.379 70.3401 194.379 69.5749V69.3146C194.379 69.1603 194.504 69.0352 194.658 69.0352H196.875C197.029 69.0352 197.154 69.1603 197.154 69.3146V69.5749C197.154 70.3401 196.532 70.9626 195.767 70.9626Z" fill="#750F0F"></path><path d="M195.756 70.082C195.469 70.082 195.216 70.2196 195.055 70.4318C195.246 70.5891 195.49 70.6836 195.756 70.6836C196.022 70.6836 196.266 70.5891 196.457 70.4318C196.296 70.2196 196.043 70.082 195.756 70.082Z" fill="#FF5571"></path><path d="M195.758 64.4082C195.758 63.5998 195.318 62.8958 194.666 62.5177" stroke="#079241" stroke-miterlimit="10" stroke-linecap="round" stroke-linejoin="round"></path><path d="M197.775 64.2953C198.681 64.6253 199.351 65.3155 199.683 66.1452C198.895 66.5673 197.938 66.6651 197.032 66.3355C196.126 66.0055 195.456 65.3152 195.123 64.4856C195.911 64.0635 196.868 63.9656 197.775 64.2953Z" fill="#3FA76C"></path><path d="M193.743 64.2907C192.837 64.6206 192.167 65.3108 191.834 66.1406C192.622 66.5626 193.58 66.6605 194.486 66.3308C195.392 66.0009 196.062 65.3105 196.395 64.4808C195.606 64.0589 194.649 63.9609 193.743 64.2907Z" fill="#3FA76C"></path><path fill-rule="evenodd" clip-rule="evenodd" d="M191.254 66.9834C190.997 67.3363 190.79 67.7176 190.639 68.118C190.609 68.1958 190.583 68.2746 190.558 68.3538C190.464 68.6479 190.627 68.9623 190.921 69.0558C191.215 69.1493 191.53 68.9864 191.623 68.6924C191.642 68.6324 191.662 68.5727 191.684 68.5138C191.685 68.5135 191.685 68.5131 191.685 68.5128C191.801 68.2055 191.96 67.9131 192.157 67.6423C192.339 67.393 192.284 67.0431 192.035 66.8613C191.786 66.6794 191.436 66.7342 191.254 66.9834Z" fill="white"></path><path d="M197.192 207.564C185.862 207.564 176.645 198.956 176.645 188.375C176.645 182.953 179.038 177.888 183.265 174.263C183.138 174.045 183.017 173.823 182.903 173.597L182.25 172.306C181.878 171.572 182.118 170.675 182.808 170.225L184.018 169.434C185.729 168.316 187.661 167.633 189.669 167.428C189.678 166.695 189.875 165.963 190.26 165.297C191.036 163.955 192.483 163.121 194.035 163.121C194.801 163.121 195.557 163.324 196.221 163.709C197.894 164.678 199.273 166.094 200.208 167.78C201.264 167.504 202.348 167.363 203.431 167.363C205.896 167.363 208.294 168.079 210.366 169.434L211.577 170.225C212.266 170.676 212.506 171.572 212.135 172.307L211.482 173.597C211.367 173.822 211.247 174.045 211.119 174.263C215.346 177.887 217.74 182.952 217.74 188.375C217.74 198.956 208.522 207.564 197.192 207.564Z" fill="#C1DD70"></path><path d="M191.783 176.998C189.08 176.274 186.967 174.448 185.796 172.133C187.967 170.714 190.71 170.188 193.413 170.913C196.117 171.637 198.229 173.463 199.4 175.778C197.228 177.198 194.487 177.723 191.783 176.998Z" fill="#079241"></path><path d="M202.634 176.982C205.337 176.258 207.45 174.432 208.621 172.116C206.45 170.697 203.707 170.172 201.004 170.896C198.3 171.621 196.188 173.447 195.017 175.762C197.189 177.181 199.931 177.706 202.634 176.982Z" fill="#079241"></path><path d="M214.543 188.37C214.543 197.183 206.79 204.328 197.226 204.328C187.662 204.328 179.909 197.183 179.909 188.37C179.909 179.556 187.662 172.411 197.226 172.411C206.79 172.411 214.543 179.556 214.543 188.37Z" fill="#E83636"></path><path d="M192.332 186.366C192.332 187.262 191.606 187.988 190.71 187.988C189.814 187.988 189.088 187.262 189.088 186.366C189.088 185.47 189.814 184.744 190.71 184.744C191.606 184.744 192.332 185.47 192.332 186.366Z" fill="#750F0F"></path><path d="M205.332 186.366C205.332 187.262 204.606 187.988 203.71 187.988C202.814 187.988 202.088 187.262 202.088 186.366C202.088 185.47 202.814 184.744 203.71 184.744C204.606 184.744 205.332 185.47 205.332 186.366Z" fill="#750F0F"></path><path d="M197.242 191.969C195.021 191.969 193.215 190.162 193.215 187.941V187.186C193.215 186.738 193.578 186.375 194.026 186.375H200.458C200.907 186.375 201.27 186.738 201.27 187.186V187.941C201.27 190.162 199.463 191.969 197.242 191.969Z" fill="#750F0F"></path><path d="M197.204 189.406C196.372 189.406 195.635 189.806 195.169 190.421C195.723 190.878 196.432 191.152 197.204 191.152C197.976 191.152 198.685 190.878 199.238 190.421C198.772 189.806 198.035 189.406 197.204 189.406Z" fill="#FF5571"></path><path d="M197.21 172.949C197.21 170.602 195.933 168.559 194.039 167.462" stroke="#079241" stroke-miterlimit="10" stroke-linecap="round" stroke-linejoin="round"></path><path d="M203.066 172.616C205.696 173.573 207.641 175.576 208.606 177.984C206.319 179.209 203.541 179.493 200.912 178.536C198.281 177.579 196.336 175.575 195.372 173.168C197.659 171.943 200.436 171.659 203.066 172.616Z" fill="#3FA76C"></path><path d="M191.363 172.599C188.733 173.557 186.788 175.56 185.823 177.968C188.11 179.193 190.888 179.477 193.517 178.52C196.147 177.563 198.093 175.559 199.058 173.151C196.77 171.927 193.993 171.642 191.363 172.599Z" fill="#3FA76C"></path><path fill-rule="evenodd" clip-rule="evenodd" d="M184.141 180.416C183.394 181.44 182.793 182.547 182.355 183.709C182.27 183.935 182.193 184.163 182.119 184.393C181.848 185.247 182.321 186.159 183.174 186.431C184.028 186.702 184.94 186.229 185.211 185.376C185.267 185.202 185.325 185.029 185.389 184.858C185.39 184.857 185.39 184.856 185.391 184.855C185.727 183.963 186.188 183.114 186.762 182.328C187.29 181.605 187.131 180.589 186.407 180.062C185.684 179.534 184.668 179.693 184.141 180.416Z" fill="white"></path><path d="M208.334 70.5859H211.059V69.9759H208.334V70.5859ZM208.334 69.3859H211.059V68.7759H208.334V69.3859Z" fill="black"></path><path d="M187.409 103.632V104.602H186.464V105.212H187.409V106.182H188.069V105.212H189.014V104.602H188.069V103.632H187.409Z" fill="black"></path><path d="M208.334 105.473H211.059V104.863H208.334V105.473ZM208.334 104.273H211.059V103.663H208.334V104.273Z" fill="black"></path><path d="M147.609 111.909C143.82 111.909 140.738 108.827 140.738 105.038C140.738 103.304 141.387 101.648 142.564 100.376C143.307 99.5725 144.214 98.9672 145.223 98.5951C145.162 98.4856 145.114 98.3677 145.081 98.2434C144.976 97.8509 145.031 97.4418 145.234 97.0912C145.505 96.6241 146.009 96.3337 146.549 96.3337C146.687 96.3337 146.824 96.3526 146.956 96.3895C147.104 96.1351 147.285 95.8997 147.491 95.6932C148.14 95.0447 149.002 94.6875 149.92 94.6875C150.126 94.6875 150.334 94.7062 150.537 94.7431L150.906 94.8103C151.129 94.8508 151.303 95.0248 151.343 95.2469L151.41 95.6164C151.612 96.7265 151.257 97.8651 150.46 98.6621C150.431 98.6913 150.402 98.7198 150.372 98.7477C151.215 99.1181 151.979 99.6575 152.62 100.34C153.819 101.617 154.479 103.286 154.479 105.038C154.479 108.827 151.397 111.909 147.609 111.909Z" fill="#FFF3D9"></path><path d="M148.262 96.457C147.695 97.024 147.478 97.8083 147.612 98.5416C148.345 98.675 149.13 98.4587 149.696 97.8919C150.263 97.3249 150.48 96.5406 150.346 95.8072C149.613 95.6738 148.828 95.8901 148.262 96.457Z" fill="#34A62A"></path><path d="M153.398 105.035C153.398 108.23 150.808 110.82 147.613 110.82C144.418 110.82 141.827 108.23 141.827 105.035C141.827 101.84 144.418 99.2495 147.613 99.2495C150.808 99.2495 153.398 101.84 153.398 105.035Z" fill="#ED8026"></path><path d="M147.612 99.6857C147.613 98.898 147.184 98.2119 146.548 97.8436" stroke="#683B11" stroke-miterlimit="10" stroke-linecap="round" stroke-linejoin="round"></path><path d="M145.973 104.377C145.973 104.678 145.729 104.922 145.428 104.922C145.127 104.922 144.883 104.678 144.883 104.377C144.883 104.076 145.127 103.833 145.428 103.833C145.729 103.833 145.973 104.076 145.973 104.377Z" fill="#783A07"></path><path d="M150.336 104.377C150.336 104.678 150.092 104.922 149.791 104.922C149.49 104.922 149.247 104.678 149.247 104.377C149.247 104.076 149.49 103.833 149.791 103.833C150.092 103.833 150.336 104.076 150.336 104.377Z" fill="#783A07"></path><path d="M147.622 106.249C146.876 106.249 146.27 105.643 146.27 104.897V104.643C146.27 104.493 146.391 104.371 146.542 104.371H148.702C148.852 104.371 148.974 104.493 148.974 104.643V104.897C148.974 105.643 148.367 106.249 147.622 106.249Z" fill="#783A07"></path><path d="M147.61 105.387C147.331 105.387 147.083 105.521 146.927 105.728C147.113 105.881 147.351 105.973 147.61 105.973C147.869 105.973 148.107 105.881 148.293 105.728C148.136 105.521 147.889 105.387 147.61 105.387Z" fill="#FF5571"></path><path fill-rule="evenodd" clip-rule="evenodd" d="M144.978 100.511C144.53 100.772 144.118 101.099 143.758 101.488C143.554 101.708 143.567 102.053 143.788 102.257C144.009 102.461 144.354 102.448 144.558 102.227C144.843 101.919 145.171 101.66 145.526 101.453C145.786 101.301 145.874 100.968 145.723 100.708C145.572 100.448 145.238 100.36 144.978 100.511Z" fill="white"></path><path d="M178.609 111.909C174.82 111.909 171.738 108.827 171.738 105.038C171.738 103.304 172.387 101.648 173.564 100.376C174.307 99.5725 175.214 98.9672 176.223 98.5951C176.162 98.4856 176.114 98.3677 176.081 98.2434C175.976 97.8509 176.031 97.4418 176.234 97.0912C176.505 96.6241 177.009 96.3337 177.549 96.3337C177.687 96.3337 177.824 96.3526 177.956 96.3895C178.104 96.1351 178.285 95.8997 178.491 95.6932C179.14 95.0447 180.002 94.6875 180.92 94.6875C181.126 94.6875 181.334 94.7062 181.537 94.7431L181.906 94.8103C182.129 94.8508 182.303 95.0248 182.343 95.2469L182.41 95.6164C182.612 96.7265 182.257 97.8651 181.46 98.6621C181.431 98.6913 181.402 98.7198 181.372 98.7477C182.215 99.1181 182.979 99.6575 183.62 100.34C184.819 101.617 185.479 103.286 185.479 105.038C185.479 108.827 182.397 111.909 178.609 111.909Z" fill="#FFF3D9"></path><path d="M179.262 96.457C178.695 97.024 178.478 97.8083 178.612 98.5416C179.345 98.675 180.13 98.4587 180.696 97.8919C181.263 97.3249 181.48 96.5406 181.346 95.8072C180.613 95.6738 179.828 95.8901 179.262 96.457Z" fill="#34A62A"></path><path d="M184.398 105.035C184.398 108.23 181.808 110.82 178.613 110.82C175.418 110.82 172.827 108.23 172.827 105.035C172.827 101.84 175.418 99.2495 178.613 99.2495C181.808 99.2495 184.398 101.84 184.398 105.035Z" fill="#ED8026"></path><path d="M178.612 99.6857C178.613 98.898 178.184 98.2119 177.548 97.8436" stroke="#683B11" stroke-miterlimit="10" stroke-linecap="round" stroke-linejoin="round"></path><path d="M176.973 104.377C176.973 104.678 176.729 104.922 176.428 104.922C176.127 104.922 175.883 104.678 175.883 104.377C175.883 104.076 176.127 103.833 176.428 103.833C176.729 103.833 176.973 104.076 176.973 104.377Z" fill="#783A07"></path><path d="M181.336 104.377C181.336 104.678 181.092 104.922 180.791 104.922C180.49 104.922 180.247 104.678 180.247 104.377C180.247 104.076 180.49 103.833 180.791 103.833C181.092 103.833 181.336 104.076 181.336 104.377Z" fill="#783A07"></path><path d="M178.622 106.249C177.876 106.249 177.27 105.643 177.27 104.897V104.643C177.27 104.493 177.391 104.371 177.542 104.371H179.702C179.852 104.371 179.974 104.493 179.974 104.643V104.897C179.974 105.643 179.367 106.249 178.622 106.249Z" fill="#783A07"></path><path d="M178.61 105.387C178.331 105.387 178.083 105.521 177.927 105.728C178.113 105.881 178.351 105.973 178.61 105.973C178.869 105.973 179.107 105.881 179.293 105.728C179.136 105.521 178.889 105.387 178.61 105.387Z" fill="#FF5571"></path><path fill-rule="evenodd" clip-rule="evenodd" d="M175.978 100.511C175.53 100.772 175.118 101.099 174.758 101.488C174.554 101.708 174.567 102.053 174.788 102.257C175.009 102.461 175.354 102.448 175.558 102.227C175.843 101.919 176.171 101.66 176.526 101.453C176.786 101.301 176.874 100.968 176.723 100.708C176.572 100.448 176.238 100.36 175.978 100.511Z" fill="white"></path><path d="M163.609 111.909C159.82 111.909 156.738 108.827 156.738 105.038C156.738 103.304 157.387 101.648 158.564 100.376C159.307 99.5725 160.214 98.9672 161.223 98.5951C161.162 98.4856 161.114 98.3677 161.081 98.2434C160.976 97.8509 161.031 97.4418 161.234 97.0912C161.505 96.6241 162.009 96.3337 162.549 96.3337C162.687 96.3337 162.824 96.3526 162.956 96.3895C163.104 96.1351 163.285 95.8997 163.491 95.6932C164.14 95.0447 165.002 94.6875 165.92 94.6875C166.126 94.6875 166.334 94.7062 166.537 94.7431L166.906 94.8103C167.129 94.8508 167.303 95.0248 167.343 95.2469L167.41 95.6164C167.612 96.7265 167.257 97.8651 166.46 98.6621C166.431 98.6913 166.402 98.7198 166.372 98.7477C167.215 99.1181 167.979 99.6575 168.62 100.34C169.819 101.617 170.479 103.286 170.479 105.038C170.479 108.827 167.397 111.909 163.609 111.909Z" fill="#FFF3D9"></path><path d="M164.262 96.457C163.695 97.024 163.478 97.8083 163.612 98.5416C164.345 98.675 165.13 98.4587 165.696 97.8919C166.263 97.3249 166.48 96.5406 166.346 95.8072C165.613 95.6738 164.828 95.8901 164.262 96.457Z" fill="#34A62A"></path><path d="M169.398 105.035C169.398 108.23 166.808 110.82 163.613 110.82C160.418 110.82 157.827 108.23 157.827 105.035C157.827 101.84 160.418 99.2495 163.613 99.2495C166.808 99.2495 169.398 101.84 169.398 105.035Z" fill="#ED8026"></path><path d="M163.612 99.6857C163.613 98.898 163.184 98.2119 162.548 97.8436" stroke="#683B11" stroke-miterlimit="10" stroke-linecap="round" stroke-linejoin="round"></path><path d="M161.973 104.377C161.973 104.678 161.729 104.922 161.428 104.922C161.127 104.922 160.883 104.678 160.883 104.377C160.883 104.076 161.127 103.833 161.428 103.833C161.729 103.833 161.973 104.076 161.973 104.377Z" fill="#783A07"></path><path d="M166.336 104.377C166.336 104.678 166.092 104.922 165.791 104.922C165.49 104.922 165.247 104.678 165.247 104.377C165.247 104.076 165.49 103.833 165.791 103.833C166.092 103.833 166.336 104.076 166.336 104.377Z" fill="#783A07"></path><path d="M163.622 106.249C162.876 106.249 162.27 105.643 162.27 104.897V104.643C162.27 104.493 162.391 104.371 162.542 104.371H164.702C164.852 104.371 164.974 104.493 164.974 104.643V104.897C164.974 105.643 164.367 106.249 163.622 106.249Z" fill="#783A07"></path><path d="M163.61 105.387C163.331 105.387 163.083 105.521 162.927 105.728C163.113 105.881 163.351 105.973 163.61 105.973C163.869 105.973 164.107 105.881 164.293 105.728C164.136 105.521 163.889 105.387 163.61 105.387Z" fill="#FF5571"></path><path fill-rule="evenodd" clip-rule="evenodd" d="M160.978 100.511C160.53 100.772 160.118 101.099 159.758 101.488C159.554 101.708 159.567 102.053 159.788 102.257C160.009 102.461 160.354 102.448 160.558 102.227C160.843 101.919 161.171 101.66 161.526 101.453C161.786 101.301 161.874 100.968 161.723 100.708C161.572 100.448 161.238 100.36 160.978 100.511Z" fill="white"></path><path d="M198.402 111.909C194.613 111.909 191.531 108.827 191.531 105.038C191.531 103.304 192.18 101.648 193.356 100.376C194.1 99.5725 195.007 98.9672 196.016 98.5951C195.955 98.4856 195.907 98.3677 195.874 98.2434C195.769 97.8509 195.824 97.4418 196.027 97.0912C196.298 96.6241 196.801 96.3337 197.342 96.3337C197.48 96.3337 197.617 96.3526 197.749 96.3895C197.897 96.1351 198.078 95.8997 198.284 95.6932C198.933 95.0447 199.795 94.6875 200.713 94.6875C200.919 94.6875 201.127 94.7062 201.33 94.7431L201.699 94.8103C201.922 94.8508 202.096 95.0248 202.136 95.2469L202.203 95.6164C202.405 96.7265 202.05 97.8651 201.253 98.6621C201.224 98.6913 201.194 98.7198 201.165 98.7477C202.008 99.1181 202.772 99.6575 203.413 100.34C204.612 101.617 205.272 103.286 205.272 105.038C205.272 108.827 202.19 111.909 198.402 111.909Z" fill="#FFF3D9"></path><path d="M199.055 96.457C198.488 97.024 198.271 97.8083 198.405 98.5416C199.138 98.675 199.923 98.4587 200.489 97.8919C201.056 97.3249 201.273 96.5406 201.139 95.8072C200.406 95.6738 199.621 95.8901 199.055 96.457Z" fill="#34A62A"></path><path d="M204.191 105.035C204.191 108.23 201.601 110.82 198.406 110.82C195.21 110.82 192.62 108.23 192.62 105.035C192.62 101.84 195.21 99.2495 198.406 99.2495C201.601 99.2495 204.191 101.84 204.191 105.035Z" fill="#ED8026"></path><path d="M198.405 99.6857C198.405 98.898 197.977 98.2119 197.341 97.8436" stroke="#683B11" stroke-miterlimit="10" stroke-linecap="round" stroke-linejoin="round"></path><path d="M196.766 104.377C196.766 104.678 196.522 104.922 196.221 104.922C195.92 104.922 195.676 104.678 195.676 104.377C195.676 104.076 195.92 103.833 196.221 103.833C196.522 103.833 196.766 104.076 196.766 104.377Z" fill="#783A07"></path><path d="M201.129 104.377C201.129 104.678 200.885 104.922 200.584 104.922C200.283 104.922 200.04 104.678 200.04 104.377C200.04 104.076 200.283 103.833 200.584 103.833C200.885 103.833 201.129 104.076 201.129 104.377Z" fill="#783A07"></path><path d="M198.415 106.249C197.669 106.249 197.062 105.643 197.062 104.897V104.643C197.062 104.493 197.184 104.371 197.335 104.371H199.495C199.645 104.371 199.767 104.493 199.767 104.643V104.897C199.767 105.643 199.16 106.249 198.415 106.249Z" fill="#783A07"></path><path d="M198.403 105.387C198.124 105.387 197.876 105.521 197.72 105.728C197.906 105.881 198.144 105.973 198.403 105.973C198.662 105.973 198.9 105.881 199.086 105.728C198.929 105.521 198.682 105.387 198.403 105.387Z" fill="#FF5571"></path><path fill-rule="evenodd" clip-rule="evenodd" d="M195.771 100.511C195.323 100.772 194.911 101.099 194.551 101.488C194.347 101.708 194.36 102.053 194.581 102.257C194.802 102.461 195.147 102.448 195.351 102.227C195.636 101.919 195.964 101.66 196.319 101.453C196.579 101.301 196.667 100.968 196.516 100.708C196.364 100.448 196.031 100.36 195.771 100.511Z" fill="white"></path><path d="M217.493 68.3347H218.452C218.487 68.0127 218.69 67.7047 219.166 67.7047C219.614 67.7047 219.859 67.9427 219.859 68.3417C219.859 68.8457 219.439 69.0067 218.865 69.0067H218.662V69.8117H218.865C219.593 69.8117 219.957 70.0217 219.957 70.5957C219.957 71.0017 219.705 71.3097 219.215 71.3097C218.69 71.3097 218.396 70.9947 218.375 70.5537H217.423C217.465 71.6247 218.228 72.1288 219.236 72.1288C220.307 72.1288 220.895 71.5127 220.895 70.6797C220.895 69.9867 220.552 69.5667 220.034 69.4057V69.3777C220.405 69.2517 220.804 68.8597 220.804 68.2227C220.804 67.4667 220.244 66.8717 219.194 66.8717C218.214 66.8717 217.542 67.3897 217.493 68.3347Z" fill="black"></path></svg>