<svg xmlns="http://www.w3.org/2000/svg" width="40" height="40" viewBox="0 0 40 40" fill="none">
    <path fill-rule="evenodd" clip-rule="evenodd"
        d="M11.8472 8.97185C9.62215 8.97185 7.81836 7.16805 7.81836 4.94295C7.81836 2.71786 9.62215 0.914062 11.8472 0.914062C14.0723 0.914062 15.8761 2.71786 15.8761 4.94295C15.8761 7.16805 14.0723 8.97185 11.8472 8.97185ZM14.4136 13.7916C14.4136 11.6932 12.7126 9.99219 10.6142 9.99219C8.51589 9.99219 6.81484 11.6932 6.81484 13.7916V22.7205C6.38943 22.8355 6.07644 23.2242 6.07644 23.6859V28.8754C6.07644 29.4277 6.52415 29.8754 7.07644 29.8754H8.58362V36.9724C8.58362 38.1405 9.53054 39.0874 10.6986 39.0874C11.8667 39.0874 12.8136 38.1405 12.8136 36.9724V29.8754H16.0386C16.5909 29.8754 17.0386 29.4277 17.0386 28.8754V23.6859C17.0386 23.1337 16.5909 22.6859 16.0386 22.6859H14.4136V19.2554L14.7271 19.6154L19.0498 21.2878C19.8584 21.6006 20.7711 21.2335 21.1378 20.4479C21.4994 19.6734 21.1731 18.752 20.4047 18.3776L17.0119 16.7244L14.4136 13.9749V13.7916Z"
        fill="#EA5757"></path>
    <path fill-rule="evenodd" clip-rule="evenodd"
        d="M32.1844 4.94295C32.1844 7.16805 30.3806 8.97185 28.1555 8.97185C25.9304 8.97185 24.1266 7.16805 24.1266 4.94295C24.1266 2.71786 25.9304 0.914062 28.1555 0.914062C30.3806 0.914062 32.1844 2.71786 32.1844 4.94295ZM25.5891 13.7916C25.5891 11.6932 27.2902 9.99219 29.3885 9.99219C31.4869 9.99219 33.1879 11.6932 33.1879 13.7916V22.6016H33.2716C33.8238 22.6016 34.2716 23.0493 34.2716 23.6016V28.3414C34.2716 28.8937 33.8238 29.3414 33.2716 29.3414H31.4192V36.9724C31.4192 38.1405 30.4722 39.0874 29.3041 39.0874C28.1361 39.0874 27.1891 38.1405 27.1891 36.9724V29.3414H25.3454C24.7931 29.3414 24.3454 28.8937 24.3454 28.3414V23.6016C24.3454 23.0493 24.7931 22.6016 25.3454 22.6016H25.5891V19.2554L25.2757 19.6154L20.9164 21.302C20.1284 21.6068 19.239 21.2491 18.8816 20.4835C18.5108 19.6892 18.8454 18.7443 19.6334 18.3604L22.9909 16.7244L25.5891 13.9749V13.7916Z"
        fill="#1B53F3"></path>
</svg>