<svg xmlns="http://www.w3.org/2000/svg" width="40" height="40" viewBox="0 0 40 40" fill="none">
    <path fill-rule="evenodd" clip-rule="evenodd"
        d="M28.0117 24.8516C28.0117 20.3688 24.3845 16.7416 19.909 16.7416C15.4262 16.7416 11.799 20.3688 11.799 24.8516L19.909 24.8516H28.0117Z"
        fill="#1B53F4"></path>
    <path
        d="M19.9041 16.1792C22.2695 16.1792 24.187 14.2617 24.187 11.8963C24.187 9.53083 22.2695 7.61328 19.9041 7.61328C17.5386 7.61328 15.6211 9.53083 15.6211 11.8963C15.6211 14.2617 17.5386 16.1792 19.9041 16.1792Z"
        fill="#1B53F4"></path>
    <path fill-rule="evenodd" clip-rule="evenodd"
        d="M18.798 21.4244C19.5366 21.4244 20.1352 20.8257 20.1352 20.0872C20.1352 19.3487 19.5366 18.75 18.798 18.75C18.0595 18.75 17.4609 19.3487 17.4609 20.0872C17.4609 20.3703 17.5488 20.6329 17.699 20.849L16.5078 23.7127L17.0786 24.0045L18.6864 21.4198C18.7232 21.4228 18.7605 21.4244 18.798 21.4244Z"
        fill="#EE835C"></path>
    <rect x="7.58594" y="22.8984" width="24.6359" height="2.84105" fill="#EE835C"></rect>
    <path d="M10.4219 24.8516H29.389L26.7892 39.0071H12.728L10.4219 24.8516Z" fill="#EE835C"></path>
    <path fill-rule="evenodd" clip-rule="evenodd"
        d="M34.2509 2.83391C34.2509 1.89714 33.4945 1.13672 32.5577 1.13672H26.2637C25.3281 1.13672 24.5689 1.89714 24.5689 2.83391V6.22035C24.5689 6.68677 24.5273 9.80281 24.5273 9.80281C24.5273 9.80281 25.7455 8.431 26.2637 7.91754H32.5577C33.4945 7.91754 34.2509 7.15712 34.2509 6.22035V2.83391Z"
        fill="#EE835C"></path>
    <path fill-rule="evenodd" clip-rule="evenodd"
        d="M26.3819 3.93171H30.5587C30.7329 3.93171 30.8702 3.79437 30.8702 3.62012C30.8702 3.44587 30.7329 3.30859 30.5587 3.30859H26.3819C26.2129 3.30859 26.0703 3.44587 26.0703 3.62012C26.0703 3.79437 26.2129 3.93171 26.3819 3.93171Z"
        fill="white"></path>
    <path fill-rule="evenodd" clip-rule="evenodd"
        d="M26.3825 6.11584H32.329C32.5019 6.11584 32.6448 5.97297 32.6448 5.80006C32.6448 5.62715 32.5019 5.48438 32.329 5.48438H26.3825C26.2096 5.48438 26.0742 5.62715 26.0742 5.80006C26.0742 5.97297 26.2096 6.11584 26.3825 6.11584Z"
        fill="white"></path>
</svg>