<svg xmlns="http://www.w3.org/2000/svg" xmlns:xlink="http://www.w3.org/1999/xlink" width="88"
    height="64.68" viewBox="0 0 88 64.68">
    <defs>
        <clipPath id="b">
            <rect width="88" height="64.68"></rect>
        </clipPath>
    </defs>
    <g id="a" clip-path="url(#b)">
        <g transform="translate(19.465)">
            <path
                d="M8.756,6.569a2.988,2.988,0,0,1,2.3,1.5V4.238h.508V10.49h.7v.776h-.623l.623,5.678H4.637l.623-5.678H4.637V10.49h.685V4.238H5.83V8.106A2.991,2.991,0,0,1,8.248,6.56V.021h.508ZM41.7,6.55a2.988,2.988,0,0,1,2.3,1.5V4.219h.51v6.25h.7v.778H44.59l.621,5.678H37.585l.621-5.678h-.621v-.778h.683V4.219h.508V8.087a2.992,2.992,0,0,1,2.418-1.546V0H41.7Z"
                transform="translate(-0.208)" fill="#821010" fill-rule="evenodd"></path>
            <path
                d="M26.611,24.763h1.881v.66A11.061,11.061,0,0,1,31,26.734a12.711,12.711,0,0,1,3.977,3.718h.344V25.971h-.679V24.744h.749V22.01h-.57V20.6l.389-2.355h.719l.271,1.885h.749l.508-2.168h7.674l.719,2.463h1.238l.239-2.042h.57l.48,2.45v1.1H47.9V24.6h.719v1.446H47.9V37.137h1.17v.817H47.96V48.408h-4.9V42.615h-2.8l-.079,5.794H33.591V42.271H30.411v6.138H26.754V42.172H23.242v6.236H19.535V42.271H16.311v6.138H9.44V42.615H6.731v5.794H1.155V37.954H0v-.817H1.217V26.046H.468V24.6h.749V21.928h-.5v-1.1l.5-2.45H1.81l.25,2.042H3.746L4.5,17.957h7.6l.532,2.168H13.4l.282-1.885h.749l.406,2.355V22.01h-.593v2.734h.781v1.227h-.709v4.543h.534l0-.062h.188a13.649,13.649,0,0,1,6.389-5.029v-.66h1.932v-.836a1.425,1.425,0,0,1,1.17-1.41V18.6h.754v3.9a1.415,1.415,0,0,1,.905.415,1.442,1.442,0,0,1,.418,1.014Z"
                transform="translate(0 -0.807)" fill="#df4f4f" fill-rule="evenodd"></path>
            <path d="M48.018,50.156H1.18V66.705H48.018Z" transform="translate(-0.053 -2.253)"
                fill="#df4f4f"></path>
            <path d="M48.471,64.3H.266v3.264h48.2Z" transform="translate(-0.012 -2.889)"
                fill="#821010"></path>
            <path d="M31.466,61.156l-.013-3.805a1.713,1.713,0,0,1,3.378-.011l.012,3.816Z"
                transform="translate(-1.413 -2.512)" fill="#fff"></path>
            <path d="M24.392,61.156l-.013-3.805a1.713,1.713,0,0,1,3.378-.011l.012,3.816Z"
                transform="translate(-1.095 -2.512)" fill="#fff"></path>
            <path
                d="M17.052,61.156l-.013-3.805a1.579,1.579,0,0,1,1.685-1.433,1.579,1.579,0,0,1,1.692,1.422l.012,3.816Z"
                transform="translate(-0.765 -2.512)" fill="#fff"></path>
            <path
                d="M6.763,61.156,6.75,57.351a1.579,1.579,0,0,1,1.685-1.433,1.579,1.579,0,0,1,1.692,1.422l.012,3.816Z"
                transform="translate(-0.303 -2.512)" fill="#fff"></path>
            <path d="M42.017,61.156,42,57.351a1.713,1.713,0,0,1,3.378-.011l.012,3.816Z"
                transform="translate(-1.887 -2.512)" fill="#fff"></path>
            <path d="M49.07,53.57H0v1.139H49.07Z" transform="translate(0 -2.407)" fill="#cce1ff"></path>
            <path d="M49.07,37.871H0V39.01H49.07Z" transform="translate(0 -1.701)" fill="#cce1ff"></path>
            <path d="M9.634,32.336H7.078v2.985H9.634Z" transform="translate(-0.318 -1.453)"
                fill="#fff"></path>
            <path d="M44.8,32.336H42v2.985H44.8Z" transform="translate(-1.887 -1.453)" fill="#fff"></path>
            <path d="M24.137,32.336h-1.2v2.985h1.2Z" transform="translate(-1.03 -1.453)" fill="#fff"></path>
            <path d="M26.492,32.336h-1.2v2.985h1.2Z" transform="translate(-1.136 -1.453)"
                fill="#fff"></path>
            <path d="M29.113,32.336h-1.2v2.985h1.2Z" transform="translate(-1.254 -1.453)"
                fill="#fff"></path>
        </g>
    </g>
</svg>