<svg xmlns="http://www.w3.org/2000/svg" width="8" height="29" viewBox="0 0 8 29" fill="none"><path d="M3.64645 28.3536C3.84171 28.5488 4.15829 28.5488 4.35355 28.3536L7.53553 25.1716C7.7308 24.9763 7.7308 24.6597 7.53553 24.4645C7.34027 24.2692 7.02369 24.2692 6.82843 24.4645L4 27.2929L1.17157 24.4645C0.97631 24.2692 0.659727 24.2692 0.464465 24.4645C0.269203 24.6597 0.269203 24.9763 0.464465 25.1716L3.64645 28.3536ZM3.5 -2.18557e-08L3.5 1L4.5 1L4.5 2.18557e-08L3.5 -2.18557e-08ZM3.5 3L3.5 5L4.5 5L4.5 3L3.5 3ZM3.5 7L3.5 9L4.5 9L4.5 7L3.5 7ZM3.5 11L3.5 13L4.5 13L4.5 11L3.5 11ZM3.5 15L3.5 17L4.5 17L4.5 15L3.5 15ZM3.5 19L3.5 21L4.5 21L4.5 19L3.5 19ZM3.5 23L3.5 25L4.5 25L4.5 23L3.5 23ZM3.5 27L3.5 28L4.5 28L4.5 27L3.5 27Z" fill="#DF4F4F" fill-opacity="0.5"></path></svg>