<svg xmlns="http://www.w3.org/2000/svg" width="40" height="40" viewBox="0 0 40 40" fill="none">
    <path
        d="M2.05078 16.5259C2.05078 16.2088 2.20484 15.9114 2.46389 15.7286L19.4255 3.75478C19.7712 3.51071 20.2332 3.51071 20.5789 3.75478L37.5405 15.7286C37.7996 15.9114 37.9536 16.2088 37.9536 16.5259C37.9536 17.0648 37.5167 17.5018 36.9777 17.5018H3.02673C2.48773 17.5018 2.05078 17.0648 2.05078 16.5259Z"
        fill="#1A52F3"></path>
    <rect x="5.85547" y="13.2461" width="27.664" height="25.2878" fill="#1A52F3"></rect>
    <path fill-rule="evenodd" clip-rule="evenodd"
        d="M11.0449 17.8719C11.0449 17.8719 16.2901 19.6156 18.937 24.0429C21.5839 28.4702 20.637 33.9159 20.637 33.9159C20.637 33.9159 15.3922 32.172 12.7453 27.7447C10.0984 23.3174 11.0449 17.8719 11.0449 17.8719Z"
        fill="#46CB5C"></path>
    <path fill-rule="evenodd" clip-rule="evenodd"
        d="M27.9638 22.5257C27.9638 22.5257 28.9341 26.0886 27.4504 29.1988C25.9667 32.309 22.587 33.7967 22.587 33.7967C22.587 33.7967 21.617 30.234 23.1007 27.1238C24.5844 24.0136 27.9638 22.5257 27.9638 22.5257Z"
        fill="#46CB5C"></path>
    <path fill-rule="evenodd" clip-rule="evenodd"
        d="M13.9188 5.35014C13.9188 5.03322 13.6559 4.78516 13.3472 4.78516H7.8489C7.54026 4.78516 7.27734 5.03322 7.27734 5.35014C7.27734 7.01739 7.27734 11.8263 7.27734 13.4935C7.27734 13.8105 7.54026 14.0585 7.8489 14.0585H13.3472C13.6559 14.0585 13.9188 13.8105 13.9188 13.4935C13.9188 11.8263 13.9188 7.01739 13.9188 5.35014Z"
        fill="#1A52F3"></path>
</svg>