<svg xmlns="http://www.w3.org/2000/svg" width="354" height="175" viewBox="0 0 354 175" fill="none"><path d="M287.508 144.691C281.641 144.691 275.955 143.789 270.539 141.983V138.644C275.955 140.539 281.732 141.532 287.508 141.532C315.941 141.532 339.048 118.425 339.048 89.9922C339.048 61.5594 315.941 38.4522 287.508 38.4522C281.641 38.4522 275.955 39.4451 270.539 41.3406V38.0008C276.045 36.1956 281.732 35.293 287.508 35.293C317.656 35.293 342.208 59.8444 342.208 89.9922C342.208 120.14 317.656 144.691 287.508 144.691Z" fill="#A1DAEB"></path><path d="M334.624 89.9903C334.624 116.166 313.322 137.468 287.146 137.468C260.88 137.468 239.668 116.166 239.668 89.9903C239.668 85.0258 240.48 80.1516 241.834 75.6385C242.195 74.6456 242.556 73.5625 242.917 72.5696C243.73 70.5838 244.542 68.6883 245.625 66.883C253.749 52.3507 269.274 42.4219 287.056 42.4219H287.146C296.895 42.4219 306.011 45.4006 313.503 50.4553C323.702 57.3152 331.104 67.9662 333.631 80.4224C334.263 83.5816 334.624 86.7408 334.624 89.9903Z" fill="#A1DAEB"></path><path d="M289.042 32.8516H284.168V165.177H289.042V32.8516Z" fill="#A1DAEB"></path><path d="M274.961 166.622C274.961 164.636 276.586 163.012 278.571 163.012H303.213C305.199 163.012 306.824 164.636 306.824 166.622C306.824 168.608 305.199 170.233 303.213 170.233H278.571C276.586 170.323 274.961 168.698 274.961 166.622Z" fill="#A1DAEB"></path><path d="M326.5 104.523C326.229 104.614 325.958 104.884 325.778 105.155C324.875 106.419 323.973 107.683 323.07 108.946C322.709 109.488 322.348 109.939 322.077 110.571C321.716 111.293 321.536 112.015 321.445 112.737C321.445 113.008 321.445 113.279 321.626 113.459C321.897 113.73 322.348 113.73 322.619 113.55C323.16 113.279 323.521 112.737 323.882 112.196C324.153 111.654 324.334 111.022 324.605 110.481C325.146 109.488 325.868 108.766 326.5 107.863C326.951 107.231 327.222 106.599 327.312 105.787C327.403 105.336 327.312 104.253 326.5 104.523Z" fill="#C9E4FF"></path><path d="M289.845 51.6305C289.484 51.6305 289.033 51.5402 288.672 51.7207C288.582 51.811 288.491 51.9915 288.401 52.0818C288.221 52.2623 288.311 52.5331 288.401 52.7136C288.582 52.8941 288.762 52.9844 289.033 53.1649C289.665 53.4357 290.297 53.5259 291.019 53.3454C291.651 53.1649 292.192 52.8039 292.373 52.172C292.373 52.0817 292.463 52.0817 292.373 51.9915C292.192 51.4499 290.297 51.6305 289.845 51.6305Z" fill="#C9E4FF"></path><path d="M298.431 56.6823C298.16 56.5017 297.799 56.5017 297.529 56.6823C297.258 56.8628 296.987 57.1336 296.806 57.4044C296.355 57.9459 295.723 58.4875 295.543 59.1194C295.362 59.7512 295.633 60.4733 295.904 61.1052C295.994 61.2857 296.084 61.2857 296.175 61.4662C296.355 61.5564 296.355 62.0078 296.536 62.098C297.438 62.3688 298.431 62.098 299.424 62.098C300.056 62.098 300.778 62.1883 301.32 61.9175C301.5 61.8272 301.59 61.6467 301.681 61.4662C301.771 61.1954 301.771 60.7441 301.59 60.4733C301.41 60.2928 301.049 60.022 300.778 59.9318C300.507 59.8415 300.056 59.8415 299.875 59.6609C299.514 59.2096 299.605 58.4875 299.334 57.946C299.244 57.6752 298.792 57.6751 298.702 57.4044C298.702 57.1336 298.702 56.7725 298.431 56.6823Z" fill="#C9E4FF"></path><path d="M333.628 80.511C333.538 80.511 333.538 80.511 333.448 80.511C333.358 80.511 333.087 80.4208 333.087 80.511C332.997 80.6013 333.087 80.8721 333.087 81.0526C333.177 81.8649 333.177 82.6773 332.906 83.4897C332.726 84.2118 332.455 84.9339 331.913 85.5657C331.011 86.5586 330.108 87.6418 329.296 88.6347C329.025 88.9055 328.664 89.2665 328.303 89.2665C327.852 89.2665 327.581 88.7249 327.31 88.3639C326.498 87.0099 326.046 85.3852 325.505 83.941C324.963 82.4065 324.241 81.0526 323.429 79.6986C323.429 79.6986 323.429 79.6987 323.429 79.6084C323.429 79.5181 323.429 79.5181 323.429 79.4279C323.429 79.3376 323.429 79.1571 323.338 79.0668C323.338 79.0668 323.338 79.0668 323.248 78.9766C323.158 78.8863 323.068 79.0668 322.977 79.0668C322.797 79.0668 322.526 79.0668 322.526 79.2473C322.526 79.4279 322.797 79.6084 322.887 79.6986C323.338 80.6915 323.699 81.6844 324.061 82.6773C324.241 83.1286 324.422 83.6702 324.602 84.1215C325.144 85.5657 325.866 87.0099 326.407 88.5444C326.678 89.2665 326.949 89.8983 327.49 90.3496C328.213 90.1691 328.935 90.4399 329.747 90.4399C329.928 90.4399 330.198 90.2594 330.379 90.3496C330.65 90.5301 330.469 90.8912 330.469 91.2522C330.289 92.5159 329.657 93.5991 328.844 94.6823C328.032 95.6752 327.22 96.668 326.678 97.8415C326.046 99.2857 325.956 100.82 325.866 102.445C325.685 104.07 325.234 105.514 324.422 106.868C323.88 107.77 323.068 108.492 322.165 109.124C321.262 109.756 320.45 110.478 319.728 111.2C319.638 111.291 319.547 111.381 319.457 111.471C318.103 112.825 317.201 114.45 316.027 115.984C314.854 117.609 313.319 119.053 311.334 119.414C310.702 119.504 309.889 119.504 309.619 118.873C309.438 118.602 309.619 118.331 309.709 117.97C309.799 116.706 310.16 115.443 310.16 114.179C310.16 112.825 309.799 111.381 309.619 110.027C309.348 108.583 309.257 107.319 309.799 105.965C310.25 104.972 310.882 103.979 310.972 102.896C311.153 101.091 309.618 99.6467 309.438 97.8415C309.348 96.9388 309.709 96.0362 309.619 95.1336C309.438 94.1407 308.355 93.4186 307.272 93.238C305.918 92.9673 304.564 93.5088 303.3 94.1407C302.307 94.592 301.314 95.1335 300.231 95.3141C299.148 95.4946 298.065 95.3141 296.982 95.1336C296.621 95.1336 296.26 95.1336 295.899 94.953C295.447 94.7725 294.996 94.6823 294.725 94.3212C293.732 93.3283 293.01 91.9744 292.559 90.6205C292.108 89.2665 292.198 87.8223 292.378 86.3781C292.559 84.9339 292.92 83.6702 293.552 82.3163C294.093 80.9623 294.725 79.6987 295.718 78.7058C296.711 77.7129 297.794 76.72 299.058 76.0881C300.321 75.4563 301.766 75.2758 303.21 75.0953C304.474 74.9147 305.737 74.5537 306.911 74.5537C308.535 74.5537 310.341 74.8245 311.785 75.6368C312.236 75.9076 312.597 76.2686 313.048 76.3589C314.493 76.6297 315.756 74.8245 317.201 75.1855C317.832 75.366 318.193 76.0882 318.735 76.4492C319.457 76.9005 320.45 76.9005 321.262 76.6297C321.533 76.5395 321.804 76.4492 321.985 76.0881C322.075 75.9076 322.346 75.7271 322.346 75.5466C322.436 74.5537 322.075 73.3803 321.262 72.8387C320.811 72.5679 320.179 72.5679 319.638 72.5679C319.096 72.4777 318.284 72.2971 318.103 71.7555C317.923 71.214 318.193 70.4016 318.645 70.0405C319.186 69.5892 319.908 69.5892 320.631 69.5892C321.353 69.5892 322.255 69.7697 322.887 69.5892C323.068 69.5892 323.338 69.3184 323.429 69.1379C323.519 68.9574 323.519 68.5963 323.429 68.4158C322.616 66.7911 320.631 65.9787 318.825 65.9787C318.735 65.9787 318.735 65.9787 318.645 65.9787C318.464 65.9787 318.193 65.7982 318.103 65.9787C317.742 66.2495 318.013 66.7911 318.013 67.2424C317.923 68.145 316.569 68.6866 316.388 69.5892C316.298 70.0405 316.659 70.5821 316.569 71.0334C316.569 71.4848 316.208 72.0263 315.756 72.1166C315.486 72.2069 315.215 71.936 314.944 71.8458C314.312 71.575 313.59 71.4847 312.958 71.1237C311.785 70.4918 310.792 69.6795 309.619 69.1379C308.355 68.5061 306.82 67.8742 305.466 68.2353C305.196 68.3255 304.925 68.4158 304.654 68.5963C304.112 69.1379 304.293 70.0406 304.022 70.7627C303.751 71.4848 303.21 72.1166 302.488 72.3874C301.766 72.6582 300.953 72.5679 300.231 72.4776C298.877 72.3874 297.614 71.8458 296.801 70.8529C295.989 69.86 295.718 68.0548 296.801 67.2424C297.614 66.7008 298.787 67.1521 299.69 66.8813C300.231 66.7911 300.683 66.1593 300.592 65.6177C300.502 65.2566 300.231 64.9858 300.231 64.6248C300.231 64.4442 300.412 64.2637 300.592 64.0832C300.953 63.7222 301.495 63.6319 301.946 63.3611C302.939 62.639 303.12 61.0143 304.113 60.3825C304.744 59.9312 305.647 59.8409 305.918 59.1188C306.008 58.9382 306.008 58.9382 305.918 58.7577C305.737 58.2161 305.105 58.3967 304.564 58.3967C303.571 58.3967 302.488 57.7648 302.036 56.9524C301.495 56.1401 301.766 54.9667 302.127 54.1543C302.398 53.703 302.759 53.2517 303.029 52.8906C303.571 52.1685 303.932 51.3562 304.383 50.5438C304.474 50.3633 304.564 50.273 304.654 50.0925C305.015 49.4607 305.466 48.8288 306.189 48.558C307.542 48.0165 308.987 48.9191 310.07 49.8217C310.972 50.5438 311.965 51.2659 313.048 50.9951C313.41 50.9049 313.771 50.7244 314.041 50.4536C323.7 57.3135 331.101 68.0548 333.628 80.511Z" fill="#C9E4FF"></path><path d="M289.484 48.381C289.394 49.4642 288.401 50.1863 287.589 50.8181C286.686 51.4499 285.874 52.0818 285.152 52.8941C284.159 53.9773 283.527 55.3312 282.805 56.6852C282.624 57.0462 282.534 57.4976 282.173 57.6781C281.812 57.8586 281.36 57.7684 280.909 57.6781C279.736 57.4976 278.743 56.8657 278.111 55.9631C277.479 54.9702 276.938 53.7968 277.208 52.7136C277.569 51.1792 278.923 49.9155 278.743 48.381C278.653 46.9368 277.479 45.7634 276.125 45.5829C274.771 45.4024 273.237 45.8537 272.063 46.666C270.89 47.5687 270.078 49.2836 270.619 50.6376C270.89 51.3597 271.612 51.9012 272.063 52.4428C272.605 52.9844 273.147 53.7968 272.876 54.5189C272.786 54.88 272.244 54.9702 271.973 55.241C271.071 56.2339 270.709 57.8586 270.98 59.2125C271.251 60.5665 271.793 62.0107 272.605 63.2743C273.056 63.9062 273.598 64.538 273.959 65.1699C274.501 66.0725 274.681 67.1556 274.681 68.2388C274.681 68.6901 274.771 69.2317 274.501 69.5927C273.959 70.4051 272.786 70.8564 271.793 70.8564C270.8 70.8564 269.626 70.4953 268.814 70.9467C268.363 71.2174 267.911 71.6688 267.46 71.9396C266.196 72.8422 264.662 73.3838 263.398 74.3767C261.954 75.5501 261.503 77.4456 260.51 78.9801C259.878 79.9729 258.885 80.7853 257.892 81.4172C256.899 82.049 255.726 82.41 254.552 82.5906C253.289 82.6808 251.845 82.41 250.761 83.0419C249.227 83.9445 249.046 86.0205 248.956 87.8258C248.956 88.1868 248.866 88.6381 248.956 88.9992C249.137 89.5408 249.498 89.9019 249.949 90.1726C250.852 90.7142 251.935 91.0752 253.108 91.2557C254.191 91.5265 255.275 91.7071 255.997 92.6097C256.629 93.2415 256.99 94.0539 257.531 94.776C258.343 95.7689 259.607 96.491 260.871 96.6715C262.135 96.9423 263.398 96.9423 264.662 97.2131C266.557 97.6644 268.363 98.5671 269.626 100.102C270.709 101.455 271.612 102.99 272.966 104.163C273.869 104.976 274.862 105.698 276.035 106.059C277.208 106.42 278.562 106.42 279.645 106.781C280.819 107.232 281.902 107.864 282.714 108.857C282.895 108.767 282.985 108.857 283.166 108.767C283.798 109.308 283.617 110.301 283.346 111.023C282.985 111.745 282.444 112.468 282.173 113.19C281.902 114.002 281.902 114.995 281.451 115.807C280.909 116.981 279.555 117.432 278.562 118.154C278.292 118.335 278.111 118.605 277.931 118.876C277.66 119.237 277.75 119.779 277.66 120.32C277.299 122.306 275.764 123.931 274.681 125.646C273.598 127.361 272.786 129.798 273.778 131.603C274.32 132.686 275.493 133.318 275.674 134.492C274.501 134.672 273.417 134.221 272.515 133.408C271.612 132.686 270.89 131.784 269.987 130.971C269.265 130.339 268.453 129.708 267.731 128.986C266.918 128.083 266.377 127 266.016 125.917C265.655 124.833 265.655 123.57 265.565 122.487C265.474 121.223 265.294 119.959 265.023 118.696C264.752 117.432 264.301 116.078 263.218 115.356C261.954 114.453 260.058 114.363 259.066 113.099C258.344 112.197 258.163 110.933 257.621 109.94C257.17 109.128 256.538 108.315 256.087 107.503C255.545 106.51 255.545 105.337 255.816 104.254C256.087 103.17 256.448 101.997 256.719 100.914C256.99 99.8307 257.441 98.7476 256.99 97.7547C256.358 96.3105 254.733 95.6786 253.379 94.8663C252.115 94.0539 250.942 93.061 249.498 92.5194C248.956 92.3389 248.415 92.1584 247.873 91.9779C245.978 91.4363 244.804 89.4505 244.804 87.555C244.804 85.5692 244.172 83.764 243.36 82.049C242.909 80.9659 242.638 79.8827 242.186 78.7995C241.825 77.8969 241.555 76.9943 241.555 76.0014V75.7306C241.555 74.6475 241.825 73.5643 242.638 72.9324C242.638 72.9324 242.638 72.9324 242.728 72.9324C243.721 72.2103 244.443 71.3077 244.804 70.2246C245.075 69.3219 245.165 68.329 245.346 67.3362C253.469 52.8039 268.995 42.875 286.776 42.875C286.957 43.5068 287.137 44.1387 287.498 44.6803C288.491 45.5829 289.665 46.8465 289.484 48.381Z" fill="#C9E4FF"></path><path d="M292.009 163.011C292.009 168.969 287.135 173.843 281.178 173.843H206.621C200.663 173.843 195.789 168.969 195.789 163.011C195.789 157.054 200.663 152.18 206.621 152.18H281.178C287.135 152.27 292.009 157.054 292.009 163.011Z" fill="#00CBB9"></path><path d="M302.564 141.347C302.564 147.304 297.69 152.179 291.732 152.179H217.175C211.218 152.179 206.344 147.304 206.344 141.347C206.344 135.39 211.218 130.516 217.175 130.516H291.732C297.69 130.606 302.564 135.39 302.564 141.347Z" fill="#116CFC"></path><path d="M302.564 119.999C302.564 125.957 297.69 130.831 291.732 130.831H217.175C211.218 130.831 206.344 125.957 206.344 119.999C206.344 114.042 211.218 109.168 217.175 109.168H291.732C297.69 109.258 302.564 114.042 302.564 119.999Z" fill="#FFC775"></path><path d="M206.623 170.235C202.652 170.235 199.402 166.986 199.402 163.014C199.402 159.042 202.652 155.793 206.623 155.793H281.18C285.152 155.793 288.401 159.042 288.401 163.014C288.401 166.986 285.152 170.235 281.18 170.235H206.623Z" fill="white"></path><path d="M217.17 148.571C213.199 148.571 209.949 145.321 209.949 141.35C209.949 137.378 213.199 134.129 217.17 134.129H291.727C295.699 134.129 298.948 137.378 298.948 141.35C298.948 145.321 295.699 148.571 291.727 148.571H217.17Z" fill="white"></path><path d="M217.17 127.219C213.199 127.219 209.949 123.97 209.949 119.998C209.949 116.027 213.199 112.777 217.17 112.777H291.727C295.699 112.777 298.948 116.027 298.948 119.998C298.948 123.97 295.699 127.219 291.727 127.219H217.17Z" fill="white"></path><path d="M24.8275 113.492L20.6445 117.477L34.1537 131.66L38.3367 127.675L24.8275 113.492Z" fill="#DEEEFF"></path><path d="M34.2513 113.376L20.0703 126.887L24.0552 131.069L38.2362 117.558L34.2513 113.376Z" fill="#DEEEFF"></path><path d="M236.546 27.9494L232.363 31.9336L245.872 46.1165L250.055 42.1323L236.546 27.9494Z" fill="#FFA51F"></path><path d="M245.96 27.7565L231.777 41.2656L235.762 45.4486L249.944 31.9395L245.96 27.7565Z" fill="#FFA51F"></path><path d="M345.421 129.027L339.691 129.766L342.197 149.192L347.926 148.453L345.421 129.027Z" fill="#DEEEFF"></path><path d="M353.145 134.37L333.719 136.879L334.459 142.608L353.885 140.099L353.145 134.37Z" fill="#DEEEFF"></path><path d="M331.089 1.54597L320.203 20.1719L325.191 23.0869L336.076 4.46096L331.089 1.54597Z" fill="#DEEEFF"></path><path d="M328.642 0.000613917L325.727 4.98828L330.714 7.90326L333.629 2.91559L328.642 0.000613917Z" fill="#DEEEFF"></path><path d="M23.4476 50.7829L20.9023 55.9688L40.2682 65.4737L42.8135 60.2879L23.4476 50.7829Z" fill="#DEEEFF"></path><path d="M22.2255 53.3649L19.6797 58.5508L24.8655 61.0966L27.4114 55.9108L22.2255 53.3649Z" fill="#DEEEFF"></path><path fill-rule="evenodd" clip-rule="evenodd" d="M51.9354 173.921C47.6701 170.21 45 164.766 45 158.698C45 147.566 54.0507 138.516 65.182 138.516C76.3133 138.516 85.364 147.566 85.364 158.698C85.364 164.766 82.6592 170.21 78.4286 173.921H51.9354Z" fill="#F88408"></path><path fill-rule="evenodd" clip-rule="evenodd" d="M213.571 69.1565C213.455 68.1353 212.571 67.3516 211.532 67.3516C195.619 67.3516 80.5104 67.3516 62.8065 67.3516C62.2098 67.3516 61.6621 67.5891 61.2713 68.0404C60.8778 68.4678 60.6992 69.0376 60.7666 69.6313C62.3679 83.738 70.9486 159.33 72.3908 172.035C72.5067 173.057 73.3915 173.84 74.4303 173.84C90.3439 173.84 205.43 173.84 223.156 173.84C223.73 173.84 224.3 173.603 224.669 173.151C225.063 172.724 225.263 172.154 225.196 171.561C223.592 157.43 215.014 81.862 213.571 69.1565Z" fill="#1A2D55"></path><path fill-rule="evenodd" clip-rule="evenodd" d="M215.11 67.6565C214.994 66.6353 214.11 65.8516 213.071 65.8516C197.158 65.8516 82.0494 65.8516 64.3456 65.8516C63.7488 65.8516 63.2012 66.0891 62.8104 66.5404C62.4168 66.9678 62.2383 67.5376 62.3057 68.1313C63.907 82.238 72.4876 157.83 73.9299 170.535C74.0458 171.557 74.9306 172.34 75.9694 172.34C91.883 172.34 206.969 172.34 224.695 172.34C225.269 172.34 225.839 172.103 226.208 171.651C226.602 171.224 226.802 170.654 226.735 170.061C225.131 155.93 216.553 80.362 215.11 67.6565Z" fill="#126DFD"></path><path d="M205.496 70.4297H70.8711L82.0516 168.926H216.677L205.496 70.4297Z" fill="#F9FAFC"></path><path fill-rule="evenodd" clip-rule="evenodd" d="M192.948 110.627L200.603 128.408L178.17 126.312L192.948 110.627Z" fill="#FFD529"></path><path d="M215.637 122.555C217.739 122.555 219.249 120.851 219.01 118.75C218.772 116.649 216.875 114.945 214.774 114.945C212.672 114.945 211.162 116.649 211.401 118.75C211.639 120.851 213.536 122.555 215.637 122.555Z" fill="white"></path><path fill-rule="evenodd" clip-rule="evenodd" d="M125.884 14.4426C125.884 11.4616 128.244 9.10156 131.225 9.10156H151.222C154.203 9.10156 156.563 11.4616 156.563 14.4426V25.1245C156.563 26.615 156.688 36.4274 156.688 36.4274C156.688 36.4274 152.837 32.08 151.222 30.4653H131.225C128.244 30.4653 125.884 28.1055 125.884 25.1245V14.4426Z" fill="#FFC775"></path><path fill-rule="evenodd" clip-rule="evenodd" d="M131.953 17.5706H145.173C145.675 17.5706 146.177 17.0687 146.177 16.5667C146.177 16.0647 145.675 15.5625 145.173 15.5625H131.953C131.451 15.5625 130.949 16.0647 130.949 16.5667C130.949 17.236 131.284 17.5706 131.953 17.5706Z" fill="white"></path><path fill-rule="evenodd" clip-rule="evenodd" d="M131.984 24.4057H150.805C151.281 24.4057 151.758 23.9295 151.758 23.453C151.758 22.9765 151.281 22.5 150.805 22.5H131.984C131.507 22.5 131.031 22.9765 131.031 23.453C131.031 24.1677 131.269 24.4057 131.984 24.4057Z" fill="white"></path><path fill-rule="evenodd" clip-rule="evenodd" d="M251.437 54.9282C251.522 54.6344 251.441 54.2928 251.196 54.1152C245.148 49.276 242.314 41.017 244.622 33.0857C247.698 22.5106 258.744 16.4845 269.299 19.555C279.855 22.6255 285.945 33.6362 282.868 44.2113C280.59 52.0448 273.875 57.4201 266.216 58.4845C265.923 58.5055 265.7 58.6523 265.615 58.946C265.017 61.0023 262.652 69.1299 262.652 69.1299C262.083 71.0882 260.04 72.1933 258.092 71.6265L251.022 69.57C249.064 69.0003 247.933 66.9724 248.503 65.014L251.437 54.9282Z" fill="#29BF9A"></path><path fill-rule="evenodd" clip-rule="evenodd" d="M261.579 39.5942C260.248 40.8041 258.552 41.8017 256.763 42.2397C256.663 40.8263 256.494 39.2861 256.13 37.9024C255.786 36.6311 254.872 33.9156 253.471 32.6561C252.927 32.072 252.278 31.7777 251.602 31.6874C250.907 31.6981 250.163 31.9081 249.357 32.6318C247.597 34.143 247.156 36.4638 247.702 38.5395C248.201 40.7076 249.656 42.6215 251.602 43.4005C252.82 43.8613 254.085 44.0159 255.338 43.9544C255.336 45.9769 255.186 47.9573 255.006 49.9283C254.765 52.7333 254.029 59.5467 253.229 62.2957C253.115 62.6884 253.353 63.0779 253.746 63.1921C254.129 63.3035 254.539 63.1026 254.653 62.7099C255.481 59.8627 256.226 52.9451 256.476 50.0361C256.665 47.9612 256.823 45.8779 256.806 43.743C258.858 43.2753 260.799 42.242 262.354 40.8843C263.018 41.7161 263.885 42.3944 264.898 42.902C265.891 43.2972 266.96 43.5027 268.027 43.4937C265.413 49.4419 260.032 61.8259 258.997 65.6777C258.893 66.0732 259.131 66.4614 259.523 66.5757C259.906 66.687 260.306 66.4844 260.411 66.0889C261.503 62.0407 267.26 48.9136 269.71 43.3439C271.665 42.8476 273.487 41.7799 274.709 40.3251C275.272 39.6368 275.967 38.4552 276.182 37.2399C276.331 36.3249 276.176 35.4285 275.525 34.813C275.041 34.3528 274.501 34.1958 273.935 34.3504C273.329 34.4935 272.715 34.9543 272.327 35.3738C270.841 36.8583 269.968 39.0533 269.142 40.9426C269.017 41.2257 268.854 41.6041 268.69 41.9825C267.604 42.0925 266.497 41.9824 265.513 41.4833C264.638 41.1224 263.948 40.4958 263.413 39.8078C263.636 39.5533 263.849 39.2961 264.043 39.033C264.74 38.0644 265.569 36.4949 265.821 34.9708C265.998 33.8509 265.851 32.7445 265.208 31.9183C264.792 31.3714 264.32 31.234 263.889 31.2151C263.478 31.2019 263.039 31.3931 262.649 31.7059C261.842 32.3228 261.139 33.8227 261.007 34.4232C260.591 36.2189 260.831 37.9923 261.579 39.5942ZM255.306 42.4553C255.225 41.0476 255.057 39.613 254.684 38.3332C254.46 37.3096 253.867 35.5405 252.976 34.3227C252.53 33.7672 252.084 33.2122 251.477 33.2486C251.134 33.1487 250.744 33.3542 250.345 33.6641C249.004 34.8712 248.734 36.6027 249.13 38.2085C249.516 39.9183 250.625 41.4125 252.129 42.063C253.151 42.4667 254.229 42.5682 255.306 42.4553ZM270.488 41.5476C271.67 41.1459 272.761 40.3979 273.575 39.3568C274.011 38.8448 274.562 37.9402 274.721 37.028C274.776 36.6182 274.763 36.1886 274.485 35.7884C274.377 35.757 274.25 35.8266 274.162 35.8009C273.859 35.9258 273.588 36.1658 273.384 36.426C272.005 37.8352 271.267 39.7507 270.488 41.5476ZM262.666 38.4195C262.734 38.3327 262.792 38.2428 262.86 38.156C263.431 37.3638 264.126 36.0751 264.35 34.756C264.471 34.0459 264.436 33.3976 264.04 32.8564C263.98 32.7325 263.912 32.7126 263.843 32.6926C263.735 32.6612 263.657 32.7452 263.56 32.8234C263.385 32.9855 263.239 33.1556 263.085 33.4301C262.766 33.8696 262.516 34.436 262.45 34.7363C262.176 35.9344 262.255 37.2349 262.666 38.4195Z" fill="#70EEB1"></path><path fill-rule="evenodd" clip-rule="evenodd" d="M264.821 67.4864C265.383 65.5523 264.248 63.4856 262.292 62.9168L252.892 60.1825C250.925 59.6103 248.859 60.7454 248.296 62.6795L246.22 69.8153C245.658 71.7494 246.793 73.816 248.76 74.3882L258.16 77.1225C260.115 77.6913 262.182 76.5563 262.745 74.6222L264.821 67.4864Z" fill="#986EF1"></path><path fill-rule="evenodd" clip-rule="evenodd" d="M247.055 66.3108L264.53 67.5711C264.94 67.5842 265.299 67.2641 265.325 66.8468C265.36 66.4323 265.036 66.1249 264.625 66.1117L247.15 64.8514C246.739 64.8383 246.391 65.1613 246.355 65.5757C246.319 65.9902 246.644 66.2976 247.055 66.3108Z" fill="#6A24FF"></path><path fill-rule="evenodd" clip-rule="evenodd" d="M246.348 69.6154L263.823 70.8757C264.233 70.8889 264.592 70.5688 264.618 70.1515C264.653 69.737 264.329 69.4296 263.918 69.4164L246.443 68.1561C246.032 68.143 245.684 68.466 245.648 68.8804C245.612 69.2949 245.937 69.6023 246.348 69.6154Z" fill="#6A24FF"></path><path d="M4.39815 129.726C6.31804 129.726 7.87443 128.17 7.87443 126.25C7.87443 124.33 6.31804 122.773 4.39815 122.773C2.47825 122.773 0.921875 124.33 0.921875 126.25C0.921875 128.17 2.47825 129.726 4.39815 129.726Z" fill="#FF9292"></path><path fill-rule="evenodd" clip-rule="evenodd" d="M4.24566 126.39C8.17467 130.468 12.1037 134.281 16.2912 143.272C16.3429 143.374 16.4721 143.435 16.5755 143.374C16.6789 143.312 16.7306 143.19 16.6789 143.088C12.4656 134.036 8.51072 130.203 4.55586 126.085C4.47832 126.003 4.34905 126.003 4.24566 126.085C4.16811 126.166 4.16811 126.309 4.24566 126.39Z" fill="#242D3C"></path><path fill-rule="evenodd" clip-rule="evenodd" d="M14.7395 118.484C14.481 118.647 14.2484 119.014 14.0157 119.544C13.7314 120.298 13.4988 121.399 13.3437 122.745C12.7491 127.964 13.3178 136.935 16.2646 143.275C16.3163 143.377 16.4455 143.438 16.5489 143.377C16.6523 143.316 16.704 143.194 16.6523 143.092C13.7314 136.812 13.1886 127.944 13.7572 122.806C13.9123 121.501 14.1191 120.42 14.4035 119.707C14.5586 119.279 14.7395 118.973 14.9463 118.851C15.0497 118.789 15.0755 118.647 15.0238 118.545C14.9721 118.443 14.8429 118.422 14.7395 118.484Z" fill="#242D3C"></path><path fill-rule="evenodd" clip-rule="evenodd" d="M12.2728 174.174L7.59578 152.801C7.59578 152.801 4.42746 143.547 13.4798 143.195L9.1045 135.651L23.3871 135.551L19.1627 143.044C19.1627 143.044 27.3098 143.245 25.5999 151.543L21.6772 174.325L12.2728 174.174Z" fill="#17A6DD"></path><path d="M14.8415 120.871C16.4497 120.871 17.7533 119.567 17.7533 117.959C17.7533 116.351 16.4497 115.047 14.8415 115.047C13.2334 115.047 11.9297 116.351 11.9297 117.959C11.9297 119.567 13.2334 120.871 14.8415 120.871Z" fill="#FF9292"></path><path d="M21.9509 127.757C23.5591 127.757 24.8627 126.454 24.8627 124.845C24.8627 123.237 23.5591 121.934 21.9509 121.934C20.3427 121.934 19.0391 123.237 19.0391 124.845C19.0391 126.454 20.3427 127.757 21.9509 127.757Z" fill="#FF9292"></path><path d="M16.3861 170.503L59.4805 171.094L59.7316 154.554L16.6372 153.963L16.3861 170.503Z" fill="#F9F9FC"></path><path d="M59.5899 157.922H16.4743C16.2933 157.922 16.1641 157.779 16.1641 157.596C16.1641 157.412 16.3192 157.27 16.4743 157.27H59.5899C59.7709 157.27 59.9001 157.412 59.9001 157.596C59.9001 157.779 59.745 157.922 59.5899 157.922Z" fill="#242D3C"></path><path d="M59.5899 160.754H16.4743C16.2933 160.754 16.1641 160.611 16.1641 160.428C16.1641 160.244 16.3192 160.102 16.4743 160.102H59.5899C59.7709 160.102 59.9001 160.244 59.9001 160.428C59.9001 160.611 59.745 160.754 59.5899 160.754Z" fill="#242D3C"></path><path d="M59.5899 163.711H16.4743C16.2933 163.711 16.1641 163.568 16.1641 163.385C16.1641 163.201 16.3192 163.059 16.4743 163.059H59.5899C59.7709 163.059 59.9001 163.201 59.9001 163.385C59.9001 163.568 59.745 163.711 59.5899 163.711Z" fill="#242D3C"></path><path d="M59.5899 166.586H16.4743C16.2933 166.586 16.1641 166.443 16.1641 166.26C16.1641 166.076 16.3192 165.934 16.4743 165.934H59.5899C59.7709 165.934 59.9001 166.076 59.9001 166.26C59.9001 166.443 59.745 166.586 59.5899 166.586Z" fill="#242D3C"></path><path fill-rule="evenodd" clip-rule="evenodd" d="M60.4539 163.348H52.1563L49.3905 168.769L27.0943 168.606L23.8204 163.348H15.918V174.298H60.5104V163.348H60.4539Z" fill="#FEC674"></path><path d="M122.041 39.5759L96.2344 43.5547L98.1499 55.9788L123.957 52L122.041 39.5759Z" fill="#29BF9A"></path><path d="M171.023 69.3683C172.451 67.0022 171.689 63.9272 169.323 62.5001C166.957 61.073 163.882 61.8341 162.455 64.2002C161.028 66.5663 161.789 69.6413 164.155 71.0684C166.521 72.4955 169.596 71.7343 171.023 69.3683Z" fill="#116CFC"></path><path fill-rule="evenodd" clip-rule="evenodd" d="M181.829 62.1968L174.872 44.1318L197.206 47.0984L181.829 62.1968Z" fill="#FFD529"></path><path fill-rule="evenodd" clip-rule="evenodd" d="M54.7026 85.3204L35.9898 90.5764L40.1832 72.4123L54.7026 85.3204Z" fill="#FFD529"></path><path d="M89.6992 119.793C106.138 119.793 115.931 125.039 127.475 150.921" stroke="#FFC775" stroke-width="2" stroke-linecap="round" stroke-dasharray="4 4"></path><path d="M127.477 150.917C135.055 137.338 154.338 118.326 170.846 150.917" stroke="#FFC775" stroke-width="2" stroke-linecap="round" stroke-dasharray="4 4"></path><path d="M170.844 150.919C176.222 141.945 189.907 129.382 201.622 150.919" stroke="#FFC775" stroke-width="2" stroke-linecap="round" stroke-dasharray="4 4"></path><circle cx="87.5632" cy="120.559" r="8.32491" fill="#EA5657"></circle><circle cx="127.477" cy="148.755" r="8.32491" fill="#EA5657" fill-opacity="0.75"></circle><circle cx="170.516" cy="148.755" r="8.32491" fill="#EA5657" fill-opacity="0.5"></circle><circle cx="201.2" cy="148.755" r="8.32491" fill="#EA5657" fill-opacity="0.25"></circle></svg>