<?xml version="1.0" encoding="UTF-8"?> <svg xmlns="http://www.w3.org/2000/svg" width="28" height="28" viewBox="0 0 28 28" fill="none"><path d="M28 14C28 21.732 21.732 28 14 28C6.26801 28 0 21.732 0 14C0 6.26801 6.26801 0 14 0C21.732 0 28 6.26801 28 14Z" fill="#1B53F4"></path><path d="M20.784 8.474C19.068 8.903 17.742 9.761 16.728 11.048C15.714 12.296 15.246 13.817 15.246 15.572C15.246 16.664 15.48 17.6 15.987 18.302C16.533 19.004 17.235 19.394 18.132 19.394C18.873 19.394 19.458 19.16 19.926 18.731C20.394 18.263 20.667 17.678 20.667 16.976C20.667 16.274 20.433 15.728 20.004 15.26C19.536 14.792 18.951 14.597 18.288 14.597C17.898 14.597 17.586 14.636 17.43 14.714C17.43 13.778 17.703 12.92 18.288 12.179C18.912 11.321 19.731 10.736 20.784 10.424V8.474ZM13.062 8.474C11.346 8.903 10.02 9.761 9.045 11.048C8.031 12.296 7.524 13.817 7.524 15.572C7.524 16.703 7.758 17.6 8.304 18.302C8.811 19.004 9.513 19.394 10.41 19.394C11.19 19.394 11.814 19.16 12.282 18.731C12.711 18.263 12.945 17.678 12.945 16.976C12.945 16.274 12.711 15.728 12.243 15.26C11.775 14.792 11.229 14.597 10.605 14.597C10.176 14.597 9.864 14.636 9.708 14.714C9.708 13.778 9.981 12.92 10.605 12.14C11.19 11.321 12.009 10.736 13.062 10.424V8.474Z" fill="white"></path></svg> 