<?xml version="1.0" encoding="UTF-8"?> <svg xmlns="http://www.w3.org/2000/svg" width="20" height="20" viewBox="0 0 20 20" fill="none"><path d="M13.7414 18.9583H6.2497C4.81637 18.9583 3.74137 18.575 3.0747 17.8166C2.40804 17.0583 2.1497 15.9583 2.3247 14.5333L3.0747 8.2833C3.29137 6.44163 3.75804 4.79163 7.00804 4.79163H13.008C16.2497 4.79163 16.7164 6.44163 16.9414 8.2833L17.6914 14.5333C17.858 15.9583 17.608 17.0666 16.9414 17.8166C16.2497 18.575 15.183 18.9583 13.7414 18.9583ZM6.9997 6.04163C4.5997 6.04163 4.48303 6.99161 4.30803 8.42495L3.55804 14.6749C3.43304 15.7333 3.58303 16.5083 4.00803 16.9833C4.43303 17.4583 5.18303 17.7 6.2497 17.7H13.7414C14.808 17.7 15.558 17.4583 15.983 16.9833C16.408 16.5083 16.558 15.7333 16.433 14.6749L15.683 8.42495C15.508 6.98328 15.3997 6.04163 12.9914 6.04163H6.9997Z" fill="#767676"></path><path d="M13.3327 7.29163C12.991 7.29163 12.7077 7.00829 12.7077 6.66663V3.74996C12.7077 2.84996 12.1493 2.29163 11.2493 2.29163H8.74935C7.84935 2.29163 7.29102 2.84996 7.29102 3.74996V6.66663C7.29102 7.00829 7.00768 7.29163 6.66602 7.29163C6.32435 7.29163 6.04102 7.00829 6.04102 6.66663V3.74996C6.04102 2.15829 7.15768 1.04163 8.74935 1.04163H11.2493C12.841 1.04163 13.9577 2.15829 13.9577 3.74996V6.66663C13.9577 7.00829 13.6743 7.29163 13.3327 7.29163Z" fill="#767676"></path><path d="M17.0077 14.8167H6.66602C6.32435 14.8167 6.04102 14.5333 6.04102 14.1917C6.04102 13.85 6.32435 13.5667 6.66602 13.5667H17.0077C17.3494 13.5667 17.6327 13.85 17.6327 14.1917C17.6327 14.5333 17.3494 14.8167 17.0077 14.8167Z" fill="#767676"></path></svg> 